<?xml version="1.0" standalone="no"?>
<!DOCTYPE svg PUBLIC "-//W3C//DTD SVG 1.1//EN" "http://www.w3.org/Graphics/SVG/1.1/DTD/svg11.dtd" >
<svg>
<metadata>
Created by FontForge 20090622 at Fri Feb  7 21:44:14 2020
 By deploy user
Copyright (c) 2018 by Studio Kmzero. All rights reserved.
</metadata>
<defs>
<font id="RadcliffeDisplay-Bold" horiz-adv-x="2531" >
  <font-face 
    font-family="Radcliffe Display"
    font-weight="700"
    font-stretch="normal"
    units-per-em="2048"
    panose-1="2 0 5 3 0 0 0 2 0 4"
    ascent="1638"
    descent="-410"
    x-height="1039"
    cap-height="1458"
    bbox="-306 -637 2536 2145"
    underline-thickness="102"
    underline-position="-103"
    unicode-range="U+000D-U+FB06"
  />
<missing-glyph horiz-adv-x="1559" 
 />
    <glyph glyph-name=".notdef" horiz-adv-x="1559" 
 />
    <glyph glyph-name="NULL" horiz-adv-x="0" 
 />
    <glyph glyph-name="NULL" horiz-adv-x="0" 
 />
    <glyph glyph-name="nonmarkingreturn" unicode="&#xd;" horiz-adv-x="772" 
 />
    <glyph glyph-name="space" unicode=" " horiz-adv-x="772" 
 />
    <glyph glyph-name="numbersign" unicode="#" horiz-adv-x="1334" 
d="M959 400l-28 -400h-211l24 400h-201l-29 -400h-212l28 400h-211v215h224l16 237h-207v216h220l28 400h215l-30 -400h201l30 400h213l-28 -400h211v-216h-224l-17 -237h212v-215h-224zM774 852h-202l-15 -237h202z" />
    <glyph glyph-name="dollar" unicode="$" horiz-adv-x="1178" 
d="M1122 394q0 -86 -28 -155.5t-79 -121.5t-122.5 -85.5t-157.5 -48.5v-151h-213v139q-59 1 -118.5 5.5t-115.5 12t-106.5 17.5t-92.5 23v404h277l43 -206q11 -2 32 -4.5t47 -5t55.5 -4t56.5 -1.5q21 0 50 4t55.5 17.5t45.5 40.5t19 72q0 33 -13 58t-41.5 46t-73 40.5
t-107.5 41.5q-119 41 -203 80t-137.5 84.5t-78 102.5t-24.5 134q0 72 17.5 128t47.5 98.5t71 72.5t89 50t99.5 31.5t103.5 16.5v133h214v-129q48 -3 95 -8t91 -12.5t83.5 -16.5t71.5 -20v-368h-284l-37 173q-14 5 -44.5 9t-65.5 4q-59 0 -97.5 -7t-61 -21t-31.5 -34.5
t-9 -46.5q0 -33 14 -57.5t40 -45t63 -37.5t82 -33q124 -46 214 -84t148.5 -82.5t87 -104t28.5 -148.5z" />
    <glyph glyph-name="percent" unicode="%" horiz-adv-x="2010" 
d="M610 -114l-208 109l979 1556l207 -110zM810 1029q0 -99 -22.5 -182.5t-69.5 -143.5t-120.5 -93.5t-175.5 -33.5q-100 0 -172.5 33.5t-119.5 94t-69.5 144t-22.5 183.5t22.5 184.5t70 145t120 94.5t173.5 34t174 -34t120 -95t69.5 -145.5t22.5 -185.5zM538 1031
q0 55 -4 104.5t-16 86.5t-34.5 58.5t-59.5 21.5q-36 0 -58 -21.5t-34.5 -58.5t-16.5 -86.5t-4 -104.5q0 -56 4 -105t16 -85t34 -57t57 -21q37 0 60 21t35.5 57t16.5 85t4 105zM1960 421q0 -99 -22.5 -182.5t-69.5 -143.5t-120.5 -93.5t-175.5 -33.5q-100 0 -172.5 33.5
t-119.5 94t-69.5 144t-22.5 183.5q0 101 22.5 185t70 145t120 94.5t173.5 33.5t174 -34t120 -95t69.5 -145.5t22.5 -185.5zM1688 423q0 55 -4 104.5t-16 86.5t-34.5 58.5t-59.5 21.5q-36 0 -58 -21.5t-34.5 -58.5t-16.5 -86.5t-4 -104.5q0 -56 4 -104.5t16 -85t34 -57.5
t57 -21q37 0 60 21t35.5 57.5t16.5 85t4 104.5z" />
    <glyph glyph-name="ampersand" unicode="&#x26;" 
d="M868 355l859 867q169 -219 169 -437q0 -126 -39 -235.5t-114 -194.5h-875zM739 333q-81 104 -122 214.5t-41 237.5q0 50 9 106t27.5 110.5t47.5 104.5t69 89h869zM797 281h881q-97 -84 -210.5 -125t-232.5 -41q-127 0 -237 44t-201 122zM1678 1275h-889q103 78 214.5 122
t231.5 44q65 0 123 -12.5t112 -35t105 -52.5t103 -66z" />
    <glyph glyph-name="quoteright" unicode="&#x2019;" horiz-adv-x="669" 
d="M130 1449l163 164q58 -9 104 -35q19 -11 38 -27.5t34 -39.5t24 -53t9 -68q0 -74 -22 -139.5t-61 -121t-91 -102t-112 -82.5l-84 99q24 23 51 52t50 60.5t39 64.5t18 64l-160 136v28z" />
    <glyph glyph-name="parenleft" unicode="(" horiz-adv-x="819" 
d="M456 -503q-57 72 -123 169.5t-123 226t-95 290.5t-38 362q0 133 17.5 252t47 223.5t68 195t80.5 167t84.5 139t80.5 111.5l224 -114l-79.5 -154.5t-67 -146.5t-54.5 -147.5t-40.5 -156.5t-25 -174.5t-8.5 -201.5q0 -110 8.5 -199t25 -165t40.5 -143.5t54.5 -134
t67.5 -136l80 -150.5z" />
    <glyph glyph-name="parenright" unicode=")" horiz-adv-x="819" 
d="M63 -390l80 150.5t67.5 136t54.5 134t40.5 143.5t25 165t8.5 199q0 109 -8.5 201.5t-25 174.5t-40 156.5t-54 147.5t-67.5 146.5l-79 154.5l223 114q38 -49 80.5 -111.5t84.5 -139t80.5 -167t68 -195t47 -223.5t17.5 -252t-17.5 -249.5t-47 -217t-68 -186t-80.5 -157.5
t-85 -131l-81 -107z" />
    <glyph glyph-name="asterisk" unicode="*" horiz-adv-x="829" 
d="M639 884l-164 143l42 -214h-230l42 214l-167 -141l-112 195l206 73l-206 72l114 197l165 -143l-42 215h229l-41 -215l164 143l115 -197l-206 -72l206 -72z" />
    <glyph glyph-name="plus" unicode="+" horiz-adv-x="1290" 
d="M784 481v-441h-270v441h-457v258h457v440h270v-440h449v-258h-449z" />
    <glyph glyph-name="comma" unicode="," horiz-adv-x="695" 
d="M147 163l163 164q58 -9 105 -35q19 -11 38 -27.5t34 -39.5t24 -53t9 -68q0 -74 -22 -139.5t-61 -121t-91 -102t-112 -82.5l-84 99q24 23 51 52t50 61t38.5 64.5t17.5 63.5l-160 136v28z" />
    <glyph glyph-name="hyphen" unicode="-" horiz-adv-x="709" 
d="M93 467v261h520v-261h-520z" />
    <glyph glyph-name="period" unicode="." horiz-adv-x="695" 
d="M147 183l187 188h28l194 -194v-27l-189 -188h-26l-194 194v27z" />
    <glyph glyph-name="slash" unicode="/" horiz-adv-x="849" 
d="M215 -194l-241 86l659 1767l238 -85z" />
    <glyph glyph-name="colon" unicode=":" horiz-adv-x="695" 
d="M147 183l187 188h28l194 -194v-27l-189 -188h-26l-194 194v27zM147 937l187 188h28l194 -194v-27l-189 -188h-26l-194 194v27z" />
    <glyph glyph-name="semicolon" unicode=";" horiz-adv-x="695" 
d="M147 163l163 164q58 -9 105 -35q19 -11 38 -27.5t34 -39.5t24 -53t9 -68q0 -74 -22 -139.5t-61 -121t-91 -102t-112 -82.5l-84 99q24 23 51 52t50 61t38.5 64.5t17.5 63.5l-160 136v28zM115 938l187 188h28l194 -194v-27l-189 -188h-26l-194 194v27z" />
    <glyph glyph-name="less" unicode="&#x3c;" horiz-adv-x="1254" 
d="M835 -76l-659 624l656 624l218 -217l-450 -405l451 -404z" />
    <glyph glyph-name="equal" unicode="=" horiz-adv-x="1257" 
d="M119 661v260h1019v-260h-1019zM119 244v257h1019v-257h-1019z" />
    <glyph glyph-name="greater" unicode="&#x3e;" horiz-adv-x="1255" 
d="M222 146l451 404l-449 405l218 217l655 -624l-658 -624z" />
    <glyph glyph-name="question" unicode="?" horiz-adv-x="1034" 
d="M186 659q21 62 60 109t85.5 84.5t94.5 69t87 62.5t64 64.5t25 76.5q0 38 -13 71t-44 56t-83 34t-131 5l-31 -283h-238v483q17 4 52 10.5t83.5 12.5t108.5 10t128 4q133 0 232.5 -31t164.5 -86t97.5 -129t32.5 -159q0 -73 -22 -125t-57 -91.5t-80 -70l-90.5 -59.5t-88 -60
t-73.5 -72q-13 -17 -21.5 -35t-11 -38t0.5 -44.5t13 -54.5h-226zM199 186l194 194h27l194 -194v-27l-194 -194h-27l-194 194v27z" />
    <glyph glyph-name="at" unicode="@" 
d="M868 355l859 867q169 -219 169 -437q0 -126 -39 -235.5t-114 -194.5h-875zM739 333q-81 104 -122 214.5t-41 237.5q0 50 9 106t27.5 110.5t47.5 104.5t69 89h869zM797 281h881q-97 -84 -210.5 -125t-232.5 -41q-127 0 -237 44t-201 122zM1678 1275h-889q103 78 214.5 122
t231.5 44q65 0 123 -12.5t112 -35t105 -52.5t103 -66z" />
    <glyph glyph-name="A" unicode="A" horiz-adv-x="1712" 
d="M1110 424h-560l-63 -188l153 -37v-199h-608v201l145 35l481 1222h412l452 -1215l159 -38v-205h-674v205l164 38zM631 662h400l-185 554h-28z" />
    <glyph glyph-name="B" unicode="B" horiz-adv-x="1369" 
d="M1346 422q0 -104 -42.5 -182.5t-120 -132t-186.5 -80.5t-241 -27h-672v205l167 38v968l-167 36v211h722q54 0 110.5 -7t109 -23t98.5 -42.5t80.5 -66.5t54.5 -94.5t20 -125.5q0 -80 -29.5 -137.5t-75 -96t-101.5 -59.5t-110 -28v-28q37 -1 80 -8.5t85.5 -23t81.5 -40.5
t69.5 -61t48.5 -84.5t18 -110.5zM994 431q0 49 -14 87.5t-47 64t-87.5 39t-134.5 13.5h-126v-412h114q156 0 225.5 52t69.5 156zM927 1058q0 88 -48.5 135t-143.5 47h-150v-379h149q43 0 78.5 14.5t61 41t39.5 62.5t14 79z" />
    <glyph glyph-name="C" unicode="C" horiz-adv-x="1485" 
d="M1324 264l29 -217q-30 -12 -79.5 -25.5t-112.5 -25t-137 -19t-153 -7.5q-194 0 -341 54t-246 152t-149 234.5t-50 301.5q0 65 13.5 147.5t47 169t90.5 169t144 147t208 104t283 39.5q77 0 150.5 -6t135.5 -15.5t109 -20.5t72 -20v-594h-250l-48 398q-11 3 -29.5 5.5
t-40 5t-44 3.5t-42.5 1q-123 0 -206.5 -44.5t-135.5 -117.5t-74.5 -166t-22.5 -190q0 -61 10 -123t32.5 -119t59 -106.5t90 -86.5t125 -58t163.5 -21q51 0 98.5 4t94.5 12t95.5 19t99.5 25z" />
    <glyph glyph-name="D" unicode="D" horiz-adv-x="1662" 
d="M1577 761q0 -182 -53.5 -323.5t-152.5 -239t-239.5 -148t-314.5 -50.5h-732v205l166 38v968l-167 36v211h753q168 0 305 -42.5t233.5 -128.5t149 -217t52.5 -309zM1225 743q0 58 -9.5 116.5t-31.5 111.5t-57.5 98.5t-87.5 79t-122 52.5t-160 19h-163v-982h167
q93 0 164 21t122.5 57.5t85.5 85.5t54.5 105t29 116.5t8.5 119.5z" />
    <glyph glyph-name="E" unicode="E" horiz-adv-x="1350" 
d="M1218 0h-1132v205l165 38v969l-165 34v212h1130v-442h-241l-44 204h-337v-352h401v-239h-401v-391h363l72 209h248z" />
    <glyph glyph-name="F" unicode="F" horiz-adv-x="1234" 
d="M952 1016l-44 204h-314v-382h417v-238h-417v-357l189 -38v-205h-699v205l167 38v968l-165 35v212h1107v-442h-241z" />
    <glyph glyph-name="G" unicode="G" horiz-adv-x="1555" 
d="M1403 32q-27 -9 -77 -19.5t-116.5 -20t-147.5 -16t-170 -6.5q-202 0 -353 54.5t-251.5 154t-151 239t-50.5 309.5q0 61 13.5 141.5t47 165t90.5 166t145 145.5t209.5 103.5t283.5 39.5q110 0 198 -8t153 -19t106.5 -22.5t59.5 -17.5v-487h-250l-48 295q-25 6 -79.5 11
t-123.5 5q-125 0 -210 -45t-137.5 -118t-75 -166t-22.5 -189q0 -61 10 -123t33 -119t60 -106.5t91 -86.5t126.5 -58t166.5 -21q43 0 75 3.5t52 5.5v254l-167 36v211h510v-691z" />
    <glyph glyph-name="H" unicode="H" horiz-adv-x="1754" 
d="M1503 1211v-968l167 -38v-205h-674v205l164 38v386h-566v-386l164 -38v-205h-674v205l167 38v968l-167 36v211h674v-211l-164 -36v-343h566v343l-164 36v211h674v-211z" />
    <glyph glyph-name="I" unicode="I" horiz-adv-x="844" 
d="M594 1211v-968l167 -38v-205h-677v205l167 38v968l-167 36v211h677v-211z" />
    <glyph glyph-name="J" unicode="J" horiz-adv-x="777" 
d="M-97 -163q81 6 140.5 31t99 64t58.5 88.5t19 103.5l-1 1087l-187 36v211h697v-211l-167 -36v-1088q0 -135 -42.5 -233.5t-124 -162t-200.5 -92.5t-272 -26l-30 213z" />
    <glyph glyph-name="K" unicode="K" horiz-adv-x="1652" 
d="M1195 0l-368 665l-242 -215v-207l169 -38v-205h-670v205l167 38v968l-167 36v211h655v-212l-154 -35v-466l481 466l-117 36v211h638v-216l-148 -32l-370 -337l359 -608l178 -34v-231h-411z" />
    <glyph glyph-name="L" unicode="L" horiz-adv-x="1249" 
d="M1172 0h-1088v205l167 38v968l-167 36v211h697v-211l-187 -36v-973h316l52 209h248z" />
    <glyph glyph-name="M" unicode="M" horiz-adv-x="2226" 
d="M1974 1211l-1 -968l167 -38v-205h-674v205l165 38v687l17 187h-20l-70 -187l-324 -805h-312l-317 805l-75 197h-20l18 -198v-686l165 -38v-205h-609v205l167 38v968l-167 36v211h665l311 -812l26 -174h17l51 174l314 812h675v-211z" />
    <glyph glyph-name="N" unicode="N" horiz-adv-x="1803" 
d="M1559 1208v-1208h-334l-623 945l-65 127h-15l6 -144v-685l165 -38v-205h-609v205l167 38v965l-196 38v212h598l550 -871l73 -144h14l-8 170v595l-172 38v212h623v-211z" />
    <glyph glyph-name="O" unicode="O" horiz-adv-x="1627" 
d="M1541 725q0 -169 -43.5 -308t-133.5 -238.5t-227.5 -154t-326.5 -54.5q-186 0 -322.5 54.5t-225.5 154t-132.5 239.5t-43.5 310t43.5 310t133 240t226 155t323.5 55t324.5 -55t227.5 -155t133.5 -241t43.5 -312zM1189 727q0 112 -20 207t-64.5 164t-116.5 108t-176 39
q-103 0 -174 -39t-115.5 -108t-64.5 -164t-20 -206q0 -112 20 -206.5t64 -163t115 -107t173 -38.5q105 0 177 38.5t117 107t65 163t20 205.5z" />
    <glyph glyph-name="P" unicode="P" horiz-adv-x="1384" 
d="M1336 1015q0 -103 -34 -191t-101 -153t-168 -102t-234 -37h-90v238h36q53 0 97 14t76 43t49.5 73.5t17.5 106.5q0 54 -13 94.5t-43 66.5t-78 39t-118 13h-139v-977l189 -38v-205h-699v205l167 38v968l-167 36v211h695q151 4 256.5 -27t172.5 -89.5t97.5 -141.5t30.5 -185
z" />
    <glyph glyph-name="Q" unicode="Q" horiz-adv-x="1627" 
d="M1541 725q0 -147 -33 -272t-100.5 -220.5t-171 -159t-244.5 -88.5q30 -32 74.5 -56.5t99 -41.5t115 -26.5t121.5 -12.5q49 -2 86.5 1.5t79.5 10.5l17 -8l33 -216q-60 -23 -122.5 -32t-129.5 -7q-111 3 -217.5 31t-198 77.5t-161 118.5t-106.5 154q-153 18 -265.5 79
t-186 158.5t-109.5 227.5t-36 285q0 170 43.5 310t133 240t226 155t323.5 55t324.5 -55t227.5 -155t133.5 -241t43.5 -312zM1188 727q0 112 -19.5 207t-64 164t-116.5 108t-176 39q-103 0 -174 -39t-115.5 -108t-64 -164t-19.5 -206q0 -112 19.5 -206.5t64 -163t115 -107
t172.5 -38.5q105 0 177 38.5t116.5 107t64.5 163t20 205.5z" />
    <glyph glyph-name="R" unicode="R" horiz-adv-x="1500" 
d="M1336 1047q0 -77 -23 -139.5t-61.5 -111.5t-90 -85.5t-108.5 -61.5l261 -410l136 -33v-206h-413l-294 586h-158v-343l174 -38v-205h-675v205l167 38v968l-167 36v211h718q136 0 236.5 -29t166.5 -82t98.5 -129.5t32.5 -170.5zM985 1028q0 46 -13.5 82t-43.5 60.5t-78 37
t-117 12.5h-148v-400h164q61 0 106 15t73.5 42.5t42.5 65.5t14 85z" />
    <glyph glyph-name="S" unicode="S" horiz-adv-x="1316" 
d="M1229 430q0 -111 -43 -196.5t-120.5 -144t-185.5 -89t-238 -30.5q-74 0 -149 4t-145.5 12.5t-132.5 20.5t-110 27v423h250l48 -224q12 -3 40 -6.5t63.5 -6.5t74.5 -5t73 -2q38 0 77.5 7.5t72 27t53 52t20.5 83.5q0 43 -17 74.5t-51.5 57.5t-87 48.5t-124.5 47.5
q-128 44 -220 86.5t-151 92.5t-87.5 112.5t-28.5 146.5q0 91 26 159t71 117t104.5 80.5t126.5 50t137.5 25.5t137.5 7q66 0 132 -5t126.5 -14t113.5 -20.5t93 -24.5v-387h-258l-40 192q-9 2 -27.5 5t-42 5.5t-49.5 4t-50 1.5q-69 0 -116.5 -9t-77 -27t-42.5 -45.5t-13 -63.5
q0 -39 16.5 -69t48 -54t77 -44.5t103.5 -41.5q135 -50 233.5 -91.5t162.5 -91.5t95 -115.5t31 -162.5z" />
    <glyph glyph-name="T" unicode="T" horiz-adv-x="1439" 
d="M1142 1002l-46 218h-205v-977l167 -38v-205h-677v205l167 38v977h-205l-45 -218h-251v456h1345v-456h-250z" />
    <glyph glyph-name="U" unicode="U" horiz-adv-x="1681" 
d="M1466 1211v-647q0 -152 -40.5 -264t-120.5 -185.5t-199 -109t-275 -35.5q-159 0 -275 34.5t-191.5 106.5t-112.5 182t-37 261v657l-167 36v211h674v-211l-163 -36v-644q0 -79 13.5 -144.5t48 -112t94.5 -72t153 -25.5q68 0 118 15.5t85 42t56.5 62t33.5 76t16.5 83.5
t4.5 85v634l-164 36v211h614v-211z" />
    <glyph glyph-name="V" unicode="V" horiz-adv-x="1675" 
d="M1653 1245l-145 -28l-473 -1217h-391l-456 1214l-160 31v213h674v-212l-163 -33l254 -743l48 -231h27l72 231l257 746l-152 30v212h608v-213z" />
    <glyph glyph-name="W" unicode="W" horiz-adv-x="2567" 
d="M2536 1245l-145 -28l-472 -1217h-392l-199 531l-42 156h-18l-31 -156l-206 -531h-392l-456 1214l-160 31v213h674v-212l-162 -33l253 -743l48 -229h27l72 228l206 579l-70 166l-160 31v213h674v-212l-163 -33l254 -743l47 -229h28l72 229l258 746l-153 30v212h608v-213z
" />
    <glyph glyph-name="X" unicode="X" horiz-adv-x="1569" 
d="M824 0v210l143 38l-222 289l-226 -290l143 -37v-210h-617v209l149 38l401 463l-391 502l-146 36v210h705v-211l-136 -38l196 -285l225 287l-147 36v211h605v-210l-146 -37l-389 -459l412 -504l150 -36v-212h-709z" />
    <glyph glyph-name="Y" unicode="Y" horiz-adv-x="1616" 
d="M1435 1216l-443 -651v-322l167 -38v-205h-677v205l167 38v296l-464 675l-151 31v213h674v-212l-147 -32l240 -369l31 -86h10l46 94l241 363l-154 30v212h608v-213z" />
    <glyph glyph-name="Z" unicode="Z" horiz-adv-x="1347" 
d="M1262 0h-1182v223l756 955l50 33v9h-448l-46 -218h-250v456h1127v-223l-734 -933l-64 -55v-9h495l46 218h250v-456z" />
    <glyph glyph-name="bracketleft" unicode="[" horiz-adv-x="737" 
d="M120 -468v2069h492v-266h-182v-1537h182v-266h-492z" />
    <glyph glyph-name="backslash" unicode="\" horiz-adv-x="848" 
d="M875 -114q-63 -20 -122 -41.5l-119 -41.5l-660 1771l243 83z" />
    <glyph glyph-name="bracketright" unicode="]" horiz-adv-x="775" 
d="M120 -468v266h182v1537h-182v266h492v-2069h-492z" />
    <glyph glyph-name="asciicircum" unicode="^" horiz-adv-x="1168" 
d="M777 756l-246 472l-233 -472l-216 112l331 590h249l347 -586z" />
    <glyph glyph-name="underscore" unicode="_" horiz-adv-x="986" 
d="M-3 -298v172h990v-172h-990z" />
    <glyph glyph-name="quoteleft" unicode="&#x2018;" horiz-adv-x="668" 
d="M528 1063l-164 -165q-59 9 -105 35q-20 11 -38.5 27.5t-33 39.5t-23.5 53t-9 68q0 74 22 139.5t61 121.5t91 102t112 82l84 -98q-24 -23 -51 -52t-50 -61t-38.5 -64.5t-17.5 -63.5l160 -137v-27z" />
    <glyph glyph-name="a" unicode="a" horiz-adv-x="1250" 
d="M136 770v209q12 6 58.5 20.5t114 29.5t147.5 26.5t158 11.5q56 0 111 -5.5t104 -20.5t91 -42.5t72.5 -72.5t47.5 -109.5t17 -152.5v-436l153 -39v-189h-443v138l18 109l-10 1q-33 -146 -126.5 -211.5t-241.5 -65.5q-82 0 -145.5 23.5t-107 65.5t-66 99t-22.5 125
q0 80 23.5 134.5t64.5 89.5t97 54t121 27.5t135.5 9.5t141.5 1h89v57q0 98 -51 141t-161 43q-94 0 -189.5 -23t-188.5 -55zM522 197q41 0 80 19t69 51t48.5 75t18.5 90v6h-89q-59 0 -106 -3t-80 -15t-51 -35t-18 -62q0 -26 8 -49t24 -40t40 -27t56 -10z" />
    <glyph glyph-name="b" unicode="b" horiz-adv-x="1315" 
d="M189 1348l-158 39v211h476v-657l-52 -163l12 -1q15 50 49 101.5t83 93.5t112 68.5t136 26.5q105 0 182 -38.5t127.5 -105t74.5 -154.5t24 -187q0 -121 -23.5 -213.5t-64.5 -160.5t-97 -113.5t-121.5 -73t-138 -39t-145.5 -11.5q-102 0 -188.5 10.5t-150.5 23.5
q-75 15 -137 35v1308zM507 215q17 -5 40 -9q19 -4 46 -6.5t59 -2.5q83 0 136.5 28t84 75.5t42.5 111t12 135.5q0 64 -8.5 115t-26.5 87t-45.5 55t-64.5 19q-63 0 -114 -41.5t-87 -108t-55 -150t-19 -166.5v-142z" />
    <glyph glyph-name="c" unicode="c" horiz-adv-x="1096" 
d="M993 24q-20 -8 -52 -17t-75.5 -17t-98 -13.5t-120.5 -5.5q-122 0 -213.5 24.5t-157.5 66t-108.5 96t-67 114.5t-34.5 122t-10 119q0 120 35 221.5t106 175.5t180 115.5t256 41.5q58 0 112.5 -4.5t100.5 -11t81 -13.5t53 -13v-457h-239l-27 269q-5 1 -14 1.5t-19 1
t-20 0.5h-16q-67 0 -118 -22.5t-85 -63t-51 -96t-17 -121.5q0 -59 15 -119.5t52.5 -109.5t101 -80t159.5 -31q41 0 78.5 4t70 9.5t59.5 12t46 12.5l14 -8z" />
    <glyph glyph-name="d" unicode="d" horiz-adv-x="1342" 
d="M843 0v166l15 95l-12 1q-15 -50 -48.5 -102t-83 -94t-113 -68.5t-138.5 -26.5q-104 0 -180 39t-126 105t-74.5 154t-24.5 186q0 121 23.5 214t64.5 161t97 113.5t122 73t138 39t146 11.5q35 0 64 -3t50 -7q24 -4 43 -9v300l-159 39v211h476v-1370l154 -39v-189h-434z
M810 816q-18 7 -40 12q-19 5 -45.5 9t-58.5 4q-83 0 -137 -27.5t-85 -75t-43 -111t-12 -135.5q0 -129 36 -203t110 -74q63 0 114 41.5t87 108t55 150t19 166.5v135z" />
    <glyph glyph-name="e" unicode="e" horiz-adv-x="1148" 
d="M412 388q26 -82 91 -132t180 -55q49 -1 87 4t69.5 13.5t57.5 17.5t52 15q14 1 29 0.5t25 -0.5l21 -212q-25 -10 -58 -21.5t-77 -22t-100.5 -17.5t-128.5 -7q-125 0 -218 25.5t-159 67.5t-109 97t-67.5 114.5t-34 119t-9.5 111.5q0 116 33 218t101.5 178.5t175 120.5
t253.5 44q124 0 221 -41t156 -125t74.5 -212t-23.5 -301h-642zM608 840q-58 0 -96 -21t-62 -54t-35.5 -72.5t-15.5 -75.5h389q7 67 -5 110t-37.5 68t-61.5 35t-76 10z" />
    <glyph glyph-name="f" unicode="f" horiz-adv-x="874" 
d="M209 813h-165v210l150 19q-7 39 -15.5 72.5l-16 65.5t-12.5 65t-5 71q0 66 22 119t71 89.5t127.5 56.5t192.5 20q87 0 145.5 -12t89.5 -19v-210l-11 -6q-11 3 -28.5 6.5t-39.5 7t-45 6t-44 2.5q-43 0 -72 -7.5t-47 -21t-25.5 -32t-7.5 -40.5q0 -37 4.5 -66.5t11 -56.5
t14 -54t13.5 -59h257v-226h-245v-585l192 -39v-189h-664v189l153 39v585z" />
    <glyph glyph-name="g" unicode="g" horiz-adv-x="1243" 
d="M558 309h-21.5t-21.5 1l-53 -53q5 -11 13.5 -23t28 -22t54.5 -17t94 -8q110 -1 203.5 -17t161.5 -52t106.5 -93.5t38.5 -140.5q0 -92 -45 -163t-124.5 -119t-187.5 -72.5t-235 -24.5q-128 0 -232.5 18.5t-178.5 56t-114.5 94t-40.5 133.5q0 105 70 168t191 91
q-51 21 -76.5 64t-25.5 104l133 122q-48 19 -91 47.5t-75 67.5t-50.5 90t-18.5 115q0 97 38.5 170.5t105 122.5t157 73.5t195.5 24.5q57 0 108 -7.5t108 -20.5h402v-226l-192 20l-4 -8q12 -6 21 -14t17 -17q16 -20 26 -49t10 -69q0 -71 -22.5 -126t-61 -96t-88.5 -68.5
t-105 -44.5t-111.5 -24.5t-106.5 -7.5zM834 -150q0 32 -17.5 53t-48.5 34t-73 18.5t-90 6.5q-9 0 -30 1t-45.5 3t-47 3.5t-33.5 3.5q-21 -9 -42 -20.5t-37.5 -27t-27 -35.5t-10.5 -46q0 -32 21.5 -53.5t56.5 -35t81 -19.5t95 -6q44 0 88.5 5.5t80 19t57.5 36.5t22 59z
M738 689q0 34 -12.5 64t-35.5 52.5t-56.5 35.5t-75.5 13t-75.5 -13t-57.5 -35.5t-36.5 -52t-12.5 -61.5q0 -36 11.5 -67.5t34 -54.5t57 -36t79.5 -13t79 13t56.5 36t33.5 53.5t11 65.5z" />
    <glyph glyph-name="h" unicode="h" horiz-adv-x="1422" 
d="M780 0v199l128 29v415q0 95 -31 137.5t-94 42.5q-53 0 -98.5 -38.5t-79 -103t-53 -149.5t-19.5 -178v-126l128 -39v-189h-600v189l153 39v1120l-157 39v211h476v-658l-51 -163h11q18 50 49 101.5t77.5 93.5t109 68.5t142.5 26.5q178 0 266.5 -104t88.5 -305l1 -430
l153 -39v-189h-600z" />
    <glyph glyph-name="i" unicode="i" horiz-adv-x="746" 
d="M60 0v189l154 39v561l-177 38v212h496v-811l152 -39v-189h-625zM148 1376l188 188h26l188 -188v-26l-188 -189h-26l-188 189v26z" />
    <glyph glyph-name="j" unicode="j" horiz-adv-x="670" 
d="M-113 -208q166 14 242 91t76 232v674l-178 38v212h496v-946q0 -154 -42.5 -255.5t-123 -161.5t-195 -83.5t-258.5 -21.5l-27 205zM138 1376l188 188h27l188 -188v-26l-188 -189h-27l-188 189v26z" />
    <glyph glyph-name="k" unicode="k" horiz-adv-x="1359" 
d="M978 0l-311 442l-134 -18v-196l128 -39v-189h-600v189l153 39v1120l-157 39v211h476v-993l294 213l-147 30v191h601v-200l-162 -45l-239 -185l301 -374l146 -45v-190h-349z" />
    <glyph glyph-name="l" unicode="l" horiz-adv-x="744" 
d="M59 0v189l154 39v1120l-158 39v211h476v-1370l153 -39v-189h-625z" />
    <glyph glyph-name="m" unicode="m" horiz-adv-x="2094" 
d="M1217 228l152 -39v-189h-600v199l129 29v415q0 95 -26 137.5t-89 42.5q-53 0 -98.5 -38.5t-79.5 -103t-53 -149.5t-19 -178v-126l128 -39v-189h-600v189l153 39v560l-166 38v212h476v-98l-41 -163h10q18 50 49 101.5t77.5 93.5t108.5 68.5t142 26.5q90 0 148 -23t93 -57
t51 -72.5t23 -68.5l-18 -69h10q18 50 49 101.5t77.5 93.5t109 68.5t142.5 26.5q180 0 262.5 -104t82.5 -305l1 -430l153 -39v-189h-600v199l128 29v415q0 95 -25.5 137.5t-88.5 42.5q-53 0 -98.5 -38.5t-79.5 -103t-53 -149.5t-20 -178v-126z" />
    <glyph glyph-name="n" unicode="n" horiz-adv-x="1421" 
d="M779 0v199l130 29v415q0 95 -31.5 137.5t-94.5 42.5q-53 0 -98.5 -38.5t-79.5 -103t-53 -149.5t-19 -178v-126l128 -39v-189h-600v189l153 39v560l-166 38v212h476v-98l-41 -163h10q18 50 49 101.5t77.5 93.5t108.5 68.5t142 26.5q181 0 268.5 -103.5t87.5 -305.5v-430
l154 -39v-189h-601z" />
    <glyph glyph-name="o" unicode="o" horiz-adv-x="1246" 
d="M1191 519q0 -128 -39.5 -229.5t-113.5 -172t-179 -108.5t-235 -38q-131 0 -236.5 38t-179.5 108.5t-113.5 172t-39.5 229.5t39.5 230t113.5 172.5t179.5 108t236.5 37.5q130 0 235 -37.5t179 -108t113.5 -172.5t39.5 -230zM864 520q0 158 -62.5 239.5t-177.5 81.5
q-117 0 -179.5 -81.5t-62.5 -240.5q0 -157 62.5 -239.5t179.5 -82.5q115 0 177.5 79.5t62.5 243.5z" />
    <glyph glyph-name="p" unicode="p" horiz-adv-x="1338" 
d="M521 1039v-99l-43 -163q3 0 6 -0.5t6 -0.5q17 54 50.5 106.5t82 93.5t111.5 66t138 25q103 0 179.5 -39t127 -105t75 -154t24.5 -187q0 -121 -23.5 -213.5t-65 -160.5t-98 -113.5t-122 -73t-138 -39t-145.5 -11.5q-35 0 -63 2.5t-48 6.5q-23 4 -40 10v-254l191 -38v-189
h-668v189l153 38v1053l-166 38v212h476zM530 222q17 -8 38 -13q18 -5 44 -8.5t58 -3.5q83 0 136.5 28t84 75.5t42.5 111t12 135.5q0 128 -35.5 202t-108.5 74q-64 0 -114 -41.5t-85 -108t-53.5 -150t-18.5 -166.5v-135z" />
    <glyph glyph-name="q" unicode="q" horiz-adv-x="1287" 
d="M1128 -264l154 -38v-189h-664v189l192 38v362l52 163l-12 1q-15 -50 -48.5 -102t-83 -94t-112.5 -68.5t-137 -26.5q-105 0 -181.5 39t-126.5 105t-74.5 154t-24.5 186q0 121 23.5 214t64.5 161t97.5 113.5t122 73t138 39t145.5 11.5q101 0 187.5 -11t150.5 -24
q75 -15 137 -34v-1262zM810 823q-18 5 -40 9q-19 3 -45.5 6t-58.5 3q-83 0 -136.5 -27.5t-84.5 -75t-43 -111t-12 -135.5q0 -129 35.5 -203t109.5 -74q63 0 114 41.5t87 107.5t55 149t19 166v144z" />
    <glyph glyph-name="r" unicode="r" horiz-adv-x="1064" 
d="M48 827v212h476v-98l-43 -163q3 0 6 -0.5t6 -0.5q16 48 45 99t74 93.5t107.5 70t146.5 27.5q25 0 49 -2.5t42 -5.5q21 -4 40 -8v-478h-223l-23 228q-56 -12 -97 -55.5t-68 -106t-40 -136.5t-13 -146v-129l191 -39v-189h-663v189l153 39v561z" />
    <glyph glyph-name="s" unicode="s" horiz-adv-x="1097" 
d="M1024 302q0 -84 -34.5 -146.5t-99.5 -103.5t-157.5 -61t-207.5 -20q-63 0 -127.5 7.5t-122 19t-104 24t-73.5 21.5v310h252l40 -146q9 -2 26 -4.5t38 -5t42 -4t38 -1.5q19 0 47 2.5t54 12t44 29t18 52.5q0 15 -7 26.5t-27.5 22.5t-58.5 22.5t-100 28.5
q-90 24 -166.5 47.5t-132.5 60t-87.5 92t-31.5 143.5q0 66 21 116.5t56.5 87.5t83 62.5t101 41t109.5 22t110 6.5q52 0 112 -6t117 -16t105 -22t78 -24v-352h-229l-28 188q-11 2 -30.5 4.5t-42 5t-45 4t-39.5 1.5q-78 0 -115 -24.5t-37 -65.5q0 -31 15.5 -51.5t45 -35.5
t70.5 -27l92 -26q85 -23 156.5 -48t123 -60t80 -85.5t28.5 -124.5z" />
    <glyph glyph-name="t" unicode="t" horiz-adv-x="888" 
d="M801 226l24 -203q-23 -8 -57 -17t-75 -16.5t-86.5 -13t-90.5 -5.5q-102 0 -171 19t-111 56t-60 91.5t-18 125.5v550h-166v224l172 53l49 185h263v-236h315v-226h-315v-449q0 -38 5.5 -67.5t21 -49.5t43 -31t70.5 -11q57 0 97.5 10l74.5 19z" />
    <glyph glyph-name="u" unicode="u" horiz-adv-x="1415" 
d="M909 0v160l26 102h-10q-14 -48 -45.5 -99t-79.5 -94t-113 -70.5t-147 -27.5q-91 0 -157.5 28t-109.5 81.5t-63.5 131.5t-20.5 177v400l-177 38v212h496v-644q0 -30 4.5 -62t17.5 -58t37.5 -43t65.5 -17q61 0 108 43.5t78.5 112t47.5 151.5t16 162v105l-177 38v212h496
v-811l152 -39v-189h-445z" />
    <glyph glyph-name="v" unicode="v" horiz-adv-x="1346" 
d="M1205 802l-358 -802h-363l-354 802l-114 25v212h585v-212l-124 -25l172 -437l22 -116h17l205 553l-134 25v212h560v-212z" />
    <glyph glyph-name="w" unicode="w" horiz-adv-x="2000" 
d="M1841 802l-333 -802h-357l-156 528l-181 -528h-357l-320 803l-112 24v212h585v-212l-124 -25l144 -446l18 -107h17l185 553l-134 25v212h591v-212l-119 -24l140 -454l20 -100h19l176 553l-132 25v212h544v-212z" />
    <glyph glyph-name="x" unicode="x" horiz-adv-x="1308" 
d="M1095 795l-260 -267l273 -301l150 -36v-191h-581v192l82 17l-116 134l-30 43h-5l-32 -43l-114 -134l75 -17v-192h-488v191l149 36l283 286l-269 282l-152 32v212h581v-211l-81 -16l107 -122l23 -38h5l25 38l107 122l-64 16v211h484v-212z" />
    <glyph glyph-name="y" unicode="y" horiz-adv-x="1386" 
d="M1232 802l-407 -937q-35 -80 -76 -140t-94 -100.5t-120.5 -61t-154.5 -20.5q-65 0 -114 8.5t-87 17.5v216q32 -6 77 -11t80 -5q61 0 102.5 13t69 33t43.5 44t25 47l37 94h-102l-355 802l-113 25v212h585v-212l-125 -25l174 -442l21 -111h17l205 553l-134 25v212h560v-211
z" />
    <glyph glyph-name="z" unicode="z" horiz-adv-x="1089" 
d="M1004 0h-933v252l481 491l72 64v6h-304l-34 -232h-219v458h930v-252l-480 -492l-82 -78v-6l34 14h282l33 195h220v-420z" />
    <glyph glyph-name="braceleft" unicode="{" horiz-adv-x="898" 
d="M664 -470q-110 0 -189 28t-129.5 89t-74.5 157t-24 231v224q0 67 -14 110.5t-39.5 70t-61.5 38t-81 13.5v243q45 2 81.5 11.5t62 33.5t39 66t13.5 110v146q0 132 23.5 227t74 155.5t129.5 89t190 28.5h50v-264q-47 0 -78 -8t-49.5 -33t-26 -71.5t-7.5 -123.5v-144
q0 -92 -14.5 -155t-39.5 -103t-59.5 -59.5t-74.5 -25.5v-4q40 -6 74.5 -27t59.5 -63t39.5 -106.5t14.5 -156.5v-221q0 -77 7.5 -124t26 -72.5t49.5 -34.5t78 -9v-266h-50z" />
    <glyph glyph-name="bar" unicode="|" horiz-adv-x="550" 
d="M145 -383v1954h258v-1954h-258z" />
    <glyph glyph-name="braceright" unicode="}" horiz-adv-x="901" 
d="M91 -470v266q47 0 78 9t49.5 34.5t26 72.5t7.5 124v221q0 92 14.5 156.5t40 106.5t59.5 63t74 27v4q-40 6 -74.5 25.5t-59.5 59.5t-39.5 103t-14.5 155v144q0 77 -7.5 123.5t-26 71.5t-49.5 33t-78 8v264h50q111 0 190 -28.5t129.5 -89t74 -155.5t23.5 -227v-146
q0 -68 13.5 -110t39 -66t62 -33.5t81.5 -11.5v-243q-45 -2 -81 -13.5t-61.5 -38t-39.5 -70t-14 -110.5v-224q0 -135 -24 -231t-74.5 -157t-129.5 -89t-189 -28h-50z" />
    <glyph glyph-name="asciitilde" unicode="~" horiz-adv-x="1251" 
d="M1130 546q-55 -69 -136 -107.5t-184 -38.5q-62 0 -117 16t-106 34.5t-100 34.5t-100 16q-62 0 -112 -23.5t-82 -55.5l-99 245q57 53 136 89.5t182 36.5q68 0 121 -16t99 -35t89 -35t91 -16q58 0 111 23.5t108 70.5l99 -239v0z" />
    <glyph glyph-name="exclamdown" unicode="&#xa1;" horiz-adv-x="707" 
d="M241 584h277l54 -951h-378zM579 908l-189 -189h-26l-196 196v24l189 189h30l192 -193v-27z" />
    <glyph glyph-name="cent" unicode="&#xa2;" horiz-adv-x="1019" 
d="M930 121q-31 -13 -91 -28t-150 -21v-128h-213v134q-88 13 -154.5 42t-114.5 69.5t-79 89t-49 101t-25.5 105.5t-7.5 102q0 102 27 190t80.5 155.5t134 112t188.5 60.5v138h213v-134q78 -5 140 -16t90 -18v-338h-254l-40 146q-4 0 -9.5 0.5t-10.5 0.5q-57 0 -100 -21
t-72 -57.5t-43.5 -86t-14.5 -107.5q0 -53 12 -108t44.5 -101t88 -75t142.5 -29q76 0 135.5 12.5t94.5 22.5l16 -7z" />
    <glyph glyph-name="sterling" unicode="&#xa3;" horiz-adv-x="1282" 
d="M108 0l-1 255q42 19 81 41t69 50.5t48 65.5t17 86q0 29 -6.5 58.5t-13.5 54.5h-190v254h137q-10 18 -19.5 41t-16.5 47.5t-11.5 49t-4.5 46.5q-1 103 30.5 179t92 125t147.5 73t197 24q41 0 94.5 -5.5t108 -14.5t105 -21t86.5 -26v-421h-249l-44 235q-5 2 -16 3.5l-23 3
t-24 2t-20 0.5q-29 0 -53.5 -12t-42 -33.5t-27 -52t-8.5 -66.5q0 -37 7.5 -83t22.5 -94h225l1 -254h-197q6 -27 11 -62t5 -64q1 -86 -46 -151t-130 -108l42 4h259l37 141h228v-371h-908z" />
    <glyph glyph-name="fraction" unicode="&#x2044;" horiz-adv-x="534" 
d="M-99 -114l-207 109l979 1556l207 -110z" />
    <glyph glyph-name="yen" unicode="&#xa5;" horiz-adv-x="1614" 
d="M1433 1216l-285 -418h155v-199h-290l-23 -34v-45h313v-200h-313v-77l168 -38v-205h-678v205l167 38v77h-311v200h311v19l-41 60h-265v199h128l-286 416l-151 31v213h675v-212l-146 -32l270 -416h17l278 418l-153 30v212h609v-213z" />
    <glyph glyph-name="florin" unicode="&#x192;" horiz-adv-x="1244" 
d="M1181 1258q-17 3 -42 6t-51 5.5t-48.5 4t-33.5 1.5q-73 0 -120 -23.5t-76 -68.5t-43.5 -112t-23.5 -154h262l-18 -214h-276l-52 -393q-15 -118 -40 -209.5t-58 -162.5t-73 -124.5t-84.5 -95.5t-93 -76t-97.5 -65l-147 135l95.5 122.5t76 121.5t58 146.5t41.5 197.5
l60 403h-245l21 214h255q14 149 47.5 258.5t94.5 181.5t155 107t229 35q32 0 66.5 -4t65.5 -9t56 -11t39 -10v-207z" />
    <glyph glyph-name="section" unicode="&#xa7;" horiz-adv-x="1134" 
d="M974 528q0 -47 -12 -91.5t-32 -83.5t-47 -71t-58 -55q31 -38 51.5 -91.5t20.5 -122.5q0 -62 -27 -126.5t-89.5 -117t-163 -85.5t-247.5 -33q-19 0 -42 1.5t-46.5 3.5t-46.5 5.5t-41 6.5l20 281q35 -11 76.5 -17t81.5 -6q46 0 78 8t52.5 21.5t29.5 31t9 37.5
q0 40 -32.5 76t-82 74l-106.5 82.5t-106.5 101.5t-82 130.5t-32.5 170.5t41 176t107 126q-35 42 -52 91t-17 116t27 133t86.5 117.5t155 83.5t233.5 32q44 0 84 -3.5t74 -12.5l-16 -275q-33 11 -70 15.5t-75 4.5q-79 0 -112.5 -22t-33.5 -67q0 -37 33 -73t82 -76
l106.5 -86.5t106.5 -106t82 -134.5t33 -170zM682 484q0 43 -18 77.5t-50.5 69.5t-78.5 74.5t-102 93.5q-18 -16 -29 -42t-11 -58q0 -33 10.5 -62t38.5 -63.5t76.5 -79t123.5 -106.5q18 16 29 41.5t11 54.5z" />
    <glyph glyph-name="currency" unicode="&#xa4;" horiz-adv-x="1486" 
d="M1309 256l-85 -80l-85 -79l-63 60l-64 61q-57 -32 -124.5 -51t-145.5 -19q-77 0 -145 19.5t-123 50.5l-64 -61l-63 -60l-170 159l135 118q-35 54 -57.5 122.5t-22.5 148.5q0 78 22 146.5t56 122.5l-65 60t-68 60l170 157l63 -61.5l62 -61.5q57 32 124.5 51t145.5 19
t146 -19t126 -51l125 123q42 -41 85 -79l85 -78l-136 -121q35 -52 58 -121.5t23 -146.5q0 -79 -22.5 -148t-57.5 -123zM991 645q0 118 -65.5 183.5t-183.5 65.5t-183 -64.5t-65 -185.5q0 -119 65 -184.5t183 -65.5t183.5 65.5t65.5 185.5z" />
    <glyph glyph-name="quotesingle" unicode="'" horiz-adv-x="491" 
d="M360 998h-247l-36 564h320z" />
    <glyph glyph-name="quotedblleft" unicode="&#x201c;" horiz-adv-x="1048" 
d="M958 1038l-164 -164q-59 9 -105 35q-20 11 -38.5 27.5t-33 39.5t-23.5 53t-9 68q0 74 22 139.5t61 121t91 102t112 82.5l84 -99q-24 -23 -51 -52t-50 -60.5t-38.5 -64t-17.5 -63.5l160 -137v-28zM464 1038l-164 -164q-59 9 -105 35q-20 11 -38.5 27.5t-33 39.5t-23.5 53
t-9 68q0 74 22 139.5t61 121t91 102t112 82.5l84 -99q-24 -23 -51 -52t-50 -60.5t-38.5 -64t-17.5 -63.5l159 -137z" />
    <glyph glyph-name="guillemotleft" unicode="&#xab;" horiz-adv-x="1247" 
d="M375 512l168 -311l-268 -112l-211 423l217 426l258 -109zM866 512l182 -294l-260 -116l-234 410l240 413l250 -114z" />
    <glyph glyph-name="guilsinglleft" unicode="&#x2039;" horiz-adv-x="730" 
d="M431 512l168 -311l-269 -112l-211 423l217 426l258 -109z" />
    <glyph glyph-name="guilsinglright" unicode="&#x203a;" horiz-adv-x="730" 
d="M156 829l259 109l217 -426l-211 -423l-269 112l168 311z" />
    <glyph glyph-name="endash" unicode="&#x2013;" horiz-adv-x="1024" 
d="M0 448v288h1024v-288h-1024z" />
    <glyph glyph-name="dagger" unicode="&#x2020;" horiz-adv-x="1018" 
d="M630 877l59 -253l-60 -623h-263l-61 623l59 253h-294v253h294l-59 394h384l-59 -394h293v-253h-293z" />
    <glyph glyph-name="daggerdbl" unicode="&#x2021;" horiz-adv-x="1009" 
d="M633 337l60 -337h-391l58 337h-290v251h290l-55 163l55 160h-290v253h290l-55 360h384l-56 -360h290v-253h-290l56 -160l-56 -163h287v-251h-287z" />
    <glyph glyph-name="periodcentered" unicode="&#xb7;" horiz-adv-x="695" 
d="M147 662l187 188h28l194 -194v-27l-189 -188h-26l-194 194v27z" />
    <glyph glyph-name="paragraph" unicode="&#xb6;" horiz-adv-x="1266" 
d="M890 -331v1613h-190v-1613h-253v1080q-81 2 -152 25t-124.5 67t-84 109.5t-30.5 151.5q0 93 24.5 156t69 103t107.5 61t139 30t163 10t181 1h404v-1794h-254z" />
    <glyph glyph-name="bullet" unicode="&#x2022;" horiz-adv-x="1050" 
d="M806 727q0 -65 -21.5 -115t-60.5 -84t-92 -51.5t-116 -17.5t-117 17.5t-93.5 51.5t-61.5 84t-22 115q0 66 22 116.5t61.5 84.5t93.5 51.5t117 17.5q64 0 117 -17.5t91.5 -51.5t60 -84.5t21.5 -116.5z" />
    <glyph glyph-name="quotesinglbase" unicode="&#x201a;" horiz-adv-x="615" 
d="M111 163l164 164q58 -9 104 -35q19 -11 38 -27.5t34 -39.5t24 -53t9 -68q0 -74 -22 -139.5t-61 -121t-91 -102t-112 -82.5l-84 99q24 23 51 52t50 61t38.5 64.5t17.5 63.5l-159 136z" />
    <glyph glyph-name="quotedblbase" unicode="&#x201e;" horiz-adv-x="1100" 
d="M105 163l164 164q58 -9 104 -35q19 -11 38 -27.5t34 -39.5t24 -53t9 -68q0 -74 -22 -139.5t-61 -121t-91 -102t-112 -82.5l-84 99q24 23 51 52t50 61t38.5 64.5t17.5 63.5l-159 136zM600 163l163 164q58 -9 104 -35q19 -11 38 -27.5t34 -39.5t24 -53t9 -68
q0 -74 -22 -139.5t-61 -121t-91 -102t-112 -82.5l-83 99q24 23 50.5 52t49.5 61t39 64.5t18 63.5l-160 136v28z" />
    <glyph glyph-name="quotedblright" unicode="&#x201d;" horiz-adv-x="1045" 
d="M88 1380l164 165q58 -9 104 -35q19 -11 38 -27.5t34 -39.5t24 -53t9 -68q0 -74 -22 -139.5t-61 -121.5t-91 -102t-112 -82l-84 99q24 23 51 52t50 60.5t38.5 64t17.5 63.5l-159 137zM583 1380l163 165q58 -9 104 -35q19 -11 38 -27.5t34 -39.5t24 -53t9 -68
q0 -74 -22 -139.5t-61 -121.5t-91 -102t-112 -82l-83 99q24 23 50.5 52t49.5 60.5t39 64t18 63.5l-160 137v27z" />
    <glyph glyph-name="guillemotright" unicode="&#xbb;" horiz-adv-x="1253" 
d="M648 829l258 109l217 -426l-211 -423l-269 112l168 311zM143 811l250 114l239 -413l-233 -410l-260 116l182 294z" />
    <glyph glyph-name="ellipsis" unicode="&#x2026;" horiz-adv-x="1836" 
d="M147 183l187 188h28l194 -194v-27l-189 -188h-26l-194 194v27zM717 183l187 188h28l194 -194v-27l-189 -188h-26l-194 194v27zM1287 183l187 188h28l194 -194v-27l-189 -188h-26l-194 194v27z" />
    <glyph glyph-name="perthousand" unicode="&#x2030;" horiz-adv-x="2544" 
d="M2514 421q0 -99 -22.5 -182.5t-70 -143.5t-121 -93.5t-175.5 -33.5q-92 0 -159.5 28t-114.5 79q-48 -51 -116.5 -79t-162.5 -28q-100 0 -172.5 33.5t-119.5 94t-69.5 144t-22.5 183.5q0 101 22.5 185t70 145t120 94.5t173.5 33.5q93 0 160.5 -28.5t115.5 -80.5
q48 52 116 80.5t161 28.5q101 0 174 -34t120.5 -95t70 -145.5t22.5 -185.5zM810 1029q0 -99 -22.5 -182.5t-69.5 -143.5t-120.5 -93.5t-175.5 -33.5q-100 0 -172.5 33.5t-119.5 94t-69.5 144t-22.5 183.5t22.5 184.5t70 145t120 94.5t173.5 34t174 -34t120 -95t69.5 -145.5
t22.5 -185.5zM610 -114l-208 109l979 1556l207 -110zM538 1031q0 55 -4 104.5t-16 86.5t-34.5 58.5t-59.5 21.5q-36 0 -58 -21.5t-34.5 -58.5t-16.5 -86.5t-4 -104.5q0 -56 4 -105t16 -85t34 -57t57 -21q37 0 60 21t35.5 57t16.5 85t4 105zM1688 423q0 55 -4 104.5t-16 86.5
t-34.5 58.5t-59.5 21.5q-36 0 -58 -21.5t-34.5 -58.5t-16.5 -86.5t-4 -104.5q0 -56 4 -104.5t16 -85t34 -57.5t57 -21q37 0 60 21t35.5 57.5t16.5 85t4 104.5zM2241 423q0 55 -4 104.5t-16 86.5t-34.5 58.5t-59.5 21.5q-36 0 -58 -21.5t-34 -58.5t-16.5 -86.5t-4.5 -104.5
q0 -56 4.5 -104.5t16.5 -85t34 -57.5t57 -21q37 0 59.5 21t35 57.5t16.5 85t4 104.5z" />
    <glyph glyph-name="questiondown" unicode="&#xbf;" horiz-adv-x="1034" 
d="M836 439q-21 -62 -60 -109t-85 -84.5t-94 -69t-87 -62.5t-64 -65t-25 -76q0 -38 13 -71t44 -56t83 -34t130 -5l32 284h238v-483q-17 -4 -52 -10.5t-83.5 -12.5t-109 -10.5t-127.5 -4.5q-134 0 -233 31t-164 86t-97.5 129t-32.5 160q0 72 22 124t57 91.5t79.5 70
l90.5 59.5t88.5 60.5t73.5 72.5q13 17 21 34.5t10.5 37.5t-0.5 44.5t-13 55.5h226zM819 915l-189 -190h-26l-196 197v24l189 189l30 -1l192 -192v-27z" />
    <glyph glyph-name="grave" unicode="`" horiz-adv-x="688" 
d="M169 1851l142 177l371 -298l-105 -127z" />
    <glyph glyph-name="acute" unicode="&#xb4;" horiz-adv-x="688" 
d="M282 1608l-106 126l372 298l142 -177z" />
    <glyph glyph-name="circumflex" unicode="&#x2c6;" horiz-adv-x="714" 
d="M515 1925l197 -238l-75 -75l-207 131l-207 -139l-78 76l191 245h179z" />
    <glyph glyph-name="tilde" unicode="&#x2dc;" horiz-adv-x="778" 
d="M838 1691q-17 -15 -43 -31t-56 -29t-62 -21.5t-61 -8.5q-63 0 -102.5 15t-72.5 35l-33.5 19.5t-34.5 17t-39 12t-47 4.5q-30 0 -58.5 -14t-60.5 -37l-81 168q48 42 103.5 67.5t117.5 25.5q33 0 59.5 -5.5t49 -14t42 -19.5l38.5 -21q30 -17 61.5 -30t75.5 -13
q42 0 70.5 15t56.5 36l77 -171v0z" />
    <glyph glyph-name="macron" unicode="&#xaf;" horiz-adv-x="833" 
d="M74 1607v223h470v-223h-470z" />
    <glyph glyph-name="breve" unicode="&#x2d8;" horiz-adv-x="680" 
d="M656 1880q0 -63 -24 -113.5t-65.5 -86t-97 -54.5t-118.5 -19t-117.5 19.5t-95 55.5t-63.5 86.5t-23 111.5l153 25q2 -28 12 -52.5t29 -43t45.5 -29t61.5 -10.5q34 0 63.5 9.5t50.5 27.5t32.5 43t11.5 55l145 -25v0z" />
    <glyph glyph-name="dotaccent" unicode="&#x2d9;" horiz-adv-x="1060" 
d="M108 1825l193 193h27l193 -193v-27l-193 -193h-27l-193 193v27z" />
    <glyph glyph-name="dieresis" unicode="&#xa8;" horiz-adv-x="772" 
d="M87 1825l193 193h27l193 -193v-27l-193 -193h-27l-193 193v27zM609 1825l193 193h27l193 -193v-27l-193 -193h-27l-193 193v27z" />
    <glyph glyph-name="ring" unicode="&#x2da;" horiz-adv-x="681" 
d="M624 1856q0 -55 -21 -101t-57.5 -79.5t-85 -52.5t-103.5 -19t-103.5 18.5t-84.5 52t-57 80t-21 101.5t21 101.5t57 80t84.5 52.5t103.5 19t103.5 -19t85 -52.5t57.5 -80t21 -101.5zM459 1856q0 21 -8 40t-22 33.5t-32.5 22.5t-39.5 8t-39.5 -8t-32.5 -22.5t-22 -33.5
t-8 -40t8 -40t22 -33t32.5 -22.5t39.5 -8.5t39.5 8.5t32.5 22.5t22 33t8 40z" />
    <glyph glyph-name="cedilla" unicode="&#xb8;" horiz-adv-x="698" 
d="M577 -104q20 -38 32 -70t12 -73q0 -44 -18 -84.5t-51.5 -77t-81 -67.5t-105.5 -55l-88 101q25 22 44 43.5t32 45t20 50.5t7 61q0 38 -10.5 69t-27.5 57h235v0z" />
    <glyph glyph-name="hungarumlaut" unicode="&#x2dd;" horiz-adv-x="688" 
d="M189 1607l-105 127l371 297l142 -177zM752 1607l-106 127l372 297l142 -177z" />
    <glyph glyph-name="ogonek" unicode="&#x2db;" horiz-adv-x="762" 
d="M512 -463q-49 -16 -100 -23t-112 -7q-49 0 -90 15t-71 43t-46.5 68.5t-16.5 92.5q0 40 17 81t41.5 77.5t51 66.5l44.5 49h208l-45 -46t-38.5 -47t-26.5 -50.5t-10 -54.5q0 -51 28.5 -74t70.5 -23q30 0 52.5 2.5t42.5 7.5v-178v0z" />
    <glyph glyph-name="caron" unicode="&#x2c7;" horiz-adv-x="714" 
d="M336 1615l-191 245l78 76l207 -140l207 132l75 -75l-197 -238h-179z" />
    <glyph glyph-name="emdash" unicode="&#x2014;" horiz-adv-x="2048" 
d="M0 448v288h2048v-288h-2048z" />
    <glyph glyph-name="AE" unicode="&#xc6;" horiz-adv-x="2181" 
d="M2058 0h-1134v205l166 38v213h-381l-116 -220l139 -37v-199h-650v201l157 35l723 1222h1093v-442h-266l-44 204h-312v-352h401v-239h-401v-391h337l52 209h274zM1090 1178l-255 -483h255v483z" />
    <glyph glyph-name="ordfeminine" unicode="&#xaa;" horiz-adv-x="722" 
d="M55 1287v146q4 3 33 12t71.5 19t93.5 17.5t100 7.5q30 0 62 -2t63 -9.5t58 -23t48 -42.5t33 -67.5t12 -97.5v-229l81 -25v-136h-290v47l3 50h-6q-11 -21 -28 -41.5t-42.5 -36.5t-59.5 -26t-78 -10q-49 0 -85.5 15.5t-60.5 41t-36 59.5t-12 72q0 51 15 87t40.5 60t60 37.5
t74 20.5t82 9t84.5 2h26v10q0 39 -30.5 57t-81.5 18q-50 0 -105 -14t-116 -34zM306 1001q21 0 38 8.5t28.5 23t18 32.5t6.5 38v9h-31q-53 0 -83 -8.5t-30 -44.5q0 -26 13.5 -42t39.5 -16zM17 728h692v-149h-692v149z" />
    <glyph glyph-name="Oslash" unicode="&#xd8;" horiz-adv-x="1627" 
d="M1541 725q0 -169 -43.5 -308t-133.5 -238.5t-227.5 -154t-326.5 -54.5q-100 0 -185 16.5t-157 46.5l-99 -151l-161 108l96 146q-112 100 -165 250.5t-53 341.5q0 170 43.5 310t133 240t226 155t323.5 55q101 0 186.5 -16t157.5 -47l91 137l160 -106l-88 -134
q113 -101 167.5 -253t54.5 -344zM1189 727q0 91 -13 170.5t-42 144.5l-515 -780q78 -49 191 -49q105 0 177 38.5t117 107t65 163t20 205.5zM438 728q0 -91 12.5 -169t39.5 -142l515 779q-78 49 -193 49q-103 0 -174 -39t-115.5 -108t-64.5 -164t-20 -206z" />
    <glyph glyph-name="OE" unicode="&#x152;" horiz-adv-x="2105" 
d="M1982 0h-921q-56 -14 -118.5 -22t-132.5 -8q-186 0 -322.5 54.5t-225.5 154t-132.5 239.5t-43.5 310t43.5 310t133 240t226 155t323.5 55q140 0 251 -30h917v-442h-266l-44 204h-312v-352h401v-239h-401v-391h337l52 209h274zM810 213q65 0 115.5 15t89.5 41v919
q-38 27 -88 42t-115 15q-103 0 -174 -39t-115.5 -108t-64 -164t-19.5 -206q0 -112 19.5 -206.5t64 -163t115 -107t172.5 -38.5z" />
    <glyph glyph-name="ordmasculine" unicode="&#xba;" horiz-adv-x="826" 
d="M51 728h692v-149h-692v149zM720 1160q0 -71 -20.5 -131t-61.5 -103t-102.5 -67t-143.5 -24q-80 0 -140 24t-101 67t-61.5 103t-20.5 131q0 72 20.5 132.5t62 104t102.5 68t142 24.5q80 0 141 -24.5t101.5 -68t61 -104t20.5 -132.5zM490 1160q0 36 -5.5 68t-16.5 55.5
t-29 37.5t-43 14q-26 0 -44 -14t-29.5 -37.5t-17 -55.5t-5.5 -68t5 -67t16.5 -54t29 -36.5t41.5 -13.5q27 0 45.5 13.5t30 36.5t17 54t5.5 67z" />
    <glyph glyph-name="ae" unicode="&#xe6;" horiz-adv-x="1806" 
d="M1700 242l22 -203q-25 -10 -65 -21.5t-91.5 -22t-114.5 -17.5t-135 -7q-99 0 -177.5 16t-140 44t-106.5 65.5t-76 81.5q-68 -113 -174.5 -160t-252.5 -47q-82 0 -145.5 23.5t-107 65.5t-66 99t-22.5 125q0 80 23.5 137t65 95.5t97 62t120.5 35.5t136 15.5t142 3.5h88v24
q0 98 -51 141t-161 43q-93 0 -189 -23t-188 -55l-12 7v209q12 6 58.5 20.5t113.5 29.5t147 26.5t158 11.5q48 0 95 -3.5t90.5 -14t82 -29t70.5 -48.5q66 45 152 70t196 25q129 0 217.5 -39.5t143.5 -104.5t79.5 -148t26.5 -170q1 -41 -3 -80.5t-12 -75.5h-682q0 -4 -0.5 -5
t-0.5 -5q0 -34 19 -76t58 -79t99.5 -62t143.5 -25q52 0 98.5 5t86.5 13t73 17.5t57 18.5zM514 197q50 0 88.5 18.5t64.5 51t39.5 75.5t13.5 91v13h-89q-59 0 -106 -4t-80 -17.5t-51 -38t-18 -63.5q0 -26 8 -49t25 -40t43 -27t62 -10zM1441 641q0 43 -10 79.5t-32 63
t-57.5 41.5t-86.5 15q-97 0 -146 -54t-62 -145h394z" />
    <glyph glyph-name="oslash" unicode="&#xf8;" horiz-adv-x="1246" 
d="M1191 519q0 -128 -39.5 -229.5t-113.5 -172t-179 -108.5t-235 -38q-131 0 -237 38l-72 -106l-139 88l66 97q-91 72 -139 180t-48 251q0 128 39.5 230t113.5 172.5t179.5 108t236.5 37.5q71 0 133.5 -11.5t118.5 -32.5l78 115l138 -87l-75 -111q84 -72 129 -177.5
t45 -243.5zM382 519q0 -108 30 -180l323 477q-46 25 -111 25q-117 0 -179.5 -81.5t-62.5 -240.5zM864 520q0 93 -23 160l-315 -465q43 -18 98 -18q115 0 177.5 79.5t62.5 243.5z" />
    <glyph glyph-name="oe" unicode="&#x153;" horiz-adv-x="1990" 
d="M1191 519q0 -128 -39.5 -229.5t-113.5 -172t-179 -108.5t-235 -38q-131 0 -236.5 38t-179.5 108.5t-113.5 172t-39.5 229.5t39.5 230t113.5 172.5t179.5 108t236.5 37.5q130 0 235 -37.5t179 -108t113.5 -172.5t39.5 -230zM864 520q0 158 -62.5 239.5t-177.5 81.5
q-117 0 -179.5 -81.5t-62.5 -240.5q0 -157 62.5 -239.5t179.5 -82.5q115 0 177.5 79.5t62.5 243.5zM1216 388q26 -82 91 -132t180 -55q49 -1 87 4t69.5 13.5t57.5 17.5t52 15q14 1 29 0.5t25 -0.5l21 -212q-25 -10 -58 -21.5t-77 -22t-100.5 -17.5t-128.5 -7
q-125 0 -218 25.5t-159 67.5t-109 97t-67.5 114.5t-34 119t-9.5 111.5q0 116 33 218t101.5 178.5t175 120.5t253.5 44q124 0 221 -41t156 -125t74.5 -212t-23.5 -301h-642zM1412 840q-58 0 -96 -21t-62 -54t-35.5 -72.5t-15.5 -75.5h389q7 67 -5 110t-37.5 68t-61.5 35
t-76 10z" />
    <glyph glyph-name="eth" unicode="&#xf0;" horiz-adv-x="1252" 
d="M1173 618q0 -147 -30.5 -265.5t-97.5 -202.5t-174.5 -129t-261.5 -45q-131 0 -233.5 35.5t-173.5 101t-108.5 158.5t-37.5 209q0 103 34 197t95 165.5t145 114t184 42.5q83 0 142 -12t102.5 -38t75.5 -67t61 -100h7q-3 27 -8.5 67.5t-16 88.5t-27 100.5t-41 102t-58 93.5
t-78.5 76l-266 -123l-76 131l173 86q-20 9 -48.5 14t-59.5 6.5t-62 0t-57 -5.5v188q53 10 118.5 11.5t132.5 -6.5t130.5 -24.5t113.5 -41.5l229 110l92 -151l-166 -73q55 -49 100 -137t77.5 -198t50.5 -234t18 -245zM822 343q20 64 18.5 135t-27 130.5t-76 98.5t-128.5 39
q-61 0 -102.5 -23.5t-67 -62t-37 -88.5t-11.5 -103q0 -57 13 -105t40 -82.5t69 -53.5t100 -19q85 0 137 35.5t72 98.5z" />
    <glyph glyph-name="thorn" unicode="&#xfe;" horiz-adv-x="1337" 
d="M492 1598v-725l-14 -95q2 0 5 -0.5t6 -0.5q15 50 48.5 101.5t82.5 93.5t112.5 68.5t139.5 26.5q103 0 179 -39t126.5 -105t75 -154t24.5 -187q0 -121 -23.5 -213.5t-64.5 -160.5t-97.5 -113.5t-122 -73t-138 -39t-145.5 -11.5q-36 0 -65 2.5t-49 6.5q-24 4 -42 10v-254
l191 -38v-189h-664v189l154 38v1614l-174 38v210h455zM525 222q18 -8 40 -13q19 -5 45.5 -8.5t58.5 -3.5q83 0 136.5 28t84.5 75.5t43 111t12 135.5q0 64 -9 115t-27 87t-45 55t-64 19q-63 0 -114 -41.5t-87 -108t-55 -150t-19 -166.5v-135z" />
    <glyph glyph-name="brokenbar" unicode="&#xa6;" horiz-adv-x="540" 
d="M139 -324v799h261v-799h-261zM139 711v802h261v-802h-261z" />
    <glyph glyph-name="minus" unicode="&#x2212;" horiz-adv-x="1320" 
d="M72 483v260h1176v-260h-1176z" />
    <glyph glyph-name="multiply" unicode="&#xd7;" horiz-adv-x="1338" 
d="M1045 85l-375 351l-378 -351l-192 188l388 337l-388 341l192 184l378 -347l375 348l194 -185l-385 -341l385 -337z" />
    <glyph glyph-name="degree" unicode="&#xb0;" horiz-adv-x="879" 
d="M764 1222q0 -62 -25 -116t-69 -94.5t-103 -63.5t-128 -23q-68 0 -127.5 23t-103.5 63.5t-69.5 94.5t-25.5 116q0 61 25.5 115t69.5 94t103.5 63t127.5 23q69 0 128 -23t103 -63t69 -94t25 -115zM567 1222q0 52 -33 87t-95 35q-60 0 -93.5 -35t-33.5 -87q0 -54 33.5 -88.5
t93.5 -34.5q62 0 95 34.5t33 88.5z" />
    <glyph glyph-name="registered" unicode="&#xae;" horiz-adv-x="1161" 
d="M1071 1089q0 -104 -40 -194t-108.5 -156.5t-160.5 -104.5t-195 -38q-105 0 -196.5 38t-160 104.5t-108 156.5t-39.5 194t39.5 194t108 156.5t160.5 104.5t196 38t196 -38t160.5 -104.5t108 -156.5t39.5 -194zM880 1089q0 65 -24.5 122.5t-67 100t-99.5 67.5t-122 25
t-122.5 -24.5t-100 -67.5t-67.5 -100t-25 -122t25 -122.5t67.5 -100.5t100 -68t122.5 -25t122 25t99.5 67.5t67 100t24.5 122.5zM628 867l-46 156h-37v-57l33 -9v-90h-203v88l41 11v250l-41 10v88h204q42 0 76 -7.5t58.5 -24t38 -41.5t13.5 -61q0 -38 -17 -68.5t-44 -47.5
l36 -98l32 -9v-90h-144zM630 1174q0 18 -12.5 29.5t-40.5 11.5h-32v-85h27q58 0 58 44z" />
    <glyph glyph-name="copyright" unicode="&#xa9;" horiz-adv-x="1647" 
d="M806 1467q102 0 196.5 -26.5t176.5 -74t149.5 -115t115.5 -149.5t74.5 -176.5t26.5 -196.5t-26.5 -196.5t-74.5 -176.5t-115.5 -149.5t-149.5 -115.5t-176.5 -74.5t-196.5 -26.5q-103 0 -197.5 26.5t-176.5 74.5t-149.5 115t-115.5 149t-74 176.5t-26 196.5t26.5 196.5
t74.5 176.5t115.5 149.5t149.5 115.5t176.5 74.5t196.5 26.5zM806 1219q-101 0 -190.5 -38.5t-156 -105t-105 -155.5t-38.5 -191q0 -101 38.5 -190.5t105 -156.5t156 -106t190.5 -39t190.5 38.5t156 105.5t105.5 156t39 191t-39 191t-105.5 156t-156 105.5t-190.5 38.5z
M1019 390q-59 -14 -106 -21t-98 -7q-95 0 -164 29.5t-114 81t-66.5 121t-21.5 148.5q0 77 22 143t69.5 114.5t122 76t178.5 27.5q42 0 83.5 -5.5t86.5 -16.5v-269h-161l-14 81q-6 0 -13.5 0.5t-15.5 0.5q-51 0 -78 -38.5t-27 -115.5q0 -91 38 -129.5t123 -38.5q62 0 142 27z
" />
    <glyph glyph-name="trademark" unicode="&#x2122;" horiz-adv-x="1602" 
d="M469 1251l-19 89h-34v-347l67 -16v-103h-305v103l67 16v347h-34l-19 -89h-138v207h553v-207h-138zM1481 1337l-1 -344l66 -16v-103h-299v103l62 16v288h-8l-27 -87l-101 -265h-154l-101 272l-26 85h-9v-293l62 -16v-103h-266v103l67 16v344l-67 17v104h313l98 -273
l15 -79h9l18 79l98 273h318v-104z" />
    <glyph glyph-name="plusminus" unicode="&#xb1;" horiz-adv-x="1290" 
d="M785 652v-342h-271v342h-452v259h452v340h271v-340h445v-259h-445zM57 0v252h1176v-252h-1176z" />
    <glyph glyph-name="mu" unicode="&#xb5;" horiz-adv-x="1414" 
d="M906 0v160l25 102h-10q-14 -48 -45 -99t-79 -94t-113 -70.5t-147 -27.5q-63 0 -111 13l-8 -10l86 -74v-391h-318v1280l-178 38v212h496v-644q0 -30 4.5 -62t18 -58t38 -43t64.5 -17q61 0 108 43.5t79 112t48 151.5t16 162v105l-177 38v212h496v-811l152 -39v-189h-445z
" />
    <glyph glyph-name="logicalnot" unicode="&#xac;" horiz-adv-x="1330" 
d="M970 199v424h-884v230h1146v-654h-262z" />
    <glyph glyph-name="divide" unicode="&#xf7;" horiz-adv-x="1326" 
d="M827 978q0 -39 -15 -74t-41.5 -61t-61.5 -41t-74 -15q-40 0 -75 15t-61 41t-41 61t-15 74q0 40 15 75t41 61t61 41t75 15q39 0 74 -15t61.5 -41t41.5 -61t15 -75zM100 432v273h1069v-273h-1069zM827 158q0 -40 -15 -75t-41.5 -61t-61.5 -41t-74 -15q-40 0 -75 15t-61 41
t-41 61t-15 75q0 39 15 74t41 61t61 41t75 15q39 0 74 -15t61.5 -41t41.5 -61t15 -74z" />
    <glyph glyph-name="Euro" unicode="&#x20ac;" horiz-adv-x="1350" 
d="M1199 261l29 -215q-29 -12 -75.5 -24.5t-104.5 -23.5t-125 -18t-139 -7q-132 0 -240 28t-191 79.5t-142 124.5t-93 163h-140l46 187h52q-2 18 -3 36.5t-1 37.5h-94l46 188h69q13 57 37.5 118.5t62.5 119.5t91 110t125 90.5t164 61.5t208 23q72 0 140.5 -6t126.5 -15
t101 -19t64 -19v-418h-277l-44 223q-17 5 -42 8.5t-53 3.5q-79 0 -137.5 -22.5t-100.5 -60.5t-68.5 -89t-40.5 -109h432l-80 -188h-369q1 -19 2.5 -37t4.5 -37h442l-80 -187h-293q22 -33 53 -61.5t71.5 -48.5t91 -31.5t112.5 -11.5q49 0 92.5 4t85.5 11t84 17.5l89 22.5z
" />
    <glyph glyph-name=".dot" horiz-adv-x="0" 
d="M659 529q0 34 12.5 64t34.5 52.5t52 36t64 13.5q33 0 63.5 -13.5t53 -36t36 -52.5t13.5 -64t-13.5 -63.5t-36 -51.5t-53 -34.5t-63.5 -12.5q-34 0 -64 12.5t-52 34.5t-34.5 51.5t-12.5 63.5zM22 825q0 24 14 46.5t38 40t56 27.5t67 10q36 0 68 -10t56 -27.5t38 -40
t14 -46.5q0 -25 -14 -46.5t-38 -38t-56 -26t-68 -9.5q-35 0 -67 9.5t-56 26t-38 38t-14 46.5zM26 516q0 25 13.5 46.5t36.5 38t54.5 26t66.5 9.5q36 0 67 -9.5t54.5 -26t37 -38t13.5 -46.5q0 -24 -13.5 -46t-37 -38t-54.5 -25.5t-67 -9.5q-35 0 -66.5 9.5t-54.5 25.5
t-36.5 38t-13.5 46zM51 188q0 30 11 56t30 45t45.5 30t56.5 11t56 -11t45 -30t30 -45t11 -56t-11 -56t-30 -45t-45 -30t-56 -11t-56.5 11t-45.5 30t-30 45t-11 56zM651 844q0 24 13.5 45t36.5 37t53.5 25t65.5 9t66 -9t54 -25t36 -37t13 -45t-13 -45t-36 -36t-54 -24t-66 -9
t-65.5 9t-53.5 24t-36.5 36t-13.5 45z" />
    <glyph glyph-name="commaaccent" unicode="&#xf6c3;" horiz-adv-x="695" 
d="M410 506q0 -85 -46.5 -155.5t-149.5 -138.5l-69 80q35 34 57 66.5t24 77.5h-74v253h258v-183z" />
    <glyph glyph-name="dotlessi" unicode="&#x131;" horiz-adv-x="746" 
d="M60 0v189l154 39v561l-177 38v212h496v-811l152 -39v-189h-625z" />
    <glyph glyph-name="dotlessj" unicode="&#x237;" horiz-adv-x="671" 
d="M-123 -208q166 14 242 91t76 232v674l-178 38v212h496v-946q0 -154 -42.5 -255.5t-123 -161.5t-195 -83.5t-258.5 -21.5l-27 205z" />
    <glyph glyph-name="ampersand.001" horiz-adv-x="2165" 
d="M1213 0h-1132v205l165 38v969l-165 34v212h1130v-442h-241l-44 204h-337v-352h401v-239h-401v-391h363l72 209h248zM2068 226l24 -203q-23 -8 -57 -17t-75 -16.5t-86.5 -13t-90.5 -5.5q-102 0 -171 19t-111 56t-60 91.5t-18 125.5v550h-166v224l172 53l49 185h263v-236
h315v-226h-315v-449q0 -38 5.5 -67.5t21 -49.5t43 -31t70.5 -11q57 0 97.5 10l74.5 19z" />
    <glyph glyph-name="afii10017" unicode="&#x410;" horiz-adv-x="1712" 
d="M1110 424h-560l-63 -188l153 -37v-199h-608v201l145 35l481 1222h412l452 -1215l159 -38v-205h-674v205l164 38zM631 662h400l-185 554h-28z" />
    <glyph glyph-name="afii10019" unicode="&#x412;" horiz-adv-x="1369" 
d="M1346 422q0 -104 -42.5 -182.5t-120 -132t-186.5 -80.5t-241 -27h-672v205l167 38v968l-167 36v211h722q54 0 110.5 -7t109 -23t98.5 -42.5t80.5 -66.5t54.5 -94.5t20 -125.5q0 -80 -29.5 -137.5t-75 -96t-101.5 -59.5t-110 -28v-28q37 -1 80 -8.5t85.5 -23t81.5 -40.5
t69.5 -61t48.5 -84.5t18 -110.5zM994 431q0 49 -14 87.5t-47 64t-87.5 39t-134.5 13.5h-126v-412h114q156 0 225.5 52t69.5 156zM927 1058q0 88 -48.5 135t-143.5 47h-150v-379h149q43 0 78.5 14.5t61 41t39.5 62.5t14 79z" />
    <glyph glyph-name="afii10022" unicode="&#x415;" horiz-adv-x="1350" 
d="M1218 0h-1132v205l165 38v969l-165 34v212h1130v-442h-241l-44 204h-337v-352h401v-239h-401v-391h363l72 209h248z" />
    <glyph glyph-name="afii10028" unicode="&#x41a;" horiz-adv-x="1652" 
d="M1195 0l-385 615h-225v-372l169 -38v-205h-670v205l167 38v968l-167 36v211h655v-212l-154 -35v-361h223l258 361l-117 36v211h638v-216l-148 -32l-370 -473l359 -472l178 -34v-231h-411z" />
    <glyph glyph-name="afii10030" unicode="&#x41c;" horiz-adv-x="2226" 
d="M1974 1211l-1 -968l167 -38v-205h-674v205l165 38v687l17 187h-20l-70 -187l-324 -805h-312l-317 805l-75 197h-20l18 -198v-686l165 -38v-205h-609v205l167 38v968l-167 36v211h665l311 -812l26 -174h17l51 174l314 812h675v-211z" />
    <glyph glyph-name="afii10031" unicode="&#x41d;" horiz-adv-x="1754" 
d="M1503 1211v-968l167 -38v-205h-674v205l164 38v386h-566v-386l164 -38v-205h-674v205l167 38v968l-167 36v211h674v-211l-164 -36v-343h566v343l-164 36v211h674v-211z" />
    <glyph glyph-name="afii10032" unicode="&#x41e;" horiz-adv-x="1627" 
d="M1541 725q0 -169 -43.5 -308t-133.5 -238.5t-227.5 -154t-326.5 -54.5q-186 0 -322.5 54.5t-225.5 154t-132.5 239.5t-43.5 310t43.5 310t133 240t226 155t323.5 55t324.5 -55t227.5 -155t133.5 -241t43.5 -312zM1189 727q0 112 -20 207t-64.5 164t-116.5 108t-176 39
q-103 0 -174 -39t-115.5 -108t-64.5 -164t-20 -206q0 -112 20 -206.5t64 -163t115 -107t173 -38.5q105 0 177 38.5t117 107t65 163t20 205.5z" />
    <glyph glyph-name="afii10034" unicode="&#x420;" horiz-adv-x="1384" 
d="M1336 1015q0 -103 -34 -191t-101 -153t-168 -102t-234 -37h-90v238h36q53 0 97 14t76 43t49.5 73.5t17.5 106.5q0 54 -13 94.5t-43 66.5t-78 39t-118 13h-139v-977l189 -38v-205h-699v205l167 38v968l-167 36v211h695q151 4 256.5 -27t172.5 -89.5t97.5 -141.5t30.5 -185
z" />
    <glyph glyph-name="afii10035" unicode="&#x421;" horiz-adv-x="1494" 
d="M1324 264l29 -217q-30 -12 -79.5 -25.5t-112.5 -25t-137 -19t-153 -7.5q-194 0 -341 54t-246 152t-149 234.5t-50 301.5q0 65 13.5 147.5t47 169t90.5 169t144 147t208 104t283 39.5q77 0 150.5 -6t135.5 -15.5t109 -20.5t72 -20v-594h-250l-48 398q-11 3 -29.5 5.5
t-40 5t-44 3.5t-42.5 1q-123 0 -206.5 -44.5t-135.5 -117.5t-74.5 -166t-22.5 -190q0 -61 10 -123t32.5 -119t59 -106.5t90 -86.5t125 -58t163.5 -21q51 0 98.5 4t94.5 12t95.5 19t99.5 25z" />
    <glyph glyph-name="afii10036" unicode="&#x422;" horiz-adv-x="1439" 
d="M1142 1002l-46 218h-205v-977l167 -38v-205h-677v205l167 38v977h-205l-45 -218h-251v456h1345v-456h-250z" />
    <glyph glyph-name="afii10039" unicode="&#x425;" horiz-adv-x="1570" 
d="M826 0v210l143 38l-222 289l-226 -290l143 -37v-210h-617v209l149 38l401 463l-391 502l-146 36v210h705v-211l-136 -38l196 -285l225 287l-147 36v211h605v-210l-146 -37l-389 -459l412 -504l150 -36v-212h-709z" />
    <glyph glyph-name="afii10054" unicode="&#x405;" horiz-adv-x="1316" 
d="M1229 430q0 -111 -43 -196.5t-120.5 -144t-185.5 -89t-238 -30.5q-74 0 -149 4t-145.5 12.5t-132.5 20.5t-110 27v423h250l48 -224q12 -3 40 -6.5t63.5 -6.5t74.5 -5t73 -2q38 0 77.5 7.5t72 27t53 52t20.5 83.5q0 43 -17 74.5t-51.5 57.5t-87 48.5t-124.5 47.5
q-128 44 -220 86.5t-151 92.5t-87.5 112.5t-28.5 146.5q0 91 26 159t71 117t104.5 80.5t126.5 50t137.5 25.5t137.5 7q66 0 132 -5t126.5 -14t113.5 -20.5t93 -24.5v-387h-258l-40 192q-9 2 -27.5 5t-42 5.5t-49.5 4t-50 1.5q-69 0 -116.5 -9t-77 -27t-42.5 -45.5t-13 -63.5
q0 -39 16.5 -69t48 -54t77 -44.5t103.5 -41.5q135 -50 233.5 -91.5t162.5 -91.5t95 -115.5t31 -162.5z" />
    <glyph glyph-name="afii10055" unicode="&#x406;" horiz-adv-x="844" 
d="M594 1211v-968l167 -38v-205h-677v205l167 38v968l-167 36v211h677v-211z" />
    <glyph glyph-name="afii10057" unicode="&#x408;" horiz-adv-x="794" 
d="M-89 -163q81 6 140.5 31t99 64t58.5 88.5t19 103.5l-1 1087l-187 36v211h697v-211l-167 -36v-1088q0 -135 -42.5 -233.5t-124 -162t-200.5 -92.5t-272 -26l-30 213z" />
    <glyph glyph-name="afii10065" unicode="&#x430;" horiz-adv-x="1250" 
d="M136 770v209q12 6 58.5 20.5t114 29.5t147.5 26.5t158 11.5q56 0 111 -5.5t104 -20.5t91 -42.5t72.5 -72.5t47.5 -109.5t17 -152.5v-436l153 -39v-189h-443v138l18 109l-10 1q-33 -146 -126.5 -211.5t-241.5 -65.5q-82 0 -145.5 23.5t-107 65.5t-66 99t-22.5 125
q0 80 23.5 134.5t64.5 89.5t97 54t121 27.5t135.5 9.5t141.5 1h89v57q0 98 -51 141t-161 43q-94 0 -189.5 -23t-188.5 -55zM522 197q41 0 80 19t69 51t48.5 75t18.5 90v6h-89q-59 0 -106 -3t-80 -15t-51 -35t-18 -62q0 -26 8 -49t24 -40t40 -27t56 -10z" />
    <glyph glyph-name="afii10067" unicode="&#x432;" horiz-adv-x="1050" 
d="M1013 307q0 -70 -30.5 -127t-87.5 -97t-138 -61.5t-182 -21.5h-540v194l131 32v582l-133 32v199h583q38 0 79 -4t80.5 -15t75 -30.5t62 -49t42.5 -71t16 -97.5q0 -63 -26 -104t-63 -65.5t-79 -34.5t-73 -11v-25q41 0 90.5 -11t92 -37t71.5 -69t29 -108zM686 318
q0 57 -35 80.5t-113 23.5h-54v-214h49q72 0 112.5 26.5t40.5 83.5zM643 740q0 51 -32 73t-82 22h-45v-193h42q32 0 54 8.5t36 22t20.5 31.5t6.5 36z" />
    <glyph glyph-name="afii10070" unicode="&#x435;" horiz-adv-x="1148" 
d="M412 388q26 -82 91 -132t180 -55q49 -1 87 4t69.5 13.5t57.5 17.5t52 15q14 1 29 0.5t25 -0.5l21 -212q-25 -10 -58 -21.5t-77 -22t-100.5 -17.5t-128.5 -7q-125 0 -218 25.5t-159 67.5t-109 97t-67.5 114.5t-34 119t-9.5 111.5q0 116 33 218t101.5 178.5t175 120.5
t253.5 44q124 0 221 -41t156 -125t74.5 -212t-23.5 -301h-642zM608 840q-58 0 -96 -21t-62 -54t-35.5 -72.5t-15.5 -75.5h389q7 67 -5 110t-37.5 68t-61.5 35t-76 10z" />
    <glyph glyph-name="afii10018" unicode="&#x411;" horiz-adv-x="1380" 
d="M594 865h192q121 0 223.5 -29.5t177.5 -86t117.5 -139t42.5 -188.5q0 -107 -42.5 -186t-120 -131.5t-186.5 -78.5t-242 -26h-672v205l167 38v968l-167 36v211h1133v-442h-267l-43 204h-313v-355zM994 431q0 49 -14 86.5t-47 63t-87.5 38t-134.5 12.5h-117v-408h105
q156 0 225.5 52t69.5 156z" />
    <glyph glyph-name="afii10020" unicode="&#x413;" horiz-adv-x="1249" 
d="M594 1220v-977l167 -38v-205h-678v205l167 38v968l-167 36v211h1133v-442h-266l-44 204h-312z" />
    <glyph glyph-name="afii10021" unicode="&#x414;" horiz-adv-x="1722" 
d="M1465 1211v-973h218v-502h-242l-43 264h-1077l-44 -264h-241v502h184q28 13 47.5 32t34 42t24.5 51t20 61q21 71 36 168.5t25 204t15 214.5t5 200l-187 36v211h1392v-211zM638 422q-11 -54 -28.5 -100t-43.5 -84h555v982h-405q-3 -100 -8 -202.5t-14 -204t-22.5 -200
t-33.5 -191.5z" />
    <glyph glyph-name="afii10023" unicode="&#x401;" horiz-adv-x="1350" 
d="M1218 0h-1132v205l165 38v969l-165 34v212h1130v-442h-241l-44 204h-337v-352h401v-239h-401v-391h363l72 209h248zM173 1764l193 193h27l193 -193v-27l-193 -193h-27l-193 193v27zM695 1764l193 193h27l193 -193v-27l-193 -193h-27l-193 193v27z" />
    <glyph glyph-name="afii10024" unicode="&#x416;" horiz-adv-x="2256" 
d="M34 0v231l178 34l325 470l-336 475l-148 32v216h663v-217l-142 -30l248 -363h129v363l-116 36v211h575v-212l-115 -35v-363h130l248 363l-142 30v217h663v-216l-149 -32l-335 -475l325 -470l178 -34v-231h-413l-370 605h-135v-362l118 -38v-205h-578v205l116 38v362h-135
l-370 -605h-412z" />
    <glyph glyph-name="afii10025" unicode="&#x417;" horiz-adv-x="1227" 
d="M1156 408q0 -89 -36.5 -168.5t-113.5 -139.5t-195.5 -95t-283.5 -35q-83 0 -153 7.5t-128 18t-103 23l-78 21.5l19 247q28 -9 74 -22t100 -24.5t110.5 -19.5t106.5 -8q162 0 245.5 50.5t83.5 162.5q0 47 -17.5 78t-47.5 50t-71.5 28t-90 12.5t-101.5 3t-107 -0.5v239
q90 0 160 11t118 36.5t73 66t25 100.5q0 75 -39.5 120t-131.5 45q-21 0 -50 -1.5t-58 -3.5t-54.5 -6t-39.5 -8l-50 -225h-250v420q12 5 43 12.5t74 15t95.5 14.5t107.5 12.5t109.5 9t102.5 3.5q103 0 193 -22t157 -68t105.5 -115.5t38.5 -165.5q0 -55 -14 -101t-36.5 -83
t-52.5 -65t-61.5 -47.5t-63.5 -30.5t-59 -13v-29q28 0 64.5 -5t75 -17.5t75 -34.5t65.5 -56.5t47 -83t18 -113.5z" />
    <glyph glyph-name="afii10026" unicode="&#x418;" horiz-adv-x="1754" 
d="M1504 1211v-968l168 -38v-205h-675v205l164 38v506l13 154h-5l-574 -604v-56l164 -38v-205h-675v205l167 38v968l-167 36v211h675v-211l-164 -36v-555l-13 -121h4l575 603v73l-164 36v211h675v-211z" />
    <glyph glyph-name="afii10027" unicode="&#x419;" horiz-adv-x="1754" 
d="M1504 1211v-968l168 -38v-205h-675v205l164 38v506l13 154h-5l-574 -604v-56l164 -38v-205h-675v205l167 38v968l-167 36v211h675v-211l-164 -36v-555l-13 -121h4l575 603v73l-164 36v211h675v-211zM1183 1831q0 -63 -24 -113.5t-65.5 -86t-97 -54.5t-118.5 -19
t-117.5 19.5t-95 55.5t-63.5 86.5t-23 111.5l153 25q2 -28 12 -52.5t29 -43t45.5 -29t61.5 -10.5q34 0 63.5 9.5t50.5 27.5t32.5 43t11.5 55l145 -25v0z" />
    <glyph glyph-name="afii10029" unicode="&#x41b;" horiz-adv-x="1738" 
d="M1659 1247l-167 -36v-968l167 -38v-205h-678v205l167 38v977h-387q-2 -100 -7 -202.5t-14 -204t-22.5 -200t-34.5 -191.5q-19 -87 -44 -154.5t-59.5 -118t-81.5 -85t-109 -55.5t-141.5 -29.5t-180.5 -6.5l-30 213l10 14q80 6 130.5 23.5t82 45.5t49 67t32.5 88
q21 71 36 168.5t24.5 204t14.5 214.5t6 200l-187 36v211h1424v-211z" />
    <glyph glyph-name="afii10033" unicode="&#x41f;" horiz-adv-x="1754" 
d="M1504 1211v-968l167 -38v-205h-675v205l164 38v977h-566v-977l164 -38v-205h-675v205l167 38v968l-167 36v211h1588v-211z" />
    <glyph glyph-name="afii10037" unicode="&#x423;" horiz-adv-x="1614" 
d="M1433 1216l-476 -815q-78 -132 -152.5 -211.5t-154.5 -121.5t-169 -55t-195 -13v224q68 5 119 18t89 32.5t65.5 45t48.5 56.5l39 56l-464 782l-151 31v213h675v-212l-146 -32l279 -535l286 537l-153 30v212h609v-213z" />
    <glyph glyph-name="afii10038" unicode="&#x424;" horiz-adv-x="1717" 
d="M1018 218l167 -39v-179h-661v179l167 39v82q-19 -4 -67 -12t-111 -8q-99 0 -183.5 24t-146 77.5t-96.5 138.5t-35 207t34.5 209t94.5 142t141.5 81t176.5 26q32 0 61.5 -2.5t54.5 -6t44.5 -7l31.5 -5.5v73l-167 35v186h661v-186l-167 -35v-73q10 2 31 5.5t45 7t47.5 6
t40.5 2.5q106 0 193.5 -25.5t150 -80t97 -141.5t34.5 -211t-34.5 -209.5t-97.5 -138.5t-152 -76.5t-197 -23.5q-17 0 -41.5 2.5t-48 6.5l-42.5 7t-26 5v-82zM691 1008q-11 2 -23.5 3.5t-31.5 1.5q-110 0 -171 -74.5t-61 -209.5q0 -136 62.5 -206t170.5 -71q17 0 32 1t22 3
v552zM1071 1013q-9 0 -26.5 -1.5t-26.5 -3.5v-552q8 -2 26.5 -3.5t26.5 -1.5q109 1 171.5 71.5t62.5 206.5t-63 210t-171 74z" />
    <glyph glyph-name="afii10040" unicode="&#x426;" horiz-adv-x="1764" 
d="M1504 238h225v-502h-241l-44 264h-1361v212l167 35v964l-167 36v211h678v-211l-167 -36v-973h566v973l-167 36v211h678v-211l-167 -36v-973z" />
    <glyph glyph-name="afii10041" unicode="&#x427;" horiz-adv-x="1572" 
d="M703 1458v-211l-167 -36v-300q0 -52 15.5 -89.5t42.5 -61.5t64.5 -35.5t82.5 -11.5q44 0 88.5 14t83 37.5t67.5 53t41 60.5v333l-167 36v211h678v-211l-167 -36v-968l167 -38v-205h-678v205l167 38v303l12 91h-9q-11 -17 -45 -46t-86 -57.5t-120.5 -49.5t-148.5 -21
q-94 0 -173 28t-136 83.5t-89.5 137.5t-32.5 191v307l-167 37v211h677z" />
    <glyph glyph-name="afii10042" unicode="&#x428;" horiz-adv-x="2479" 
d="M1412 1211v-973h475v977l-163 39v204h674v-204l-167 -39v-968l167 -35v-212h-2315v212l167 35v968l-167 39v204h675v-204l-164 -39v-977h475v973l-167 36v211h678v-211z" />
    <glyph glyph-name="afii10043" unicode="&#x429;" horiz-adv-x="2482" 
d="M1412 1211v-973h475v977l-163 39v204h674v-204l-167 -39v-977h225v-502h-241l-44 264h-2088v212l167 35v968l-167 39v204h675v-204l-164 -39v-977h475v973l-167 36v211h678v-211z" />
    <glyph glyph-name="afii10044" unicode="&#x42a;" horiz-adv-x="1610" 
d="M1001 865q120 0 222.5 -29.5t177.5 -86t117.5 -139t42.5 -188.5q0 -107 -42.5 -186t-120 -131.5t-186 -78.5t-241.5 -26h-672v205l167 38l-1 977h-130l-44 -204h-266v442h951v-212l-167 -34v-347h192zM1209 431q0 49 -14.5 86.5t-47.5 63t-87 38t-134 12.5h-118v-408h106
q156 0 225.5 52t69.5 156z" />
    <glyph glyph-name="afii10045" unicode="&#x42b;" horiz-adv-x="2212" 
d="M993 431q0 49 -14 86.5t-47 63t-87 38t-134 12.5h-118v-408h105q156 0 225.5 52t69.5 156zM786 865q120 0 222.5 -29.5t177.5 -86t117.5 -139t42.5 -188.5q0 -107 -42.5 -186t-120 -131.5t-186.5 -78.5t-241 -26h-673v205l167 38v968l-167 36v211h678v-212l-167 -34v-347
h192zM1972 1211v-968l167 -38v-205h-678v205l167 38v968l-167 36v211h678v-211z" />
    <glyph glyph-name="afii10046" unicode="&#x42c;" horiz-adv-x="1384" 
d="M993 431q0 49 -14 86.5t-47 63t-87 38t-134 12.5h-118v-408h105q156 0 225.5 52t69.5 156zM786 865q120 0 222.5 -29.5t177.5 -86t117.5 -139t42.5 -188.5q0 -107 -42.5 -186t-120 -131.5t-186.5 -78.5t-241 -26h-673v205l167 38v968l-167 36v211h678v-212l-167 -34v-347
h192z" />
    <glyph glyph-name="afii10047" unicode="&#x42d;" horiz-adv-x="1494" 
d="M528 852l513 -26q-11 83 -41 159t-83 133.5t-131.5 92t-185.5 34.5q-39 0 -73 -4.5t-56 -10.5l-49 -228h-275v424q25 9 72 20t109 20.5t135.5 15.5t150.5 6q161 0 282 -39.5t208.5 -104t144.5 -147t90.5 -169t47 -169t13.5 -147.5q0 -165 -50.5 -301.5t-149.5 -234.5
t-246 -152t-340 -54q-80 0 -154 7.5t-137 19t-112 25t-79 25.5l29 217l11 9q51 -14 99 -25t95.5 -19t95 -12t98.5 -4q115 0 199 32t141 86t90 124.5t47 146.5l-509 -25v275z" />
    <glyph glyph-name="afii10048" unicode="&#x42e;" horiz-adv-x="2288" 
d="M2234 725q0 -169 -43.5 -308t-133 -238.5t-227.5 -154t-327 -54.5q-172 0 -301.5 47t-219 133t-138.5 207.5t-61 271.5h-189v-386l167 -38v-205h-678v205l167 38v968l-167 36v211h678v-211l-167 -36v-343h193q16 141 68 255.5t141 195.5t216 125t294 44q187 0 324.5 -55
t227 -155t133 -241t43.5 -312zM1882 727q0 112 -20 207t-64.5 164t-116 108t-175.5 39q-103 0 -174 -39t-115.5 -108t-64.5 -164t-20 -206q0 -112 20 -206.5t64 -163t114.5 -107t172.5 -38.5q105 0 177 38.5t117 107t65 163t20 205.5z" />
    <glyph glyph-name="afii10049" unicode="&#x42f;" horiz-adv-x="1531" 
d="M195 1047q0 94 32.5 170.5t98.5 129.5t166 82t236 29h719v-211l-167 -36v-968l167 -38v-205h-684v205l173 38v343h-158h-16t-16 1l-249 -587h-414v206l136 33l228 424q-52 26 -98 62.5t-80 83.5t-54 106.5t-20 131.5zM546 1028q0 -47 14 -85t42.5 -65.5t73 -42.5
t106.5 -15h154v400h-138q-69 0 -117 -12.5t-78 -37t-43.5 -60.5t-13.5 -82z" />
    <glyph glyph-name="afii10050" unicode="&#x490;" horiz-adv-x="1249" 
d="M950 1662h266v-442h-622v-977l167 -38v-205h-678v205l167 38v968l-167 36v211h823z" />
    <glyph glyph-name="afii10051" unicode="&#x402;" horiz-adv-x="1744" 
d="M1083 1028l-46 192h-179v-353l-12 -91h9q11 16 44.5 45.5t85 58t120 49.5t148.5 21q94 0 173 -29t137 -85.5t90.5 -140t32.5 -192.5v-32q0 -140 -26.5 -236t-88.5 -155t-163.5 -84.5t-250.5 -23.5l-27 210l9 16q55 8 93.5 21.5t63.5 42t36 77.5t11 128v2q0 60 -16 103.5
t-43.5 72t-65.5 42.5t-82 14t-88.5 -14.5t-82.5 -37.5t-66.5 -53t-40.5 -60v-293l167 -39v-204h-678v204l167 39v977h-179l-46 -192h-275v430h1344v-430h-275z" />
    <glyph glyph-name="afii10052" unicode="&#x403;" horiz-adv-x="1249" 
d="M594 1220v-977l167 -38v-205h-678v205l167 38v968l-167 36v211h1133v-442h-266l-44 204h-312zM714 1565l-106 126l372 298l142 -177z" />
    <glyph glyph-name="afii10053" unicode="&#x404;" horiz-adv-x="1494" 
d="M1004 577l-510 25q14 -76 47 -146.5t90.5 -124.5t141.5 -86t199 -32q51 0 98.5 4t94.5 12t95.5 19t99.5 25l11 -9l29 -217q-30 -12 -79.5 -25.5t-112.5 -25t-137 -19t-153 -7.5q-194 0 -341 54t-246 152t-149 234.5t-50 301.5q0 65 13.5 147.5t47 169t90.5 169t144 147
t208 104t283 39.5q77 0 150.5 -6t135.5 -15.5t109 -20.5t72 -20v-424h-276l-48 228q-22 6 -56 10.5t-74 4.5q-107 0 -185.5 -34.5t-131.5 -92t-83.5 -133.5t-40.5 -159l514 26v-275z" />
    <glyph glyph-name="afii10056" unicode="&#x407;" horiz-adv-x="868" 
d="M608 1211v-968l167 -38v-205h-677v205l167 38v968l-167 36v211h677v-211zM-35 1789l193 193h27l193 -193v-27l-193 -193h-27l-193 193v27zM487 1789l193 193h27l193 -193v-27l-193 -193h-27l-193 193v27z" />
    <glyph glyph-name="afii10058" unicode="&#x409;" horiz-adv-x="2288" 
d="M1652 865q121 0 223.5 -29.5t177.5 -86t117.5 -139t42.5 -188.5q0 -107 -42.5 -186t-120 -131.5t-186.5 -78.5t-241 -26h-673v205l167 38v977h-356q-2 -100 -7 -202.5t-14 -204t-22.5 -200t-34.5 -191.5q-19 -87 -44 -154.5t-59.5 -118t-81.5 -85t-109 -55.5
t-141.5 -29.5t-180.5 -6.5l-30 213l10 14q80 6 130.5 23.5t82 45.5t49 67t32.5 88q21 71 36 168.5t24.5 204t14.5 214.5t6 200l-187 36v211h1393v-212l-167 -34v-347h191zM1860 431q0 49 -14 86.5t-47 63t-87.5 38t-134.5 12.5h-117v-408h105q156 0 225.5 52t69.5 156z" />
    <glyph glyph-name="afii10059" unicode="&#x40a;" horiz-adv-x="2328" 
d="M1504 1211v-346h192q121 0 223.5 -29.5t177.5 -86t117 -139t42 -188.5q0 -107 -42.5 -186t-120 -131.5t-186 -78.5t-241.5 -26h-670v205l164 38v386h-566v-386l164 -38v-205h-675v205l167 38v968l-167 36v211h675v-211l-164 -36v-343h566v343l-164 36v211h675v-211z
M1904 431q0 49 -14.5 86.5t-47.5 63t-87 38t-134 12.5h-117v-408h105q156 0 225.5 52t69.5 156z" />
    <glyph glyph-name="afii10060" unicode="&#x40b;" horiz-adv-x="1956" 
d="M1093 1053l-46 167h-179v-414q13 18 48 46.5t86.5 56t118.5 47.5t145 20q94 0 173 -28t136 -83.5t89 -137.5t33 -191v-288l166 -36v-212h-677v212l167 35v281q0 52 -15.5 89.5t-42.5 61.5t-64.5 35.5t-81.5 11.5t-89 -14.5t-83.5 -37.5t-67.5 -53t-41 -60v-318l167 -38
v-205h-677v205l167 38v977h-179l-46 -167h-276v405h1345v-405h-276z" />
    <glyph glyph-name="afii10061" unicode="&#x40c;" horiz-adv-x="1287" 
d="M595 1220v-977l167 -38v-205h-678v205l167 38v968l-167 36v211h1133v-442h-266l-44 204h-312zM634 1585l-106 126l372 298l142 -177z" />
    <glyph glyph-name="afii10062" unicode="&#x40e;" horiz-adv-x="1614" 
d="M1433 1216l-476 -815q-78 -132 -152.5 -211.5t-154.5 -121.5t-169 -55t-195 -13v224q68 5 119 18t89 32.5t65.5 45t48.5 56.5l39 56l-464 782l-151 31v213h675v-212l-146 -32l279 -535l286 537l-153 30v212h609v-213zM1143 1868q0 -63 -24 -113.5t-65.5 -86t-97 -54.5
t-118.5 -19t-117.5 19.5t-95 55.5t-63.5 86.5t-23 111.5l153 25q2 -28 12 -52.5t29 -43t45.5 -29t61.5 -10.5q34 0 63.5 9.5t50.5 27.5t32.5 43t11.5 55l145 -25v0z" />
    <glyph glyph-name="afii10066" unicode="&#x431;" horiz-adv-x="1252" 
d="M56 618q0 164 32 300t87 244t128.5 188t156.5 133t171 78.5t172 24.5q62 0 94 14.5t52 44.5l149 -33q-11 -38 -30.5 -76.5t-55.5 -69.5t-92.5 -50.5t-140.5 -19.5q-68 0 -131.5 -42.5t-118 -113.5t-97 -163.5t-67.5 -193.5l2 -1q18 17 49 35t71 33t85 24.5t92 9.5
q118 0 212.5 -40t160.5 -109t101 -160.5t35 -194.5q0 -116 -37.5 -209t-108.5 -158.5t-173.5 -101t-233.5 -35.5q-154 0 -261.5 45t-174.5 129t-97.5 202.5t-30.5 265.5zM386 510q0 -65 12.5 -120t39.5 -95.5t71 -63t107 -22.5q58 0 100 19t69.5 53.5t40.5 82.5t13 105
q0 53 -11 101t-37 84.5t-68.5 58t-104.5 21.5q-78 0 -132.5 -24.5t-86.5 -55.5q-8 -28 -10.5 -67.5t-2.5 -76.5z" />
    <glyph glyph-name="afii10068" unicode="&#x433;" horiz-adv-x="1008" 
d="M957 662h-208l-33 152h-184v-586l152 -39v-189h-625v189l154 39v561l-177 38v212h921v-377z" />
    <glyph glyph-name="afii10069" unicode="&#x434;" horiz-adv-x="1334" 
d="M1102 789v-565h189v-412h-214l-34 188h-777l-34 -188h-216v412h76q54 4 85.5 13t49 21.5t25 29t12.5 35.5q13 48 23 105t17 117.5t10.5 122.5t4.5 120l-177 39v212h1137v-212zM531 325q-5 -29 -13.5 -54t-21.5 -47h286v591h-199q-5 -125 -17 -250t-35 -240z" />
    <glyph glyph-name="afii10071" unicode="&#x451;" horiz-adv-x="1148" 
d="M412 388q26 -82 91 -132t180 -55q49 -1 87 4t69.5 13.5t57.5 17.5t52 15q14 1 29 0.5t25 -0.5l21 -212q-25 -10 -58 -21.5t-77 -22t-100.5 -17.5t-128.5 -7q-125 0 -218 25.5t-159 67.5t-109 97t-67.5 114.5t-34 119t-9.5 111.5q0 116 33 218t101.5 178.5t175 120.5
t253.5 44q124 0 221 -41t156 -125t74.5 -212t-23.5 -301h-642zM608 840q-58 0 -96 -21t-62 -54t-35.5 -72.5t-15.5 -75.5h389q7 67 -5 110t-37.5 68t-61.5 35t-76 10zM152 1364l193 193h27l193 -193v-27l-193 -193h-27l-193 193v27zM674 1364l193 193h27l193 -193v-27
l-193 -193h-27l-193 193v27z" />
    <glyph glyph-name="afii10072" unicode="&#x436;" horiz-adv-x="1736" 
d="M1023 626h94l110 184l95 229h358v-202l-111 -28l-190 -288l177 -277l140 -26v-218h-362l-212 399l-99 1v-172l90 -39v-189h-501v189l92 39v172l-98 -1l-212 -399h-362v218l139 26l178 277l-191 288l-111 28v202h375l79 -229l110 -184h93v185l-126 39v189h568v-189
l-123 -39v-185z" />
    <glyph glyph-name="afii10073" unicode="&#x437;" horiz-adv-x="960" 
d="M916 308q0 -57 -24.5 -117t-82.5 -109t-152.5 -80t-234.5 -31q-69 0 -126.5 6t-104 15t-82 19l-62.5 18l15 235q22 -8 59 -18t79 -19.5t85.5 -16t79.5 -6.5q59 0 100 8t66.5 24t37 38.5t11.5 51.5q0 38 -26 57.5t-66.5 28t-90 9t-97.5 0.5v195q76 0 122.5 11t72 29
t34.5 40t9 45q0 17 -6.5 33.5t-19 29.5t-30.5 21t-42 8q-30 0 -63.5 -2.5t-53.5 -6.5l-41 -128h-231v314q10 5 34 11t57 12.5t73 12.5t82 10.5t84 7.5t80 3q82 0 156 -18.5t130.5 -55t90 -90.5t33.5 -125q0 -58 -20 -101t-50 -72.5t-65.5 -45t-67.5 -17.5v-26q34 0 77 -8
t81 -30.5t64 -63t26 -106.5z" />
    <glyph glyph-name="afii10074" unicode="&#x438;" horiz-adv-x="1373" 
d="M515 442l-13 -103h4l347 700h471v-189l-152 -39v-583l152 -39v-189h-592v189l120 39v337l12 135h-3l-346 -700h-473v189l154 39v583l-154 39v189h591v-189l-118 -39v-369z" />
    <glyph glyph-name="afii10075" unicode="&#x439;" horiz-adv-x="1373" 
d="M515 442l-13 -103h4l347 700h471v-189l-152 -39v-583l152 -39v-189h-592v189l120 39v337l12 135h-3l-346 -700h-473v189l154 39v583l-154 39v189h591v-189l-118 -39v-369zM1033 1405q0 -63 -24 -113.5t-65.5 -86t-97 -54.5t-118.5 -19t-117.5 19.5t-95 55.5t-63.5 86.5
t-23 111.5l153 25q2 -28 12 -52.5t29 -43t45.5 -29t61.5 -10.5q34 0 63.5 9.5t50.5 27.5t32.5 43t11.5 55l145 -25v0z" />
    <glyph glyph-name="afii10076" unicode="&#x43a;" horiz-adv-x="1244" 
d="M486 626h155l110 183l101 230h353v-203l-112 -27l-190 -288l176 -277l141 -26v-218h-363l-211 399l-160 1v-172l152 -39v-189h-625v189l154 39v583l-154 39v189h625v-189l-152 -39v-185z" />
    <glyph glyph-name="afii10077" unicode="&#x43b;" horiz-adv-x="1327" 
d="M37 190q58 2 94.5 13.5t57.5 29.5t31.5 40.5t17.5 46.5q14 48 24 105.5t17 119t10.5 123.5t4.5 121l-175 38v212h1167v-212l-178 -38v-561l153 -39v-189h-608v189l138 39v586h-181q-5 -125 -16.5 -250t-36.5 -242q-22 -106 -57 -175t-93 -108.5t-143.5 -52t-208.5 -6.5
l-28 197z" />
    <glyph glyph-name="afii10078" unicode="&#x43c;" horiz-adv-x="1750" 
d="M1545 789l-1 -562l152 -38v-189h-593v189l121 39v475h-16l-50 -162l-175 -440h-287l-176 453l-49 159h-15v-485l120 -39v-189h-530v189l154 39v561l-178 37v213h637l169 -458l29 -147h15l35 147l168 458h647v-212z" />
    <glyph glyph-name="afii10079" unicode="&#x43d;" horiz-adv-x="1320" 
d="M509 645h305v166l-97 39v189h568v-189l-153 -39v-583l153 -39v-189h-568v189l97 39v192h-305v-192l94 -39v-189h-566v189l154 39v583l-154 39v189h566v-189l-94 -39v-166z" />
    <glyph glyph-name="afii10080" unicode="&#x43e;" horiz-adv-x="1246" 
d="M1191 519q0 -128 -39.5 -229.5t-113.5 -172t-179 -108.5t-235 -38q-131 0 -236.5 38t-179.5 108.5t-113.5 172t-39.5 229.5t39.5 230t113.5 172.5t179.5 108t236.5 37.5q130 0 235 -37.5t179 -108t113.5 -172.5t39.5 -230zM864 520q0 158 -62.5 239.5t-177.5 81.5
q-117 0 -179.5 -81.5t-62.5 -240.5q0 -157 62.5 -239.5t179.5 -82.5q115 0 177.5 79.5t62.5 243.5z" />
    <glyph glyph-name="afii10081" unicode="&#x43f;" horiz-adv-x="1361" 
d="M1150 788v-560l153 -39v-189h-567v189l96 39v586h-305v-586l95 -39v-189h-567v189l154 39v561l-178 38v212h1297v-212z" />
    <glyph glyph-name="afii10082" unicode="&#x440;" horiz-adv-x="1338" 
d="M521 1039v-99l-43 -163q3 0 6 -0.5t6 -0.5q17 54 50.5 106.5t82 93.5t111.5 66t138 25q103 0 179.5 -39t127 -105t75 -154t24.5 -187q0 -121 -23.5 -213.5t-65 -160.5t-98 -113.5t-122 -73t-138 -39t-145.5 -11.5q-35 0 -63 2.5t-48 6.5q-23 4 -40 10v-254l191 -38v-189
h-668v189l153 38v1053l-166 38v212h476zM530 222q17 -8 38 -13q18 -5 44 -8.5t58 -3.5q83 0 136.5 28t84 75.5t42.5 111t12 135.5q0 128 -35.5 202t-108.5 74q-64 0 -114 -41.5t-85 -108t-53.5 -150t-18.5 -166.5v-135z" />
    <glyph glyph-name="afii10083" unicode="&#x441;" horiz-adv-x="1096" 
d="M993 24q-20 -8 -52 -17t-75.5 -17t-98 -13.5t-120.5 -5.5q-122 0 -213.5 24.5t-157.5 66t-108.5 96t-67 114.5t-34.5 122t-10 119q0 120 35 221.5t106 175.5t180 115.5t256 41.5q58 0 112.5 -4.5t100.5 -11t81 -13.5t53 -13v-457h-239l-27 269q-5 1 -14 1.5t-19 1
t-20 0.5h-16q-67 0 -118 -22.5t-85 -63t-51 -96t-17 -121.5q0 -59 15 -119.5t52.5 -109.5t101 -80t159.5 -31q41 0 78.5 4t70 9.5t59.5 12t46 12.5l14 -8z" />
    <glyph glyph-name="afii10084" unicode="&#x442;" horiz-adv-x="1060" 
d="M808 633l-35 181h-83v-586l152 -39v-189h-625v189l154 39v586h-85l-35 -181h-225v406h1008v-406h-226z" />
    <glyph glyph-name="afii10085" unicode="&#x443;" horiz-adv-x="1386" 
d="M1232 802l-407 -937q-35 -80 -76 -140t-94 -100.5t-120.5 -61t-154.5 -20.5q-65 0 -114 8.5t-87 17.5v216q32 -6 77 -11t80 -5q61 0 102.5 13t69 33t43.5 44t25 47l37 94h-102l-355 802l-113 25v212h585v-212l-125 -25l174 -442l21 -111h17l205 553l-134 25v212h560v-211
z" />
    <glyph glyph-name="afii10086" unicode="&#x444;" horiz-adv-x="1923" 
d="M1121 -263l154 -38v-189h-635v189l163 38v392q-21 -28 -52.5 -56t-71.5 -50.5t-88.5 -36.5t-103.5 -14q-101 0 -181 42t-135.5 115t-85.5 172t-30 212v58q0 114 29.5 205.5t85 156t136 99.5t181.5 35q57 0 105.5 -14.5t88.5 -38t71 -52t51 -56.5v442l-159 39v211h477
v-691q20 28 50.5 56.5t70.5 51.5t88.5 37.5t105.5 14.5q101 0 181.5 -35t136 -99.5t85 -156t29.5 -205.5v-58q0 -113 -30.5 -212t-87.5 -172t-138 -115t-182 -42q-56 0 -103 14t-85.5 36.5t-69 50.5t-51.5 56v-392zM803 671q-12 24 -29 50.5t-42.5 49t-61 37.5t-84.5 15
q-56 0 -94.5 -17.5t-62.5 -50t-35 -79.5t-12 -106v-42q0 -62 10.5 -118.5t34.5 -99.5t63 -68.5t96 -25.5q49 0 84.5 15t61 37.5t42.5 49.5t29 51v302zM1337 823q-49 0 -84 -15t-60.5 -37.5t-42.5 -49t-29 -50.5v-302q12 -24 28 -51t40.5 -49.5t59 -37.5t83.5 -15
q57 0 97 25.5t64.5 68.5t36 99.5t11.5 118.5v42q-1 59 -12 106t-35 79.5t-62.5 50t-94.5 17.5z" />
    <glyph glyph-name="afii10087" unicode="&#x445;" horiz-adv-x="1308" 
d="M1095 795l-260 -267l273 -301l150 -36v-191h-581v192l82 17l-116 134l-30 43h-5l-32 -43l-114 -134l75 -17v-192h-488v191l149 36l283 286l-269 282l-152 32v212h581v-211l-81 -16l107 -122l23 -38h5l25 38l107 122l-64 16v211h484v-212z" />
    <glyph glyph-name="afii10088" unicode="&#x446;" horiz-adv-x="1375" 
d="M1136 224h193v-412h-215l-33 188h-1041v189l154 40v582l-155 39v189h567v-189l-94 -39v-587h305v587l-96 39v189h568v-189l-153 -39v-587z" />
    <glyph glyph-name="afii10089" unicode="&#x447;" horiz-adv-x="1399" 
d="M1183 228l153 -39v-189h-658v189l186 39v160l13 83h-9q-11 -15 -36 -42t-66 -53.5t-99 -46t-135 -19.5q-183 0 -272 103t-89 306v92l-154 39v189h608v-189l-135 -39v-77q0 -95 35.5 -137.5t120.5 -42.5q42 0 77 12.5t62.5 33.5t47 48t31.5 55v108l-137 39v189h609v-189
l-153 -39v-583z" />
    <glyph glyph-name="afii10090" unicode="&#x448;" horiz-adv-x="1894" 
d="M1107 224h273v587l-96 39v189h567v-189l-153 -39v-582l153 -40v-189h-1807v189l154 39v583l-155 39v189h567v-189l-94 -39v-587h272v587l-95 39v189h509v-189l-95 -39v-587z" />
    <glyph glyph-name="afii10091" unicode="&#x449;" horiz-adv-x="1941" 
d="M1698 224h190v-412h-215l-33 188h-1596v189l154 39v583l-155 39v189h567v-189l-94 -39v-587h272v587l-95 39v189h509v-189l-95 -39v-587h273v587l-96 39v189h567v-189l-153 -39v-587z" />
    <glyph glyph-name="afii10092" unicode="&#x44a;" horiz-adv-x="1297" 
d="M847 641q111 0 190 -27.5t130 -74t75 -107t24 -125.5q0 -72 -30.5 -129t-87.5 -96.5t-138 -60.5t-181 -21h-563v189l154 39v586h-140l-33 -152h-208v377h852v-189l-153 -39v-170h109zM955 318q0 23 -7 42.5t-25 33.5t-48 21.5t-76 7.5h-61v-216h57q82 0 121 31t39 80z
" />
    <glyph glyph-name="afii10093" unicode="&#x44b;" horiz-adv-x="1723" 
d="M510 641h108q111 0 190.5 -27.5t130 -74t74.5 -107t24 -125.5q0 -72 -30.5 -129t-87 -96.5t-137.5 -60.5t-182 -21h-562v189l154 39v583l-154 39v189h625v-189l-153 -39v-170zM1582 227l95 -39v-189h-568v189l154 39v584l-154 39v189h568v-189l-95 -39v-584zM727 318
q0 23 -8.5 42.5t-28 33.5t-51 21.5t-77.5 7.5h-52v-216h48q82 0 125.5 31t43.5 80z" />
    <glyph glyph-name="afii10094" unicode="&#x44c;" horiz-adv-x="1068" 
d="M510 641h108q111 0 190.5 -27.5t130 -74t74.5 -107t24 -125.5q0 -72 -30.5 -129t-87 -96.5t-137.5 -60.5t-182 -21h-562v189l154 39v583l-154 39v189h625v-189l-153 -39v-170zM727 318q0 23 -8.5 42.5t-28 33.5t-51 21.5t-77.5 7.5h-52v-216h48q82 0 125.5 31t43.5 80z
" />
    <glyph glyph-name="afii10095" unicode="&#x44d;" horiz-adv-x="1045" 
d="M83 227l15 8q19 -6 45.5 -12.5t59 -12t70 -9.5t78.5 -4q69 0 123 16t95.5 43.5t70 64t45.5 77.5l-299 -16v256l317 -18q-12 49 -38.5 89.5t-65 69.5t-87 45t-104.5 16q-13 0 -26.5 -0.5t-23.5 -2.5l-40 -155h-244v343q18 6 52.5 13t80.5 13.5t101 11t113 4.5
q147 0 256 -41.5t180 -115.5t106 -175.5t35 -221.5q0 -57 -10 -119t-35 -122t-67.5 -114.5t-108.5 -96t-157.5 -66t-213.5 -24.5q-65 0 -120 5.5t-98.5 13.5t-75.5 17t-52 17z" />
    <glyph glyph-name="afii10096" unicode="&#x44e;" horiz-adv-x="1898" 
d="M473 407v256h433v-256h-433zM60 0v189l154 39v561l-177 38v212h496v-811l152 -39v-189h-625zM1840 519q0 -128 -39.5 -229.5t-113.5 -172t-179 -108.5t-235 -38q-131 0 -236.5 38t-179.5 108.5t-113.5 172t-39.5 229.5t39.5 230t113.5 172.5t179.5 108t236.5 37.5
q130 0 235 -37.5t179 -108t113.5 -172.5t39.5 -230zM1513 520q0 158 -62.5 239.5t-177.5 81.5q-117 0 -179.5 -81.5t-62.5 -240.5q0 -157 62.5 -239.5t179.5 -82.5q115 0 177.5 79.5t62.5 243.5z" />
    <glyph glyph-name="afii10097" unicode="&#x44f;" horiz-adv-x="1192" 
d="M116 737q0 66 23 121.5t71 95.5t122.5 62.5t176.5 22.5h637v-213l-176 -37v-561l152 -39v-189h-567v189l96 39v161h-99l-144 -389h-366v194l104 26l131 245q-34 21 -63.5 47.5t-51 60.5t-34 75t-12.5 89zM443 714q0 -20 8 -39t24.5 -34t42 -24.5t59.5 -9.5h74v207h-61
q-68 0 -107.5 -21t-39.5 -79z" />
    <glyph glyph-name="afii10098" unicode="&#x491;" horiz-adv-x="1008" 
d="M532 228l152 -39v-189h-625v189l154 39v561l-177 38v212h680l33 151h208v-376h-425v-586z" />
    <glyph glyph-name="afii10099" unicode="&#x452;" horiz-adv-x="1363" 
d="M533 1091v-151l-51 -163h11q18 50 49 101.5t77.5 93.5t109 68.5t142.5 26.5q178 0 266.5 -104t88.5 -305v-292h1v-273q0 -154 -42.5 -255.5t-123 -161.5t-195 -83.5t-258.5 -21.5l-26 205l9 16q166 14 242 91t76 232v113h-1v415q0 95 -31 137.5t-94 42.5
q-53 0 -98.5 -38.5t-79 -103t-53 -149.5t-19.5 -178v-126l128 -39v-189h-600v189l153 39v863h-126v126h126v131l-157 39v211h476v-381h92v-126h-92z" />
    <glyph glyph-name="afii10100" unicode="&#x453;" horiz-adv-x="1008" 
d="M957 662h-208l-33 152h-184v-586l152 -39v-189h-625v189l154 39v561l-177 38v212h921v-377zM430 1130l-106 126l372 298l142 -177z" />
    <glyph glyph-name="afii10101" unicode="&#x454;" horiz-adv-x="1045" 
d="M360 398q17 -41 45.5 -77.5t70 -64t95.5 -43.5t122 -16q41 0 79 4t70.5 9.5t59 12t45.5 12.5l14 -8l24 -203q-20 -8 -52 -17t-75.5 -17t-98.5 -13.5t-121 -5.5q-122 0 -213.5 24.5t-157.5 66t-108.5 96t-67 114.5t-34.5 122t-10 119q0 120 35 221.5t106.5 175.5
t180 115.5t255.5 41.5q58 0 112.5 -4.5t100.5 -11t81 -13.5t54 -13v-371h-245l-22 183q-10 2 -32.5 2.5t-35.5 0.5q-56 0 -104.5 -16t-87 -45t-65 -69.5t-38.5 -89.5l318 18v-256z" />
    <glyph glyph-name="afii10102" unicode="&#x455;" horiz-adv-x="1096" 
d="M1024 302q0 -84 -34.5 -146.5t-99.5 -103.5t-157.5 -61t-207.5 -20q-63 0 -127.5 7.5t-122 19t-104 24t-73.5 21.5v310h252l40 -146q9 -2 26 -4.5t38 -5t42 -4t38 -1.5q19 0 47 2.5t54 12t44 29t18 52.5q0 15 -7 26.5t-27.5 22.5t-58.5 22.5t-100 28.5
q-90 24 -166.5 47.5t-132.5 60t-87.5 92t-31.5 143.5q0 66 21 116.5t56.5 87.5t83 62.5t101 41t109.5 22t110 6.5q52 0 112 -6t117 -16t105 -22t78 -24v-352h-229l-28 188q-11 2 -30.5 4.5t-42 5t-45 4t-39.5 1.5q-78 0 -115 -24.5t-37 -65.5q0 -31 15.5 -51.5t45 -35.5
t70.5 -27l92 -26q85 -23 156.5 -48t123 -60t80 -85.5t28.5 -124.5z" />
    <glyph glyph-name="afii10103" unicode="&#x456;" horiz-adv-x="746" 
d="M60 0v189l154 39v561l-177 38v212h496v-811l152 -39v-189h-625zM148 1376l188 188h26l188 -188v-26l-188 -189h-26l-188 189v26z" />
    <glyph glyph-name="afii10104" unicode="&#x457;" horiz-adv-x="746" 
d="M60 0v189l154 39v561l-177 38v212h496v-811l152 -39v-189h-625zM-103 1410l193 193h27l193 -193v-27l-193 -193h-27l-193 193v27zM419 1410l193 193h27l193 -193v-27l-193 -193h-27l-193 193v27z" />
    <glyph glyph-name="afii10105" unicode="&#x458;" horiz-adv-x="670" 
d="M-113 -208q166 14 242 91t76 232v674l-178 38v212h496v-946q0 -154 -42.5 -255.5t-123 -161.5t-195 -83.5t-258.5 -21.5l-27 205zM138 1376l188 188h27l188 -188v-26l-188 -189h-27l-188 189v26z" />
    <glyph glyph-name="afii10106" unicode="&#x459;" horiz-adv-x="1671" 
d="M1217 641q111 0 190 -27.5t130 -74t75 -107t24 -125.5q0 -72 -30.5 -129t-87.5 -96.5t-138 -60.5t-181 -21h-563v189l155 39v583l-1 3h-180q-5 -125 -16.5 -250t-36.5 -242q-22 -106 -57 -175t-93 -108.5t-143.5 -52t-208.5 -6.5l-28 197l10 13q58 2 94.5 13.5t57.5 29.5
t31.5 40.5t17.5 46.5q14 48 24 105.5t17 119t10.5 123.5t4.5 121l-175 38v212h1142v-189l-153 -39v-170h109zM1325 318q0 23 -8.5 42.5t-28 33.5t-51 21.5t-77.5 7.5h-52v-216h49q82 0 125 31t43 80z" />
    <glyph glyph-name="afii10107" unicode="&#x45a;" horiz-adv-x="1678" 
d="M1126 641h108q111 0 190.5 -27.5t130 -74t74.5 -107t24 -125.5q0 -72 -30.5 -129t-87.5 -96.5t-138 -60.5t-181 -21h-505v189l96 39v192h-304v-192l94 -39v-189h-567v189l154 39v583l-154 39v189h567v-189l-94 -39v-166h304v166l-96 39v189h568v-189l-153 -39v-170z
M1343 318q0 23 -8.5 42.5t-28 33t-51 21t-77.5 7.5h-52v-198l2 -17h46q82 0 125.5 31t43.5 80z" />
    <glyph glyph-name="afii10108" unicode="&#x45b;" horiz-adv-x="1422" 
d="M780 0v199l128 29v415q0 95 -31 137.5t-94 42.5q-53 0 -98.5 -38.5t-79 -103t-53 -149.5t-19.5 -178v-126l128 -39v-189h-600v189l153 39v863h-112v126h112v131l-157 39v211h476v-381h105v-126h-105v-151l-51 -163h11q18 50 49 101.5t77.5 93.5t109 68.5t142.5 26.5
q178 0 266.5 -104t88.5 -305l1 -430l153 -39v-189h-600z" />
    <glyph glyph-name="afii10109" unicode="&#x45c;" horiz-adv-x="1244" 
d="M486 626h155l110 183l101 230h353v-203l-112 -27l-190 -288l176 -277l141 -26v-218h-363l-211 399l-160 1v-172l152 -39v-189h-625v189l154 39v583l-154 39v189h625v-189l-152 -39v-185zM589 1124l-106 126l372 298l142 -177z" />
    <glyph glyph-name="afii10110" unicode="&#x45e;" horiz-adv-x="1386" 
d="M1232 802l-407 -937q-35 -80 -76 -140t-94 -100.5t-120.5 -61t-154.5 -20.5q-65 0 -114 8.5t-87 17.5v216q32 -6 77 -11t80 -5q61 0 102.5 13t69 33t43.5 44t25 47l37 94h-102l-355 802l-113 25v212h585v-212l-125 -25l174 -442l21 -111h17l205 553l-134 25v212h560v-211
zM1018 1421q0 -63 -24 -113.5t-65.5 -86t-97 -54.5t-118.5 -19t-117.5 19.5t-95 55.5t-63.5 86.5t-23 111.5l153 25q2 -28 12 -52.5t29 -43t45.5 -29t61.5 -10.5q34 0 63.5 9.5t50.5 27.5t32.5 43t11.5 55l145 -25v0z" />
    <glyph glyph-name="afii10145" unicode="&#x40f;" horiz-adv-x="1704" 
d="M80 207l162 35v975l-162 34v207h656v-207l-162 -34v-983h545v983l-161 34v207h655v-207l-161 -34v-979l161 -36v-202h-615l-25 -253h-234l-43 253h-616v207z" />
    <glyph glyph-name="afii10146" unicode="&#x462;" horiz-adv-x="1487" 
d="M909 814q117 0 216.5 -27.5t171.5 -80.5t113 -130t41 -175q0 -101 -41 -176t-116 -125t-180 -75t-233 -25h-651v201l161 37l-1 780h-159l-44 -148h-169v264h372v121l-162 35v165h657v-166l-161 -33v-122h372v-264h-168l-44 148h-160l1 -204h184zM1109 410q0 45 -13.5 79
t-45.5 57t-84.5 35t-129.5 12h-112v-374h101q150 0 217 48t67 143z" />
    <glyph glyph-name="afii10147" unicode="&#x472;" horiz-adv-x="1572" 
d="M1489 686q0 -160 -42 -291.5t-129 -225.5t-220 -146t-316 -52q-180 0 -311.5 52t-217.5 146t-128 226t-42 293t42 293.5t128.5 227.5t218.5 147t313 52t313.5 -52.5t219.5 -147.5t129 -228t42 -294zM782 210q73 0 130 19.5t98.5 55t69 85.5t43.5 112l-698 184
q2 -99 22 -182.5t63 -144.5t110 -95t162 -34zM785 1169q-71 0 -126.5 -19t-96.5 -54t-68.5 -84.5t-43.5 -109.5l695 -182q-3 97 -23.5 179.5t-63 142.5t-110 93.5t-163.5 33.5z" />
    <glyph glyph-name="afii10148" unicode="&#x474;" horiz-adv-x="1675" 
d="M1653 1245l-145 -28l-473 -1217h-391l-456 1214l-160 31v213h674v-212l-163 -33l254 -743l48 -231h27l72 231l257 746l-152 30v212h608v-213z" />
    <glyph glyph-name="afii10193" unicode="&#x45f;" horiz-adv-x="1412" 
d="M60 189l154 40v582l-154 39v189h567v-189l-94 -39v-587h305v587l-96 39v189h568v-189l-153 -39v-583l153 -39v-189h-486l-15 -188h-215l-33 188h-501v189z" />
    <glyph glyph-name="afii10194" unicode="&#x463;" horiz-adv-x="1242" 
d="M792 641q111 0 190.5 -27.5t130.5 -74t75 -107t24 -125.5q0 -72 -30.5 -129t-87.5 -96.5t-138 -60.5t-181 -21h-563v189l154 39v583h-135l-35 -78h-175v219h345v87h319v-87h344v-219h-176l-35 78h-133v-170h107zM902 318q0 23 -9 42.5t-28.5 33.5t-51 21.5t-76.5 7.5h-52
v-216h48q82 0 125.5 31t43.5 80z" />
    <glyph glyph-name="afii10195" unicode="&#x473;" horiz-adv-x="1246" 
d="M1191 519q0 -128 -39.5 -229.5t-113.5 -172t-179 -108.5t-235 -38q-131 0 -236.5 38t-179.5 108.5t-113.5 172t-39.5 229.5t39.5 230t113.5 172.5t179.5 108t236.5 37.5q130 0 235 -37.5t179 -108t113.5 -172.5t39.5 -230zM624 841q-162 0 -217 -154l455 -118
q-10 134 -71 203t-167 69zM624 197q79 0 133.5 37.5t81.5 115.5l-455 118q10 -133 71.5 -202t168.5 -69z" />
    <glyph glyph-name="afii10196" unicode="&#x475;" horiz-adv-x="1346" 
d="M1205 802l-358 -802h-363l-354 802l-114 25v212h585v-212l-124 -25l172 -437l22 -116h17l205 553l-134 25v212h560v-212z" />
    <glyph glyph-name="afii10846" unicode="&#x4d9;" horiz-adv-x="1166" 
d="M493 653q6 0 32.5 0.5t62 1t74.5 0.5h70q-26 80 -91.5 129t-177.5 53q-49 1 -88.5 -4t-72.5 -14t-60.5 -20.5l-52.5 -21.5q-14 -2 -29 0t-24 2l-14 220l58 21t77.5 22.5t100.5 17.5t128 7q125 0 218 -25.5t159.5 -67.5t109.5 -97t67.5 -114.5t34 -119t9.5 -111.5
q0 -116 -33 -218.5t-102 -178.5t-175 -120t-253 -44q-86 0 -152 17t-115.5 46t-83.5 65.5t-55 75.5t-30 77t-9 70q0 62 21 121t69.5 105.5t128.5 75t198 29.5zM519 425q-68 -1 -109.5 -26t-41.5 -73q0 -60 40.5 -94.5t121.5 -34.5q59 0 98 22t64 56t37 74.5t17 77.5h-66.5
t-71.5 -0.5t-59.5 -1t-29.5 -0.5z" />
    <glyph glyph-name="K.alt" horiz-adv-x="1652" 
d="M594 243l169 -38v-205h-680v205l167 38v968l-167 36v211h664v-212l-153 -35v-968zM717 778l349 433l-117 36v211h637v-216l-149 -32l-369 -419l360 -526l178 -34v-231h-412z" />
    <glyph glyph-name="Q.alt" horiz-adv-x="1627" 
d="M1541 725q0 -169 -43.5 -308t-133.5 -238.5t-227.5 -154t-326.5 -54.5q-186 0 -322.5 54.5t-225.5 154t-132.5 239.5t-43.5 310t43.5 310t133 240t226 155t323.5 55t324.5 -55t227.5 -155t133.5 -241t43.5 -312zM1189 727q0 112 -20 207t-64.5 164t-116.5 108t-176 39
q-103 0 -174 -39t-115.5 -108t-64.5 -164t-20 -206q0 -112 20 -206.5t64 -163t115 -107t173 -38.5q105 0 177 38.5t117 107t65 163t20 205.5zM1026 -79l421 -171v-36l-285 -141l-382 298z" />
    <glyph glyph-name="at.cap" 
d="M868 355l859 867q169 -219 169 -437q0 -126 -39 -235.5t-114 -194.5h-875zM739 333q-81 104 -122 214.5t-41 237.5q0 50 9 106t27.5 110.5t47.5 104.5t69 89h869zM797 281h881q-97 -84 -210.5 -125t-232.5 -41q-127 0 -237 44t-201 122zM1678 1275h-889q103 78 214.5 122
t231.5 44q65 0 123 -12.5t112 -35t105 -52.5t103 -66z" />
    <glyph glyph-name="parenleft.cap" horiz-adv-x="819" 
d="M456 -319q-57 72 -123 169.5t-123 226t-95 290.5t-38 362q0 133 17.5 252t47 223.5t68 195t80.5 167t84.5 139t80.5 111.5l224 -114l-79.5 -154.5t-67 -146.5t-54.5 -147.5t-40.5 -156.5t-25 -174.5t-8.5 -201.5q0 -110 8.5 -199t25 -165t40.5 -143.5t54.5 -134
t67.5 -136l80 -150.5z" />
    <glyph glyph-name="parenright.cap" horiz-adv-x="819" 
d="M63 -204l80 150.5t67.5 136t54.5 134t40.5 143.5t25 165t8.5 199q0 109 -8.5 201.5t-25 174.5t-40 156.5t-54 147t-67.5 146.5l-79 155l223 113q38 -48 80.5 -110.5t84.5 -139t80.5 -167t68 -195.5t47 -223.5t17.5 -251.5t-17.5 -249.5t-47 -217t-68 -186t-80.5 -157.5
t-85 -131l-81 -107z" />
    <glyph glyph-name="bracketleft.cap" horiz-adv-x="737" 
d="M120 -302v2069h492v-266h-182v-1537h182v-266h-492z" />
    <glyph glyph-name="bracketright.cap" horiz-adv-x="775" 
d="M120 -314v266h182v1538h-182v266h492v-2070h-492z" />
    <glyph glyph-name="braceleft.cap" horiz-adv-x="898" 
d="M664 -308q-110 0 -189 28t-129.5 88.5t-74.5 156.5t-24 231v224q0 67 -14 111t-39.5 70t-61.5 37.5t-81 13.5v243q45 2 81.5 11.5t62 33.5t39 66t13.5 110v146q0 133 23.5 227.5t74 155.5t129.5 89.5t190 28.5h50v-264q-47 0 -78 -8t-49.5 -33.5t-26 -72t-7.5 -122.5
v-145q0 -92 -14.5 -155t-39.5 -102.5t-59.5 -59t-74.5 -25.5v-4q40 -6 74.5 -27.5t59.5 -63t39.5 -106t14.5 -156.5v-222q0 -76 7.5 -123t26 -72.5t49.5 -34.5t78 -9v-266h-50z" />
    <glyph glyph-name="braceright.cap" horiz-adv-x="901" 
d="M91 -334v266q47 0 78 9t49.5 34.5t26 72.5t7.5 124v221q0 92 14.5 156.5t40 106.5t59.5 63t74 27v4q-40 6 -74.5 25.5t-59.5 59.5t-39.5 103t-14.5 155v144q0 77 -7.5 123.5t-26 71.5t-49.5 33t-78 8v264h50q111 0 190 -28.5t129.5 -89t74 -155.5t23.5 -227v-146
q0 -68 13.5 -110t39 -66t62 -33.5t81.5 -11.5v-243q-45 -2 -81 -13.5t-61.5 -38t-39.5 -70t-14 -110.5v-224q0 -135 -24 -231t-74.5 -157t-129.5 -89t-189 -28h-50z" />
    <glyph glyph-name="exclamdown.cap" horiz-adv-x="707" 
d="M241 914h277l54 -951h-378zM579 1238l-189 -189h-26l-196 196v24l189 189h30l192 -193v-27z" />
    <glyph glyph-name="questiondown.cap" horiz-adv-x="1034" 
d="M836 790q-21 -62 -60 -109t-85 -84.5t-94 -69t-87 -62.5t-64 -65t-25 -76q0 -38 13 -71t44 -56t83 -34t130 -5l32 284h238v-483q-17 -4 -52 -10.5t-83.5 -12.5t-109 -10.5t-127.5 -4.5q-134 0 -233 31t-164 86t-97.5 129t-32.5 160q0 72 22 124t57 91.5t79.5 70
l90.5 59.5t88.5 60.5t73.5 72.5q13 17 21 34.5t10.5 37.5t-0.5 44.5t-13 55.5h226zM819 1266l-189 -190h-26l-196 197v24l189 189l30 -1l192 -192v-27z" />
    <glyph glyph-name="guillemotleft.cap" horiz-adv-x="1247" 
d="M375 725l168 -311l-268 -112l-211 423l217 426l258 -109zM866 725l182 -294l-260 -116l-234 410l240 413l250 -114z" />
    <glyph glyph-name="guillemotright.cap" horiz-adv-x="1253" 
d="M648 1040l258 110l217 -427l-211 -422l-269 112l168 310zM143 1023l250 114l239 -414l-233 -409l-260 116l182 293z" />
    <glyph glyph-name="guilsinglleft.cap" horiz-adv-x="730" 
d="M431 723l168 -310l-269 -112l-211 422l217 427l258 -110z" />
    <glyph glyph-name="guilsinglright.cap" horiz-adv-x="730" 
d="M156 1040l259 110l217 -427l-211 -422l-269 112l168 310z" />
    <glyph glyph-name="hyphen.cap" horiz-adv-x="705" 
d="M93 591v261h520v-261h-520z" />
    <glyph glyph-name="endash.cap" horiz-adv-x="1024" 
d="M0 587v287h1024v-287h-1024z" />
    <glyph glyph-name="emdash.cap" horiz-adv-x="2048" 
d="M0 578v288h2048v-288h-2048z" />
    <glyph glyph-name="periodcentered.cap" horiz-adv-x="695" 
d="M147 732l187 188h28l194 -194v-27l-189 -188h-26l-194 194v27z" />
    <glyph glyph-name="i.trk" horiz-adv-x="772" 
d="M63 0v193l159 40v609l-184 40v215h512v-864l159 -40v-193h-646zM354 1239l-224 212v12l211 213h13l219 -208v-15l-208 -214h-11z" />
    <glyph glyph-name="G.alt" horiz-adv-x="1618" 
d="M1403 511v-479q-27 -9 -77 -19.5t-116.5 -20t-147.5 -16t-170 -6.5q-202 0 -353 54.5t-251.5 154t-151 239t-50.5 309.5q0 61 13.5 141.5t47 165t90.5 166t145 145.5t209.5 103.5t283.5 39.5q110 0 201.5 -8t160.5 -19t114.5 -22.5t63.5 -17.5v-419h-250l-48 227
q-12 3 -36.5 6t-55 5t-65.5 3.5t-69 1.5q-125 0 -210 -45t-137.5 -118t-75 -166t-22.5 -189q0 -61 10 -123t33 -119t60 -106.5t91 -86.5t126.5 -58t166.5 -21q43 0 75 3.5t52 5.5v289l-167 36v211h646v-211z" />
    <glyph glyph-name="centoldstyle" unicode="&#xf7a2;" horiz-adv-x="984" 
d="M914 102q-31 -13 -91 -28t-150 -21v-128h-213v134q-88 13 -154.5 42t-114.5 69.5t-79 89t-49 101t-25.5 105.5t-7.5 102q0 102 27 190t80.5 155.5t134 112t188.5 60.5v138h213v-134q78 -5 140 -16t90 -18v-338h-254l-40 146q-4 0 -9.5 0.5t-10.5 0.5q-57 0 -100 -21
t-72 -57.5t-43.5 -86t-14.5 -107.5q0 -53 12 -108t44.5 -101t88 -75t142.5 -29q76 0 135.5 12.5t94.5 22.5l16 -7z" />
    <glyph glyph-name="dollaroldstyle" unicode="&#xf724;" horiz-adv-x="1097" 
d="M1024 302q0 -71 -24.5 -126t-71 -95t-113.5 -65.5t-151 -35.5v-138h-207v132q-56 4 -110 12t-102 18t-86 20.5t-61 18.5v310h252l40 -146q9 -2 26 -4.5t38 -5t42 -4t38 -1.5q19 0 47 2.5t54 12t44 29t18 52.5q0 15 -7 29t-27.5 28t-58.5 28t-100 31l-166.5 45
t-132.5 54.5t-87.5 86.5t-31.5 141q0 82 31.5 140t83.5 97t118.5 61t135.5 31v105h207v-103q46 -4 92.5 -10.5t88.5 -15t77.5 -18.5t58.5 -19v-309h-253l-40 145q-23 5 -54.5 10t-66.5 5q-78 0 -115 -24.5t-37 -65.5q0 -31 15.5 -49t45 -30t70.5 -21.5t92 -23.5
q85 -23 156.5 -50.5t123 -65.5t80 -91t28.5 -127z" />
    <glyph glyph-name="parenleftsuperior" unicode="&#x207d;" horiz-adv-x="499" 
d="M267 423q-39 46 -82 105t-79 135.5t-60 172.5t-24 218q0 121 24 222.5t60 184t79 146.5t82 111l171 -89q-44 -86 -75 -153.5t-50.5 -132.5t-28.5 -135t-9 -162q0 -71 9 -131.5t28.5 -121t51 -128t75.5 -153.5z" />
    <glyph glyph-name="parenrightsuperior" unicode="&#x207e;" horiz-adv-x="498" 
d="M12 512q44 86 75 153t51 128t29 121t9 132q0 92 -9 162t-29 135t-51 132.5l-74 153.5l171 89q39 -47 82 -111t79 -146.5t59.5 -184t23.5 -222.5q0 -122 -24 -218t-60 -172.5t-79 -135.5t-82 -105z" />
    <glyph glyph-name="hyphensuperior" unicode="&#xf6e6;" horiz-adv-x="417" 
d="M49 991v204h327v-204h-327z" />
    <glyph glyph-name="commasuperior" unicode="&#xf6e2;" horiz-adv-x="443" 
d="M338 808q0 -81 -46 -150t-150 -136l-72 83l25.5 27.5t22.5 28.5t16.5 32.5t7.5 38.5h-67v257h263v-181z" />
    <glyph glyph-name="periodsuperior" unicode="&#xf6e8;" horiz-adv-x="443" 
d="M356 732h-264v257h264v-257z" />
    <glyph glyph-name="centsuperior" unicode="&#xf6e0;" horiz-adv-x="605" 
d="M567 809q-19 -7 -52 -15.5t-83 -13.5v-76h-162v80q-79 13 -128 47t-76.5 77.5t-37.5 92.5t-10 93q0 121 65.5 201.5t186.5 103.5v85h162v-81q42 -4 76 -9t51 -9v-229h-137l-25 69q-5 2 -11 3.5t-17 1.5q-24 0 -42 -10t-30 -26.5t-18 -38t-6 -43.5t4 -49.5t18 -51.5
t41.5 -40.5t74.5 -16.5q46 0 77 6.5t51 12.5l12 -7z" />
    <glyph glyph-name="dollarsuperior" unicode="&#xf6e4;" horiz-adv-x="716" 
d="M702 959q0 -48 -18 -87t-49.5 -69t-74.5 -50t-93 -30v-89h-162v80q-66 2 -132.5 10.5t-128.5 27.5v256h182l28 -103q15 -5 40.5 -11.5t54.5 -6.5q25 0 41 4.5t25 12.5t12 17.5t3 20.5t-5 21t-17.5 19.5t-34 19.5t-55.5 22q-79 27 -131.5 52.5t-84 54t-45 63.5t-13.5 82
q0 71 23.5 118t61 75.5t83.5 42t91 18.5v75h161v-73q54 -3 108.5 -12t100.5 -24v-229h-197l-23 77q-4 1 -12 2t-17.5 1.5l-19 1t-15.5 0.5q-41 0 -57 -10t-16 -29q0 -14 7 -24t19 -17.5t27 -13.5l31 -12l134.5 -54t94 -52t55.5 -70t18 -108z" />
    <glyph glyph-name="parenleftinferior" unicode="&#x208d;" horiz-adv-x="499" 
d="M267 -458q-39 46 -82 105t-79 135t-60 172.5t-24 217.5t24 222.5t60 184t79 146.5t82 111l171 -88q-44 -87 -75 -154.5t-50.5 -132.5t-28.5 -135t-9 -162q0 -71 9 -131t28.5 -121t51 -128.5t75.5 -153.5z" />
    <glyph glyph-name="parenrightinferior" unicode="&#x208e;" horiz-adv-x="498" 
d="M12 -370q44 86 75 153.5t51 128t29 120.5t9 132q0 92 -9 162t-29 135t-51 132.5l-74 154.5l171 88q39 -47 82 -111t79 -146.5t59.5 -184t23.5 -222.5t-24 -217.5t-60 -172.5t-79 -135t-82 -105z" />
    <glyph glyph-name="hypheninferior" unicode="&#xf6e5;" horiz-adv-x="417" 
d="M49 109v204h327v-204h-327z" />
    <glyph glyph-name="commainferior" unicode="&#xf6e1;" horiz-adv-x="443" 
d="M338 -73q0 -82 -46 -151t-150 -136l-72 84q26 27 48 55.5t24 70.5h-67v258h263v-181z" />
    <glyph glyph-name="periodinferior" unicode="&#xf6e7;" horiz-adv-x="443" 
d="M356 -150h-264v258h264v-258z" />
    <glyph glyph-name="centinferior" unicode="&#xf6df;" horiz-adv-x="605" 
d="M567 -72q-20 -8 -52.5 -16t-82.5 -13v-76h-162v81q-79 13 -128 46.5t-76.5 77t-37.5 92t-10 92.5q0 60 16.5 111t49 90.5t79.5 66t107 37.5v85h162v-80q42 -4 76 -9.5t51 -9.5v-228h-137l-25 68q-5 2 -11 3.5t-17 1.5q-24 0 -42 -10t-30 -26.5t-18 -38t-6 -43.5
q0 -21 4 -48.5t18 -52t41.5 -41t74.5 -16.5q46 0 77 7t51 13l12 -7z" />
    <glyph glyph-name="dollarinferior" unicode="&#xf6e3;" horiz-adv-x="716" 
d="M702 77q0 -48 -18 -87t-49.5 -68.5t-74.5 -50t-93 -30.5v-88h-162v79q-66 2 -132.5 11t-128.5 28v255h182l28 -103q15 -5 40.5 -11.5t54.5 -6.5q25 0 41 5t25 12.5t12 17.5t3 20q0 11 -5 21t-17.5 19.5t-34 19.5t-55.5 22q-79 27 -131.5 52.5t-84 54.5t-45 64t-13.5 82
q0 71 23.5 117.5t61 75t83.5 42t91 18.5v75h161v-72q54 -4 108.5 -12.5t100.5 -24.5v-228h-197l-23 77q-4 1 -12 1.5t-17.5 1l-19 1t-15.5 0.5q-41 0 -57 -9.5t-16 -28.5q0 -14 7 -24.5t19 -18t27 -13l31 -11.5l134.5 -54t94 -52.5t55.5 -70.5t18 -108z" />
    <glyph glyph-name="parenleft.denominator" horiz-adv-x="499" 
d="M267 -308q-39 46 -82 105t-79 135t-60 172.5t-24 217.5t24 222.5t60 184t79 146.5t82 111l171 -88q-44 -87 -75 -154.5t-50.5 -132.5t-28.5 -135t-9 -162q0 -71 9 -131t28.5 -121t51 -128.5t75.5 -153.5z" />
    <glyph glyph-name="parenright.denominator" horiz-adv-x="498" 
d="M12 -220q44 86 75 153.5t51 128t29 120.5t9 132q0 92 -9 162t-29 135t-51 132.5l-74 154.5l171 88q39 -47 82 -111t79 -146.5t59.5 -184t23.5 -222.5t-24 -217.5t-60 -172.5t-79 -135t-82 -105z" />
    <glyph glyph-name="cent.denominator" horiz-adv-x="605" 
d="M567 78q-20 -8 -52.5 -16.5t-82.5 -13.5v-75h-162v80q-79 13 -128 47t-76.5 77.5t-37.5 92t-10 92.5q0 60 16.5 111t49 90.5t79.5 66t107 37.5v85h162v-80q42 -4 76 -9.5t51 -9.5v-228h-137l-25 68q-5 2 -11 3.5t-17 1.5q-24 0 -42 -10t-30 -26.5t-18 -38t-6 -43.5
q0 -21 4 -48.5t18 -52t41.5 -41t74.5 -16.5q46 0 77 7t51 13l12 -7z" />
    <glyph glyph-name="dollar.denominator" horiz-adv-x="716" 
d="M702 227q0 -48 -18 -87t-49.5 -68.5t-74.5 -50t-93 -30.5v-88h-162v79q-66 2 -132.5 11t-128.5 28v255h182l28 -103q15 -5 40.5 -11.5t54.5 -6.5q25 0 41 5t25 12.5t12 17.5t3 20q0 11 -5 21t-17.5 19.5t-34 19.5t-55.5 22q-79 27 -131.5 52.5t-84 54.5t-45 64t-13.5 82
q0 71 23.5 117.5t61 75t83.5 42t91 18.5v75h161v-72q54 -4 108.5 -12.5t100.5 -24.5v-228h-197l-23 77q-4 1 -12 1.5t-17.5 1l-19 1t-15.5 0.5q-41 0 -57 -9.5t-16 -28.5q0 -14 7 -24.5t19 -18t27 -13l31 -11.5l134.5 -54t94 -52.5t55.5 -70.5t18 -108z" />
    <glyph glyph-name="hyphen.denominator" horiz-adv-x="417" 
d="M49 259v204h327v-204h-327z" />
    <glyph glyph-name="comma.denominator" horiz-adv-x="443" 
d="M338 77q0 -82 -46 -151t-150 -136l-72 84q26 27 48 55.5t24 70.5h-67v258h263v-181z" />
    <glyph glyph-name="period.denominator" horiz-adv-x="443" 
d="M356 0h-264v258h264v-258z" />
    <glyph glyph-name="parenleft.numerator" horiz-adv-x="499" 
d="M267 273q-39 46 -82 105t-79 135.5t-60 172.5t-24 218q0 121 24 222.5t60 184t79 146.5t82 111l171 -89q-44 -86 -75 -153.5t-50.5 -132.5t-28.5 -135t-9 -162q0 -71 9 -131.5t28.5 -121t51 -128t75.5 -153.5z" />
    <glyph glyph-name="parenright.numerator" horiz-adv-x="498" 
d="M12 362q44 86 75 153t51 128t29 121t9 132q0 92 -9 162t-29 135t-51 132.5l-74 153.5l171 89q39 -47 82 -111t79 -146.5t59.5 -184t23.5 -222.5q0 -122 -24 -218t-60 -172.5t-79 -135.5t-82 -105z" />
    <glyph glyph-name="cent.numerator" horiz-adv-x="605" 
d="M567 659q-19 -7 -52 -15.5t-83 -13.5v-76h-162v80q-79 13 -128 47t-76.5 77.5t-37.5 92.5t-10 93q0 121 65.5 201.5t186.5 103.5v85h162v-81q42 -4 76 -9t51 -9v-229h-137l-25 69q-5 2 -11 3.5t-17 1.5q-24 0 -42 -10t-30 -26.5t-18 -38t-6 -43.5t4 -49.5t18 -51.5
t41.5 -40.5t74.5 -16.5q46 0 77 6.5t51 12.5l12 -7z" />
    <glyph glyph-name="dollar.numerator" horiz-adv-x="716" 
d="M702 809q0 -48 -18 -87t-49.5 -69t-74.5 -50t-93 -30v-89h-162v80q-66 2 -132.5 10.5t-128.5 27.5v256h182l28 -103q15 -5 40.5 -11.5t54.5 -6.5q25 0 41 4.5t25 12.5t12 17.5t3 20.5t-5 21t-17.5 19.5t-34 19.5t-55.5 22q-79 27 -131.5 52.5t-84 54t-45 63.5t-13.5 82
q0 71 23.5 118t61 75.5t83.5 42t91 18.5v75h161v-73q54 -3 108.5 -12t100.5 -24v-229h-197l-23 77q-4 1 -12 2t-17.5 1.5l-19 1t-15.5 0.5q-41 0 -57 -10t-16 -29q0 -14 7 -24t19 -17.5t27 -13.5l31 -12l134.5 -54t94 -52t55.5 -70t18 -108z" />
    <glyph glyph-name="hyphen.numerator" horiz-adv-x="417" 
d="M49 841v204h327v-204h-327z" />
    <glyph glyph-name="comma.numerator" horiz-adv-x="443" 
d="M338 658q0 -81 -46 -150t-150 -136l-72 83l25.5 27.5t22.5 28.5t16.5 32.5t7.5 38.5h-67v257h263v-181z" />
    <glyph glyph-name="period.numerator" horiz-adv-x="443" 
d="M356 582h-264v257h264v-257z" />
    <glyph glyph-name="asuperior" unicode="&#xf6e9;" horiz-adv-x="789" 
d="M77 1266v152q5 3 35.5 12t75.5 19.5t98.5 18.5t104.5 8q48 0 99 -6t93.5 -31.5t69.5 -77t27 -142.5v-247l88 -26v-140h-303v82l3 40h-6q-18 -67 -72 -103.5t-148 -36.5q-52 0 -90.5 16t-64.5 43t-39 63t-13 77q0 80 34 125.5t87.5 68t120.5 28t133 5.5h32v-1q0 54 -32 76
t-89 22q-54 0 -112.5 -14.5t-121.5 -36.5zM333 953q16 0 35.5 9t35.5 24t27 33.5t11 37.5v40h-37q-57 0 -91.5 -20t-34.5 -60q0 -27 15.5 -45.5t38.5 -18.5z" />
    <glyph glyph-name="bsuperior" unicode="&#xf6ea;" horiz-adv-x="825" 
d="M793 1167q0 -80 -20 -149t-64.5 -120t-116.5 -80.5t-176 -29.5q-53 0 -106 5.5t-96.5 13t-72 14.5t-31.5 9v699l-91 26v155h330v-196l-10 -124h8q14 15 32 30.5t40.5 28t49 20t56.5 7.5q62 0 112 -21.5t84.5 -61.5t53 -97.5t18.5 -128.5zM549 1156q0 29 -3.5 54.5
t-14 44.5t-29.5 30t-50 11q-23 0 -39.5 -6.5t-28.5 -17t-20.5 -23t-14.5 -23.5v-265q15 -4 32 -6t30 -2q77 0 107.5 51.5t30.5 151.5z" />
    <glyph glyph-name="dsuperior" unicode="&#xf6eb;" horiz-adv-x="834" 
d="M499 806v59l3 72h-6q-8 -28 -27 -55t-46 -48t-60.5 -33.5t-69.5 -12.5q-68 0 -117.5 25.5t-81.5 67.5t-47 96t-15 111q0 84 17 145t45.5 104.5t66 70.5t79 42t84 20.5t81.5 5.5q12 0 28.5 0.5t42.5 -3.5v56l-91 26v155h330v-738l87 -26v-140h-303zM476 1303
q-22 5 -39 6.5t-23 1.5q-42 0 -69 -15.5t-42 -42.5t-20.5 -62.5t-5.5 -74.5q0 -75 19.5 -112t71.5 -37q28 0 48 17.5t33.5 42.5t20 53.5t6.5 51.5v171z" />
    <glyph glyph-name="esuperior" unicode="&#xf6ec;" horiz-adv-x="722" 
d="M653 979l15 -149q-35 -11 -103 -26.5t-165 -15.5q-83 0 -143.5 17.5t-102 45.5t-66.5 64t-38.5 73.5t-18 72.5t-4.5 62q0 67 18.5 130.5t60.5 113t111.5 79.5t171.5 30q83 0 138.5 -25.5t89.5 -67t48.5 -93t15.5 -103.5q1 -60 -11 -116h-394q0 -10 9 -30t29 -39.5
t51.5 -34t78.5 -14.5q68 0 118 11t81 22zM452 1209q0 101 -84 101q-40 0 -64.5 -23.5t-32.5 -77.5h181z" />
    <glyph glyph-name="h.superior" horiz-adv-x="886" 
d="M487 806v146l52 20v239q0 49 -22 67t-56 18q-36 0 -62 -19.5t-40 -51.5v-253l51 -26v-140h-378v140l88 26v557l-91 26v155h330v-171l-8 -150h6l19 20t36.5 29t57.5 26.5t81 11.5q106 0 166 -64.5t60 -200.5v-239l89 -26v-140h-379z" />
    <glyph glyph-name="isuperior" unicode="&#xf6ed;" horiz-adv-x="479" 
d="M32 806v140l88 26v304l-103 27v156h342v-487l88 -26v-140h-415zM217 1515l-155 149v7l148 148h8l153 -145v-11l-146 -148h-8z" />
    <glyph glyph-name="lsuperior" unicode="&#xf6ee;" horiz-adv-x="480" 
d="M32 806v140l88 26v557l-91 26v155h330v-738l88 -26v-140h-415z" />
    <glyph glyph-name="msuperior" unicode="&#xf6ef;" horiz-adv-x="1292" 
d="M894 806v140l51 26v233q0 53 -20.5 72t-56.5 19q-20 0 -36 -8t-28 -19t-19.5 -23.5t-11.5 -21.5v-252l51 -26v-140h-342v140l51 26v236q0 48 -18.5 68t-55.5 20q-24 0 -41 -8.5t-29 -20t-19.5 -23.5t-10.5 -19v-253l51 -26v-140h-378v140l88 26v304l-103 27v156h319v-47
l-10 -69h7q3 10 18 32t42 44.5t67 39.5t93 17q79 0 129 -37.5t63 -95.5q8 20 25.5 43.5t44 43.5t62.5 33t81 13q108 0 167 -66t59 -199v-239l88 -26v-140h-378z" />
    <glyph glyph-name="nsuperior" unicode="&#x207f;" horiz-adv-x="886" 
d="M487 806v146l52 20v239q0 49 -22 67t-56 18q-36 0 -62 -19.5t-40 -51.5v-253l51 -26v-140h-378v140l88 26v304l-103 27v156h319v-59l-10 -57h7q4 10 19 32t41 44.5t65 39.5t93 17q106 0 166 -64.5t60 -200.5v-239l89 -26v-140h-379z" />
    <glyph glyph-name="osuperior" unicode="&#xf6f0;" horiz-adv-x="777" 
d="M750 1132q0 -81 -26 -145t-73 -108.5t-113.5 -67.5t-148.5 -23t-149 23t-114.5 67.5t-73.5 108.5t-26 145q0 82 26 146t73.5 108t114.5 67t149 23t148.5 -23t113.5 -67t73 -108t26 -146zM506 1132q0 92 -32 135.5t-85 43.5q-54 0 -86 -43t-32 -136q0 -92 32 -135.5
t86 -43.5q53 0 85 41t32 138z" />
    <glyph glyph-name="rsuperior" unicode="&#xf6f1;" horiz-adv-x="667" 
d="M468 1203l-21 73q-19 -2 -31.5 -4.5t-22 -7.5t-17 -12l-17.5 -17v-263l111 -26v-140h-438v140l88 26v304l-103 27v156h319v-35l-4 -62h7q7 20 25 40t43.5 36.5t57.5 27t69 10.5q28 0 54 -4t38 -7v-262h-158z" />
    <glyph glyph-name="ssuperior" unicode="&#xf6f2;" horiz-adv-x="694" 
d="M656 1002q0 -55 -22.5 -95t-64.5 -66.5t-102 -39.5t-134 -13q-38 0 -79 5t-79.5 12.5t-70 16t-49.5 14.5v205h190l27 -84q4 -1 13.5 -2.5t19.5 -2.5t19.5 -1.5t14.5 -0.5q20 -2 36 2q14 3 25 12t11 27q0 5 -2 11.5t-12 13.5t-30.5 15.5t-56.5 17.5l-107.5 26.5t-83 33
t-54 55t-19.5 91.5q0 68 31.5 111t79 67.5t103 33.5t103.5 9q32 0 70.5 -4t76.5 -10.5t71.5 -14.5t54.5 -17v-204h-191l-27 84q-14 3 -27.5 5t-28.5 2q-42 0 -56.5 -11.5t-14.5 -28.5q0 -15 8 -23.5t23 -13.5t37.5 -9.5t52.5 -12.5q54 -14 99 -32t77.5 -43t50 -59t17.5 -82z
" />
    <glyph glyph-name="tsuperior" unicode="&#xf6f3;" horiz-adv-x="559" 
d="M507 970l17 -149q-17 -6 -39.5 -11.5t-48.5 -10.5t-54 -8t-56 -3q-65 0 -110.5 10.5t-74.5 33t-42 56t-13 80.5v325h-95v166l99 38l35 107h199v-145h185v-166h-185v-245q0 -43 15.5 -66t61.5 -23q33 0 53 5.5l42 11.5z" />
    <glyph glyph-name="Aacute" unicode="&#xc1;" horiz-adv-x="1712" 
d="M1110 424h-560l-63 -188l153 -37v-199h-608v201l145 35l481 1222h412l452 -1215l159 -38v-205h-674v205l164 38zM631 662h400l-185 554h-28zM856 1607l-106 126l372 298l142 -177z" />
    <glyph glyph-name="Abreve" unicode="&#x102;" horiz-adv-x="1712" 
d="M1110 424h-560l-63 -188l153 -37v-199h-608v201l145 35l481 1222h412l452 -1215l159 -38v-205h-674v205l164 38zM631 662h400l-185 554h-28zM1159 1881q0 -63 -24 -113.5t-65.5 -86t-97 -54.5t-118.5 -19t-117.5 19.5t-95 55.5t-63.5 86.5t-23 111.5l153 25
q2 -28 12 -52.5t29 -43t45.5 -29t61.5 -10.5q34 0 63.5 9.5t50.5 27.5t32.5 43t11.5 55l145 -25v0z" />
    <glyph glyph-name="Acircumflex" unicode="&#xc2;" horiz-adv-x="1712" 
d="M1110 424h-560l-63 -188l153 -37v-199h-608v201l145 35l481 1222h412l452 -1215l159 -38v-205h-674v205l164 38zM631 662h400l-185 554h-28zM939 1923l197 -238l-75 -75l-207 131l-207 -139l-78 76l191 245h179z" />
    <glyph glyph-name="Agrave" unicode="&#xc0;" horiz-adv-x="1712" 
d="M1110 424h-560l-63 -188l153 -37v-199h-608v201l145 35l481 1222h412l452 -1215l159 -38v-205h-674v205l164 38zM631 662h400l-185 554h-28zM447 1850l142 177l371 -298l-105 -127z" />
    <glyph glyph-name="Adieresis" unicode="&#xc4;" horiz-adv-x="1712" 
d="M1110 424h-560l-63 -188l153 -37v-199h-608v201l145 35l481 1222h412l452 -1215l159 -38v-205h-674v205l164 38zM631 662h400l-185 554h-28zM375 1824l193 193h27l193 -193v-27l-193 -193h-27l-193 193v27zM897 1824l193 193h27l193 -193v-27l-193 -193h-27l-193 193v27z
" />
    <glyph glyph-name="Amacron" unicode="&#x100;" horiz-adv-x="1712" 
d="M1110 424h-560l-63 -188l153 -37v-199h-608v201l145 35l481 1222h412l452 -1215l159 -38v-205h-674v205l164 38zM631 662h400l-185 554h-28zM613 1606v223h470v-223h-470z" />
    <glyph glyph-name="Aogonek" unicode="&#x104;" horiz-adv-x="1712" 
d="M1110 424h-560l-63 -188l153 -37v-199h-608v201l145 35l481 1222h412l452 -1215l159 -38v-205h-674v205l164 38zM631 662h400l-185 554h-28zM1719 -463q-49 -16 -100 -23t-112 -7q-49 0 -90 15t-71 43t-46.5 68.5t-16.5 92.5q0 40 17 81t41.5 77.5t51 66.5l44.5 49h208
l-45 -46t-38.5 -47t-26.5 -50.5t-10 -54.5q0 -51 28.5 -74t70.5 -23q30 0 52.5 2.5t42.5 7.5v-178v0z" />
    <glyph glyph-name="Aring" unicode="&#xc5;" horiz-adv-x="1712" 
d="M1110 424h-560l-63 -188l153 -37v-199h-608v201l145 35l481 1222h412l452 -1215l159 -38v-205h-674v205l164 38zM631 662h400l-185 554h-28zM1122 1855q0 -55 -21 -101t-57.5 -79.5t-85 -52.5t-103.5 -19t-103.5 18.5t-84.5 52t-57 80t-21 101.5t21 101.5t57 80
t84.5 52.5t103.5 19t103.5 -19t85 -52.5t57.5 -80t21 -101.5zM957 1855q0 21 -8 40t-22 33.5t-32.5 22.5t-39.5 8t-39.5 -8t-32.5 -22.5t-22 -33.5t-8 -40t8 -40t22 -33t32.5 -22.5t39.5 -8.5t39.5 8.5t32.5 22.5t22 33t8 40z" />
    <glyph glyph-name="Atilde" unicode="&#xc3;" horiz-adv-x="1712" 
d="M1110 424h-560l-63 -188l153 -37v-199h-608v201l145 35l481 1222h412l452 -1215l159 -38v-205h-674v205l164 38zM631 662h400l-185 554h-28zM1239 1690q-17 -15 -43 -31t-56 -29t-62 -21.5t-61 -8.5q-63 0 -102.5 15t-72.5 35l-33.5 19.5t-34.5 17t-39 12t-47 4.5
q-30 0 -58.5 -14t-60.5 -37l-81 168q48 42 103.5 67.5t117.5 25.5q33 0 59.5 -5.5t49 -14t42 -19.5l38.5 -21q30 -17 61.5 -30t75.5 -13q42 0 70.5 15t56.5 36l77 -171v0z" />
    <glyph glyph-name="AEacute" unicode="&#x1fc;" horiz-adv-x="2181" 
d="M2058 0h-1134v205l166 38v213h-381l-116 -220l139 -37v-199h-650v201l157 35l723 1222h1093v-442h-266l-44 204h-312v-352h401v-239h-401v-391h337l52 209h274zM1090 1178l-255 -483h255v483zM1466 1585l-106 126l372 298l142 -177z" />
    <glyph glyph-name="Cacute" unicode="&#x106;" horiz-adv-x="1485" 
d="M1324 264l29 -217q-30 -12 -79.5 -25.5t-112.5 -25t-137 -19t-153 -7.5q-194 0 -341 54t-246 152t-149 234.5t-50 301.5q0 65 13.5 147.5t47 169t90.5 169t144 147t208 104t283 39.5q77 0 150.5 -6t135.5 -15.5t109 -20.5t72 -20v-594h-250l-48 398q-11 3 -29.5 5.5
t-40 5t-44 3.5t-42.5 1q-123 0 -206.5 -44.5t-135.5 -117.5t-74.5 -166t-22.5 -190q0 -61 10 -123t32.5 -119t59 -106.5t90 -86.5t125 -58t163.5 -21q51 0 98.5 4t94.5 12t95.5 19t99.5 25zM869 1607l-106 126l372 298l142 -177z" />
    <glyph glyph-name="Ccaron" unicode="&#x10c;" horiz-adv-x="1485" 
d="M1324 264l29 -217q-30 -12 -79.5 -25.5t-112.5 -25t-137 -19t-153 -7.5q-194 0 -341 54t-246 152t-149 234.5t-50 301.5q0 65 13.5 147.5t47 169t90.5 169t144 147t208 104t283 39.5q77 0 150.5 -6t135.5 -15.5t109 -20.5t72 -20v-594h-250l-48 398q-11 3 -29.5 5.5
t-40 5t-44 3.5t-42.5 1q-123 0 -206.5 -44.5t-135.5 -117.5t-74.5 -166t-22.5 -190q0 -61 10 -123t32.5 -119t59 -106.5t90 -86.5t125 -58t163.5 -21q51 0 98.5 4t94.5 12t95.5 19t99.5 25zM773 1614l-191 245l78 76l207 -140l207 132l75 -75l-197 -238h-179z" />
    <glyph glyph-name="Ccedilla" unicode="&#xc7;" horiz-adv-x="1485" 
d="M1324 264l29 -217q-30 -12 -79.5 -25.5t-112.5 -25t-137 -19t-153 -7.5q-194 0 -341 54t-246 152t-149 234.5t-50 301.5q0 65 13.5 147.5t47 169t90.5 169t144 147t208 104t283 39.5q77 0 150.5 -6t135.5 -15.5t109 -20.5t72 -20v-594h-250l-48 398q-11 3 -29.5 5.5
t-40 5t-44 3.5t-42.5 1q-123 0 -206.5 -44.5t-135.5 -117.5t-74.5 -166t-22.5 -190q0 -61 10 -123t32.5 -119t59 -106.5t90 -86.5t125 -58t163.5 -21q51 0 98.5 4t94.5 12t95.5 19t99.5 25zM973 -99q20 -38 32 -70t12 -73q0 -44 -18 -84.5t-51.5 -77t-81 -67.5t-105.5 -55
l-88 101q25 22 44 43.5t32 45t20 50.5t7 61q0 38 -10.5 69t-27.5 57h235v0z" />
    <glyph glyph-name="Ccircumflex" unicode="&#x108;" horiz-adv-x="1485" 
d="M1324 264l29 -217q-30 -12 -79.5 -25.5t-112.5 -25t-137 -19t-153 -7.5q-194 0 -341 54t-246 152t-149 234.5t-50 301.5q0 65 13.5 147.5t47 169t90.5 169t144 147t208 104t283 39.5q77 0 150.5 -6t135.5 -15.5t109 -20.5t72 -20v-594h-250l-48 398q-11 3 -29.5 5.5
t-40 5t-44 3.5t-42.5 1q-123 0 -206.5 -44.5t-135.5 -117.5t-74.5 -166t-22.5 -190q0 -61 10 -123t32.5 -119t59 -106.5t90 -86.5t125 -58t163.5 -21q51 0 98.5 4t94.5 12t95.5 19t99.5 25zM953 1923l197 -238l-75 -75l-207 131l-207 -139l-78 76l191 245h179z" />
    <glyph glyph-name="Cdotaccent" unicode="&#x10a;" horiz-adv-x="1485" 
d="M1324 264l29 -217q-30 -12 -79.5 -25.5t-112.5 -25t-137 -19t-153 -7.5q-194 0 -341 54t-246 152t-149 234.5t-50 301.5q0 65 13.5 147.5t47 169t90.5 169t144 147t208 104t283 39.5q77 0 150.5 -6t135.5 -15.5t109 -20.5t72 -20v-594h-250l-48 398q-11 3 -29.5 5.5
t-40 5t-44 3.5t-42.5 1q-123 0 -206.5 -44.5t-135.5 -117.5t-74.5 -166t-22.5 -190q0 -61 10 -123t32.5 -119t59 -106.5t90 -86.5t125 -58t163.5 -21q51 0 98.5 4t94.5 12t95.5 19t99.5 25zM665 1824l193 193h27l193 -193v-27l-193 -193h-27l-193 193v27z" />
    <glyph glyph-name="Dcaron" unicode="&#x10e;" horiz-adv-x="1662" 
d="M1577 761q0 -182 -53.5 -323.5t-152.5 -239t-239.5 -148t-314.5 -50.5h-732v205l166 38v968l-167 36v211h753q168 0 305 -42.5t233.5 -128.5t149 -217t52.5 -309zM1225 743q0 58 -9.5 116.5t-31.5 111.5t-57.5 98.5t-87.5 79t-122 52.5t-160 19h-163v-982h167
q93 0 164 21t122.5 57.5t85.5 85.5t54.5 105t29 116.5t8.5 119.5zM613 1615l-191 245l78 76l207 -140l207 132l75 -75l-197 -238h-179z" />
    <glyph glyph-name="Dcroat" unicode="&#x110;" horiz-adv-x="1662" 
d="M1577 761q0 -182 -53.5 -323.5t-152.5 -239t-239.5 -148t-314.5 -50.5h-732v205l166 38v351h-144v223h144v394l-167 36v211h753q168 0 305 -42.5t233.5 -128.5t149 -217t52.5 -309zM1225 743q0 58 -9.5 116.5t-31.5 111.5t-57.5 98.5t-87.5 79t-122 52.5t-160 19h-163
v-982h167q93 0 164 21t122.5 57.5t85.5 85.5t54.5 105t29 116.5t8.5 119.5z" />
    <glyph glyph-name="Eacute" unicode="&#xc9;" horiz-adv-x="1350" 
d="M1218 0h-1132v205l165 38v969l-165 34v212h1130v-442h-241l-44 204h-337v-352h401v-239h-401v-391h363l72 209h248zM684 1609l-106 126l372 298l142 -177z" />
    <glyph glyph-name="Ebreve" unicode="&#x114;" horiz-adv-x="1350" 
d="M1218 0h-1132v205l165 38v969l-165 34v212h1130v-442h-241l-44 204h-337v-352h401v-239h-401v-391h363l72 209h248zM987 1882q0 -63 -24 -113.5t-65.5 -86t-97 -54.5t-118.5 -19t-117.5 19.5t-95 55.5t-63.5 86.5t-23 111.5l153 25q2 -28 12 -52.5t29 -43t45.5 -29
t61.5 -10.5q34 0 63.5 9.5t50.5 27.5t32.5 43t11.5 55l145 -25v0z" />
    <glyph glyph-name="Ecaron" unicode="&#x11a;" horiz-adv-x="1350" 
d="M1218 0h-1132v205l165 38v969l-165 34v212h1130v-442h-241l-44 204h-337v-352h401v-239h-401v-391h363l72 209h248zM588 1616l-191 245l78 76l207 -140l207 132l75 -75l-197 -238h-179z" />
    <glyph glyph-name="Ecircumflex" unicode="&#xca;" horiz-adv-x="1350" 
d="M1218 0h-1132v205l165 38v969l-165 34v212h1130v-442h-241l-44 204h-337v-352h401v-239h-401v-391h363l72 209h248zM767 1925l197 -238l-75 -75l-207 131l-207 -139l-78 76l191 245h179z" />
    <glyph glyph-name="Edieresis" unicode="&#xcb;" horiz-adv-x="1350" 
d="M1218 0h-1132v205l165 38v969l-165 34v212h1130v-442h-241l-44 204h-337v-352h401v-239h-401v-391h363l72 209h248zM203 1826l193 193h27l193 -193v-27l-193 -193h-27l-193 193v27zM725 1826l193 193h27l193 -193v-27l-193 -193h-27l-193 193v27z" />
    <glyph glyph-name="Edotaccent" unicode="&#x116;" horiz-adv-x="1350" 
d="M1218 0h-1132v205l165 38v969l-165 34v212h1130v-442h-241l-44 204h-337v-352h401v-239h-401v-391h363l72 209h248zM479 1826l193 193h27l193 -193v-27l-193 -193h-27l-193 193v27z" />
    <glyph glyph-name="Egrave" unicode="&#xc8;" horiz-adv-x="1350" 
d="M1218 0h-1132v205l165 38v969l-165 34v212h1130v-442h-241l-44 204h-337v-352h401v-239h-401v-391h363l72 209h248zM275 1852l142 177l371 -298l-105 -127z" />
    <glyph glyph-name="Emacron" unicode="&#x112;" horiz-adv-x="1350" 
d="M1218 0h-1132v205l165 38v969l-165 34v212h1130v-442h-241l-44 204h-337v-352h401v-239h-401v-391h363l72 209h248zM441 1608v223h470v-223h-470z" />
    <glyph glyph-name="Eogonek" unicode="&#x118;" horiz-adv-x="1350" 
d="M1218 0h-1132v205l165 38v969l-165 34v212h1130v-442h-241l-44 204h-337v-352h401v-239h-401v-391h363l72 209h248zM1209 -463q-49 -16 -100 -23t-112 -7q-49 0 -90 15t-71 43t-46.5 68.5t-16.5 92.5q0 40 17 81t41.5 77.5t51 66.5l44.5 49h208l-45 -46t-38.5 -47
t-26.5 -50.5t-10 -54.5q0 -51 28.5 -74t70.5 -23q30 0 52.5 2.5t42.5 7.5v-178v0z" />
    <glyph glyph-name="Gbreve" unicode="&#x11e;" horiz-adv-x="1555" 
d="M1403 32q-27 -9 -77 -19.5t-116.5 -20t-147.5 -16t-170 -6.5q-202 0 -353 54.5t-251.5 154t-151 239t-50.5 309.5q0 61 13.5 141.5t47 165t90.5 166t145 145.5t209.5 103.5t283.5 39.5q110 0 198 -8t153 -19t106.5 -22.5t59.5 -17.5v-487h-250l-48 295q-25 6 -79.5 11
t-123.5 5q-125 0 -210 -45t-137.5 -118t-75 -166t-22.5 -189q0 -61 10 -123t33 -119t60 -106.5t91 -86.5t126.5 -58t166.5 -21q43 0 75 3.5t52 5.5v254l-167 36v211h510v-691zM1182 1881q0 -63 -24 -113.5t-65.5 -86t-97 -54.5t-118.5 -19t-117.5 19.5t-95 55.5t-63.5 86.5
t-23 111.5l153 25q2 -28 12 -52.5t29 -43t45.5 -29t61.5 -10.5q34 0 63.5 9.5t50.5 27.5t32.5 43t11.5 55l145 -25v0z" />
    <glyph glyph-name="Gcircumflex" unicode="&#x11c;" horiz-adv-x="1555" 
d="M1403 32q-27 -9 -77 -19.5t-116.5 -20t-147.5 -16t-170 -6.5q-202 0 -353 54.5t-251.5 154t-151 239t-50.5 309.5q0 61 13.5 141.5t47 165t90.5 166t145 145.5t209.5 103.5t283.5 39.5q110 0 198 -8t153 -19t106.5 -22.5t59.5 -17.5v-487h-250l-48 295q-25 6 -79.5 11
t-123.5 5q-125 0 -210 -45t-137.5 -118t-75 -166t-22.5 -189q0 -61 10 -123t33 -119t60 -106.5t91 -86.5t126.5 -58t166.5 -21q43 0 75 3.5t52 5.5v254l-167 36v211h510v-691zM962 1923l197 -238l-75 -75l-207 131l-207 -139l-78 76l191 245h179z" />
    <glyph glyph-name="Gcommaaccent" unicode="&#x122;" horiz-adv-x="1555" 
d="M1403 32q-27 -9 -77 -19.5t-116.5 -20t-147.5 -16t-170 -6.5q-202 0 -353 54.5t-251.5 154t-151 239t-50.5 309.5q0 61 13.5 141.5t47 165t90.5 166t145 145.5t209.5 103.5t283.5 39.5q110 0 198 -8t153 -19t106.5 -22.5t59.5 -17.5v-487h-250l-48 295q-25 6 -79.5 11
t-123.5 5q-125 0 -210 -45t-137.5 -118t-75 -166t-22.5 -189q0 -61 10 -123t33 -119t60 -106.5t91 -86.5t126.5 -58t166.5 -21q43 0 75 3.5t52 5.5v254l-167 36v211h510v-691zM1005 -291q0 -85 -46.5 -155.5t-149.5 -138.5l-69 80q35 34 57 66.5t24 77.5h-74v253h258v-183z
" />
    <glyph glyph-name="Gdotaccent" unicode="&#x120;" horiz-adv-x="1555" 
d="M1403 32q-27 -9 -77 -19.5t-116.5 -20t-147.5 -16t-170 -6.5q-202 0 -353 54.5t-251.5 154t-151 239t-50.5 309.5q0 61 13.5 141.5t47 165t90.5 166t145 145.5t209.5 103.5t283.5 39.5q110 0 198 -8t153 -19t106.5 -22.5t59.5 -17.5v-487h-250l-48 295q-25 6 -79.5 11
t-123.5 5q-125 0 -210 -45t-137.5 -118t-75 -166t-22.5 -189q0 -61 10 -123t33 -119t60 -106.5t91 -86.5t126.5 -58t166.5 -21q43 0 75 3.5t52 5.5v254l-167 36v211h510v-691zM674 1824l193 193h27l193 -193v-27l-193 -193h-27l-193 193v27z" />
    <glyph glyph-name="Hbar" unicode="&#x126;" horiz-adv-x="1754" 
d="M1503 1211v-968l167 -38v-205h-674v205l164 38v386h-566v-386l164 -38v-205h-674v205l167 38v968l-167 36v211h674v-211l-164 -36v-62h566v62l-164 36v211h674v-211zM1160 868v100h-566v-100h566z" />
    <glyph glyph-name="Hcircumflex" unicode="&#x124;" horiz-adv-x="1754" 
d="M1503 1211v-968l167 -38v-205h-674v205l164 38v386h-566v-386l164 -38v-205h-674v205l167 38v968l-167 36v211h674v-211l-164 -36v-343h566v343l-164 36v211h674v-211zM964 1924l197 -238l-75 -75l-207 131l-207 -139l-78 76l191 245h179z" />
    <glyph glyph-name="Iacute" unicode="&#xcd;" horiz-adv-x="844" 
d="M594 1211v-968l167 -38v-205h-677v205l167 38v968l-167 36v211h677v-211zM422 1607l-106 126l372 298l142 -177z" />
    <glyph glyph-name="Ibreve" unicode="&#x12c;" horiz-adv-x="844" 
d="M594 1211v-968l167 -38v-205h-677v205l167 38v968l-167 36v211h677v-211zM726 1881q0 -63 -24 -113.5t-65.5 -86t-97 -54.5t-118.5 -19t-117.5 19.5t-95 55.5t-63.5 86.5t-23 111.5l153 25q2 -28 12 -52.5t29 -43t45.5 -29t61.5 -10.5q34 0 63.5 9.5t50.5 27.5t32.5 43
t11.5 55l145 -25v0z" />
    <glyph glyph-name="Icircumflex" unicode="&#xce;" horiz-adv-x="844" 
d="M594 1211v-968l167 -38v-205h-677v205l167 38v968l-167 36v211h677v-211zM506 1923l197 -238l-75 -75l-207 131l-207 -139l-78 76l191 245h179z" />
    <glyph glyph-name="Idieresis" unicode="&#xcf;" horiz-adv-x="844" 
d="M594 1211v-968l167 -38v-205h-677v205l167 38v968l-167 36v211h677v-211zM-59 1824l193 193h27l193 -193v-27l-193 -193h-27l-193 193v27zM463 1824l193 193h27l193 -193v-27l-193 -193h-27l-193 193v27z" />
    <glyph glyph-name="Idotaccent" unicode="&#x130;" horiz-adv-x="844" 
d="M594 1211v-968l167 -38v-205h-677v205l167 38v968l-167 36v211h677v-211zM218 1824l193 193h27l193 -193v-27l-193 -193h-27l-193 193v27z" />
    <glyph glyph-name="Igrave" unicode="&#xcc;" horiz-adv-x="844" 
d="M594 1211v-968l167 -38v-205h-677v205l167 38v968l-167 36v211h677v-211zM14 1850l142 177l371 -298l-105 -127z" />
    <glyph glyph-name="Imacron" unicode="&#x12a;" horiz-adv-x="844" 
d="M594 1211v-968l167 -38v-205h-677v205l167 38v968l-167 36v211h677v-211zM180 1606v223h470v-223h-470z" />
    <glyph glyph-name="Iogonek" unicode="&#x12e;" horiz-adv-x="844" 
d="M594 1211v-968l167 -38v-205h-677v205l167 38v968l-167 36v211h677v-211zM607 -463q-49 -16 -100 -23t-112 -7q-49 0 -90 15t-71 43t-46.5 68.5t-16.5 92.5q0 40 17 81t41.5 77.5t51 66.5l44.5 49h208l-45 -46t-38.5 -47t-26.5 -50.5t-10 -54.5q0 -51 28.5 -74t70.5 -23
q30 0 52.5 2.5t42.5 7.5v-178v0z" />
    <glyph glyph-name="Itilde" unicode="&#x128;" horiz-adv-x="844" 
d="M594 1211v-968l167 -38v-205h-677v205l167 38v968l-167 36v211h677v-211zM806 1690q-17 -15 -43 -31t-56 -29t-62 -21.5t-61 -8.5q-63 0 -102.5 15t-72.5 35l-33.5 19.5t-34.5 17t-39 12t-47 4.5q-30 0 -58.5 -14t-60.5 -37l-81 168q48 42 103.5 67.5t117.5 25.5
q33 0 59.5 -5.5t49 -14t42 -19.5l38.5 -21q30 -17 61.5 -30t75.5 -13q42 0 70.5 15t56.5 36l77 -171v0z" />
    <glyph glyph-name="IJ" unicode="&#x132;" horiz-adv-x="1621" 
d="M594 1211v-968l167 -38v-205h-677v205l167 38v968l-167 36v211h677v-211zM747 -163q81 6 140.5 31t99 64t58.5 88.5t19 103.5l-1 1087l-187 36v211h697v-211l-167 -36v-1088q0 -135 -42.5 -233.5t-124 -162t-200.5 -92.5t-272 -26l-30 213z" />
    <glyph glyph-name="Jcircumflex" unicode="&#x134;" horiz-adv-x="777" 
d="M-97 -163q81 6 140.5 31t99 64t58.5 88.5t19 103.5l-1 1087l-187 36v211h697v-211l-167 -36v-1088q0 -135 -42.5 -233.5t-124 -162t-200.5 -92.5t-272 -26l-30 213zM472 1923l197 -238l-75 -75l-207 131l-207 -139l-78 76l191 245h179z" />
    <glyph glyph-name="Kcommaaccent" unicode="&#x136;" horiz-adv-x="1652" 
d="M1195 0l-368 665l-242 -215v-207l169 -38v-205h-670v205l167 38v968l-167 36v211h655v-212l-154 -35v-466l481 466l-117 36v211h638v-216l-148 -32l-370 -337l359 -608l178 -34v-231h-411zM1032 -292q0 -85 -46.5 -155.5t-149.5 -138.5l-69 80q35 34 57 66.5t24 77.5h-74
v253h258v-183z" />
    <glyph glyph-name="Lacute" unicode="&#x139;" horiz-adv-x="1249" 
d="M1172 0h-1088v205l167 38v968l-167 36v211h697v-211l-187 -36v-973h316l52 209h248zM424 1607l-106 126l372 298l142 -177z" />
    <glyph glyph-name="Lcaron" unicode="&#x13d;" horiz-adv-x="1345" 
d="M1172 0h-1088v205l167 38v968l-167 36v211h697v-211l-187 -36v-973h316l52 209h248zM964 1343l163 164q58 -9 104 -35q19 -11 38 -27.5t34 -39.5t24 -53t9 -68q0 -74 -22 -139.5t-61 -121t-91 -102t-112 -82.5l-84 99q24 23 51 52t50 60.5t39 64.5t18 64l-160 136v28z
" />
    <glyph glyph-name="Lcommaaccent" unicode="&#x13b;" horiz-adv-x="1249" 
d="M1172 0h-1088v205l167 38v968l-167 36v211h697v-211l-187 -36v-973h316l52 209h248zM810 -278q0 -85 -46.5 -155.5t-149.5 -138.5l-69 80q35 34 57 66.5t24 77.5h-74v253h258v-183z" />
    <glyph glyph-name="Ldot" unicode="&#x13f;" horiz-adv-x="1249" 
d="M1088 661h-283v278h283v-278zM1172 0h-1088v205l167 38v968l-167 36v211h697v-211l-187 -36v-973h316l52 209h248z" />
    <glyph glyph-name="Lslash" unicode="&#x141;" horiz-adv-x="1249" 
d="M1172 0h-1088v205l167 38v263l-149 -52v282l149 52v423l-167 36v211h697v-211l-187 -36v-304l173 61v-282l-173 -61v-387h316l52 209h248z" />
    <glyph glyph-name="Nacute" unicode="&#x143;" horiz-adv-x="1807" 
d="M1559 1208v-1208h-334l-623 945l-65 127h-15l6 -144v-685l165 -38v-205h-609v205l167 38v965l-196 38v212h598l550 -871l73 -144h14l-8 170v595l-172 38v212h623v-211zM893 1609l-106 126l372 298l142 -177z" />
    <glyph glyph-name="Ncaron" unicode="&#x147;" horiz-adv-x="1807" 
d="M1559 1208v-1208h-334l-623 945l-65 127h-15l6 -144v-685l165 -38v-205h-609v205l167 38v965l-196 38v212h598l550 -871l73 -144h14l-8 170v595l-172 38v212h623v-211zM797 1616l-191 245l78 76l207 -140l207 132l75 -75l-197 -238h-179z" />
    <glyph glyph-name="Ncommaaccent" unicode="&#x145;" horiz-adv-x="1807" 
d="M1559 1208v-1208h-334l-623 945l-65 127h-15l6 -144v-685l165 -38v-205h-609v205l167 38v965l-196 38v212h598l550 -871l73 -144h14l-8 170v595l-172 38v212h623v-211zM1071 -252q0 -85 -46.5 -155.5t-149.5 -138.5l-69 80q35 34 57 66.5t24 77.5h-74v253h258v-183z" />
    <glyph glyph-name="Ntilde" unicode="&#xd1;" horiz-adv-x="1807" 
d="M1559 1208v-1208h-334l-623 945l-65 127h-15l6 -144v-685l165 -38v-205h-609v205l167 38v965l-196 38v212h598l550 -871l73 -144h14l-8 170v595l-172 38v212h623v-211zM1277 1692q-17 -15 -43 -31t-56 -29t-62 -21.5t-61 -8.5q-63 0 -102.5 15t-72.5 35l-33.5 19.5
t-34.5 17t-39 12t-47 4.5q-30 0 -58.5 -14t-60.5 -37l-81 168q48 42 103.5 67.5t117.5 25.5q33 0 59.5 -5.5t49 -14t42 -19.5l38.5 -21q30 -17 61.5 -30t75.5 -13q42 0 70.5 15t56.5 36l77 -171v0z" />
    <glyph glyph-name="Oacute" unicode="&#xd3;" horiz-adv-x="1627" 
d="M1541 725q0 -169 -43.5 -308t-133.5 -238.5t-227.5 -154t-326.5 -54.5q-186 0 -322.5 54.5t-225.5 154t-132.5 239.5t-43.5 310t43.5 310t133 240t226 155t323.5 55t324.5 -55t227.5 -155t133.5 -241t43.5 -312zM1189 727q0 112 -20 207t-64.5 164t-116.5 108t-176 39
q-103 0 -174 -39t-115.5 -108t-64.5 -164t-20 -206q0 -112 20 -206.5t64 -163t115 -107t173 -38.5q105 0 177 38.5t117 107t65 163t20 205.5zM812 1610l-106 126l372 298l142 -177z" />
    <glyph glyph-name="Obreve" unicode="&#x14e;" horiz-adv-x="1627" 
d="M1541 725q0 -169 -43.5 -308t-133.5 -238.5t-227.5 -154t-326.5 -54.5q-186 0 -322.5 54.5t-225.5 154t-132.5 239.5t-43.5 310t43.5 310t133 240t226 155t323.5 55t324.5 -55t227.5 -155t133.5 -241t43.5 -312zM1189 727q0 112 -20 207t-64.5 164t-116.5 108t-176 39
q-103 0 -174 -39t-115.5 -108t-64.5 -164t-20 -206q0 -112 20 -206.5t64 -163t115 -107t173 -38.5q105 0 177 38.5t117 107t65 163t20 205.5zM1116 1884q0 -63 -24 -113.5t-65.5 -86t-97 -54.5t-118.5 -19t-117.5 19.5t-95 55.5t-63.5 86.5t-23 111.5l153 25q2 -28 12 -52.5
t29 -43t45.5 -29t61.5 -10.5q34 0 63.5 9.5t50.5 27.5t32.5 43t11.5 55l145 -25v0z" />
    <glyph glyph-name="Ocircumflex" unicode="&#xd4;" horiz-adv-x="1627" 
d="M1541 725q0 -169 -43.5 -308t-133.5 -238.5t-227.5 -154t-326.5 -54.5q-186 0 -322.5 54.5t-225.5 154t-132.5 239.5t-43.5 310t43.5 310t133 240t226 155t323.5 55t324.5 -55t227.5 -155t133.5 -241t43.5 -312zM1189 727q0 112 -20 207t-64.5 164t-116.5 108t-176 39
q-103 0 -174 -39t-115.5 -108t-64.5 -164t-20 -206q0 -112 20 -206.5t64 -163t115 -107t173 -38.5q105 0 177 38.5t117 107t65 163t20 205.5zM896 1927l197 -238l-75 -75l-207 131l-207 -139l-78 76l191 245h179z" />
    <glyph glyph-name="Odieresis" unicode="&#xd6;" horiz-adv-x="1627" 
d="M1541 725q0 -169 -43.5 -308t-133.5 -238.5t-227.5 -154t-326.5 -54.5q-186 0 -322.5 54.5t-225.5 154t-132.5 239.5t-43.5 310t43.5 310t133 240t226 155t323.5 55t324.5 -55t227.5 -155t133.5 -241t43.5 -312zM1189 727q0 112 -20 207t-64.5 164t-116.5 108t-176 39
q-103 0 -174 -39t-115.5 -108t-64.5 -164t-20 -206q0 -112 20 -206.5t64 -163t115 -107t173 -38.5q105 0 177 38.5t117 107t65 163t20 205.5zM331 1827l193 193h27l193 -193v-27l-193 -193h-27l-193 193v27zM853 1827l193 193h27l193 -193v-27l-193 -193h-27l-193 193v27z
" />
    <glyph glyph-name="Ograve" unicode="&#xd2;" horiz-adv-x="1627" 
d="M1541 725q0 -169 -43.5 -308t-133.5 -238.5t-227.5 -154t-326.5 -54.5q-186 0 -322.5 54.5t-225.5 154t-132.5 239.5t-43.5 310t43.5 310t133 240t226 155t323.5 55t324.5 -55t227.5 -155t133.5 -241t43.5 -312zM1189 727q0 112 -20 207t-64.5 164t-116.5 108t-176 39
q-103 0 -174 -39t-115.5 -108t-64.5 -164t-20 -206q0 -112 20 -206.5t64 -163t115 -107t173 -38.5q105 0 177 38.5t117 107t65 163t20 205.5zM404 1853l142 177l371 -298l-105 -127z" />
    <glyph glyph-name="Ohungarumlaut" unicode="&#x150;" horiz-adv-x="1627" 
d="M1541 725q0 -169 -43.5 -308t-133.5 -238.5t-227.5 -154t-326.5 -54.5q-186 0 -322.5 54.5t-225.5 154t-132.5 239.5t-43.5 310t43.5 310t133 240t226 155t323.5 55t324.5 -55t227.5 -155t133.5 -241t43.5 -312zM1189 727q0 112 -20 207t-64.5 164t-116.5 108t-176 39
q-103 0 -174 -39t-115.5 -108t-64.5 -164t-20 -206q0 -112 20 -206.5t64 -163t115 -107t173 -38.5q105 0 177 38.5t117 107t65 163t20 205.5zM537 1609l-105 127l371 297l142 -177zM1100 1609l-106 127l372 297l142 -177z" />
    <glyph glyph-name="Omacron" unicode="&#x14c;" horiz-adv-x="1627" 
d="M1541 725q0 -169 -43.5 -308t-133.5 -238.5t-227.5 -154t-326.5 -54.5q-186 0 -322.5 54.5t-225.5 154t-132.5 239.5t-43.5 310t43.5 310t133 240t226 155t323.5 55t324.5 -55t227.5 -155t133.5 -241t43.5 -312zM1189 727q0 112 -20 207t-64.5 164t-116.5 108t-176 39
q-103 0 -174 -39t-115.5 -108t-64.5 -164t-20 -206q0 -112 20 -206.5t64 -163t115 -107t173 -38.5q105 0 177 38.5t117 107t65 163t20 205.5zM570 1609v223h470v-223h-470z" />
    <glyph glyph-name="Oslashacute" unicode="&#x1fe;" horiz-adv-x="1627" 
d="M1541 725q0 -169 -43.5 -308t-133.5 -238.5t-227.5 -154t-326.5 -54.5q-100 0 -185 16.5t-157 46.5l-99 -151l-161 108l96 146q-112 100 -165 250.5t-53 341.5q0 170 43.5 310t133 240t226 155t323.5 55q101 0 186.5 -16t157.5 -47l91 137l160 -106l-88 -134
q113 -101 167.5 -253t54.5 -344zM1189 727q0 91 -13 170.5t-42 144.5l-515 -780q78 -49 191 -49q105 0 177 38.5t117 107t65 163t20 205.5zM438 728q0 -91 12.5 -169t39.5 -142l515 779q-78 49 -193 49q-103 0 -174 -39t-115.5 -108t-64.5 -164t-20 -206zM812 1593l-106 126
l372 298l142 -177z" />
    <glyph glyph-name="Otilde" unicode="&#xd5;" horiz-adv-x="1627" 
d="M1541 725q0 -169 -43.5 -308t-133.5 -238.5t-227.5 -154t-326.5 -54.5q-186 0 -322.5 54.5t-225.5 154t-132.5 239.5t-43.5 310t43.5 310t133 240t226 155t323.5 55t324.5 -55t227.5 -155t133.5 -241t43.5 -312zM1189 727q0 112 -20 207t-64.5 164t-116.5 108t-176 39
q-103 0 -174 -39t-115.5 -108t-64.5 -164t-20 -206q0 -112 20 -206.5t64 -163t115 -107t173 -38.5q105 0 177 38.5t117 107t65 163t20 205.5zM1196 1694q-17 -15 -43 -31t-56 -29t-62 -21.5t-61 -8.5q-63 0 -102.5 15t-72.5 35l-33.5 19.5t-34.5 17t-39 12t-47 4.5
q-30 0 -58.5 -14t-60.5 -37l-81 168q48 42 103.5 67.5t117.5 25.5q33 0 59.5 -5.5t49 -14t42 -19.5l38.5 -21q30 -17 61.5 -30t75.5 -13q42 0 70.5 15t56.5 36l77 -171v0z" />
    <glyph glyph-name="Racute" unicode="&#x154;" horiz-adv-x="1500" 
d="M1336 1047q0 -77 -23 -139.5t-61.5 -111.5t-90 -85.5t-108.5 -61.5l261 -410l136 -33v-206h-413l-294 586h-158v-343l174 -38v-205h-675v205l167 38v968l-167 36v211h718q136 0 236.5 -29t166.5 -82t98.5 -129.5t32.5 -170.5zM985 1028q0 46 -13.5 82t-43.5 60.5t-78 37
t-117 12.5h-148v-400h164q61 0 106 15t73.5 42.5t42.5 65.5t14 85zM653 1610l-106 126l372 298l142 -177z" />
    <glyph glyph-name="Rcaron" unicode="&#x158;" horiz-adv-x="1500" 
d="M1336 1047q0 -77 -23 -139.5t-61.5 -111.5t-90 -85.5t-108.5 -61.5l261 -410l136 -33v-206h-413l-294 586h-158v-343l174 -38v-205h-675v205l167 38v968l-167 36v211h718q136 0 236.5 -29t166.5 -82t98.5 -129.5t32.5 -170.5zM985 1028q0 46 -13.5 82t-43.5 60.5t-78 37
t-117 12.5h-148v-400h164q61 0 106 15t73.5 42.5t42.5 65.5t14 85zM572 1617l-191 245l78 76l207 -140l207 132l75 -75l-197 -238h-179z" />
    <glyph glyph-name="Rcommaaccent" unicode="&#x156;" horiz-adv-x="1500" 
d="M1336 1047q0 -77 -23 -139.5t-61.5 -111.5t-90 -85.5t-108.5 -61.5l261 -410l136 -33v-206h-413l-294 586h-158v-343l174 -38v-205h-675v205l167 38v968l-167 36v211h718q136 0 236.5 -29t166.5 -82t98.5 -129.5t32.5 -170.5zM985 1028q0 46 -13.5 82t-43.5 60.5t-78 37
t-117 12.5h-148v-400h164q61 0 106 15t73.5 42.5t42.5 65.5t14 85zM963 -292q0 -85 -46.5 -155.5t-149.5 -138.5l-69 80q35 34 57 66.5t24 77.5h-74v253h258v-183z" />
    <glyph glyph-name="Sacute" unicode="&#x15a;" horiz-adv-x="1316" 
d="M1229 430q0 -111 -43 -196.5t-120.5 -144t-185.5 -89t-238 -30.5q-74 0 -149 4t-145.5 12.5t-132.5 20.5t-110 27v423h250l48 -224q12 -3 40 -6.5t63.5 -6.5t74.5 -5t73 -2q38 0 77.5 7.5t72 27t53 52t20.5 83.5q0 43 -17 74.5t-51.5 57.5t-87 48.5t-124.5 47.5
q-128 44 -220 86.5t-151 92.5t-87.5 112.5t-28.5 146.5q0 91 26 159t71 117t104.5 80.5t126.5 50t137.5 25.5t137.5 7q66 0 132 -5t126.5 -14t113.5 -20.5t93 -24.5v-387h-258l-40 192q-9 2 -27.5 5t-42 5.5t-49.5 4t-50 1.5q-69 0 -116.5 -9t-77 -27t-42.5 -45.5t-13 -63.5
q0 -39 16.5 -69t48 -54t77 -44.5t103.5 -41.5q135 -50 233.5 -91.5t162.5 -91.5t95 -115.5t31 -162.5zM711 1607l-106 126l372 298l142 -177z" />
    <glyph glyph-name="Scaron" unicode="&#x160;" horiz-adv-x="1316" 
d="M1229 430q0 -111 -43 -196.5t-120.5 -144t-185.5 -89t-238 -30.5q-74 0 -149 4t-145.5 12.5t-132.5 20.5t-110 27v423h250l48 -224q12 -3 40 -6.5t63.5 -6.5t74.5 -5t73 -2q38 0 77.5 7.5t72 27t53 52t20.5 83.5q0 43 -17 74.5t-51.5 57.5t-87 48.5t-124.5 47.5
q-128 44 -220 86.5t-151 92.5t-87.5 112.5t-28.5 146.5q0 91 26 159t71 117t104.5 80.5t126.5 50t137.5 25.5t137.5 7q66 0 132 -5t126.5 -14t113.5 -20.5t93 -24.5v-387h-258l-40 192q-9 2 -27.5 5t-42 5.5t-49.5 4t-50 1.5q-69 0 -116.5 -9t-77 -27t-42.5 -45.5t-13 -63.5
q0 -39 16.5 -69t48 -54t77 -44.5t103.5 -41.5q135 -50 233.5 -91.5t162.5 -91.5t95 -115.5t31 -162.5zM615 1614l-191 245l78 76l207 -140l207 132l75 -75l-197 -238h-179z" />
    <glyph glyph-name="Scedilla" unicode="&#x15e;" horiz-adv-x="1316" 
d="M1229 430q0 -111 -43 -196.5t-120.5 -144t-185.5 -89t-238 -30.5q-74 0 -149 4t-145.5 12.5t-132.5 20.5t-110 27v423h250l48 -224q12 -3 40 -6.5t63.5 -6.5t74.5 -5t73 -2q38 0 77.5 7.5t72 27t53 52t20.5 83.5q0 43 -17 74.5t-51.5 57.5t-87 48.5t-124.5 47.5
q-128 44 -220 86.5t-151 92.5t-87.5 112.5t-28.5 146.5q0 91 26 159t71 117t104.5 80.5t126.5 50t137.5 25.5t137.5 7q66 0 132 -5t126.5 -14t113.5 -20.5t93 -24.5v-387h-258l-40 192q-9 2 -27.5 5t-42 5.5t-49.5 4t-50 1.5q-69 0 -116.5 -9t-77 -27t-42.5 -45.5t-13 -63.5
q0 -39 16.5 -69t48 -54t77 -44.5t103.5 -41.5q135 -50 233.5 -91.5t162.5 -91.5t95 -115.5t31 -162.5zM755 -111q20 -38 32 -70t12 -73q0 -44 -18 -84.5t-51.5 -77t-81 -67.5t-105.5 -55l-88 101q25 22 44 43.5t32 45t20 50.5t7 61q0 38 -10.5 69t-27.5 57h235v0z" />
    <glyph glyph-name="Scircumflex" unicode="&#x15c;" horiz-adv-x="1316" 
d="M1229 430q0 -111 -43 -196.5t-120.5 -144t-185.5 -89t-238 -30.5q-74 0 -149 4t-145.5 12.5t-132.5 20.5t-110 27v423h250l48 -224q12 -3 40 -6.5t63.5 -6.5t74.5 -5t73 -2q38 0 77.5 7.5t72 27t53 52t20.5 83.5q0 43 -17 74.5t-51.5 57.5t-87 48.5t-124.5 47.5
q-128 44 -220 86.5t-151 92.5t-87.5 112.5t-28.5 146.5q0 91 26 159t71 117t104.5 80.5t126.5 50t137.5 25.5t137.5 7q66 0 132 -5t126.5 -14t113.5 -20.5t93 -24.5v-387h-258l-40 192q-9 2 -27.5 5t-42 5.5t-49.5 4t-50 1.5q-69 0 -116.5 -9t-77 -27t-42.5 -45.5t-13 -63.5
q0 -39 16.5 -69t48 -54t77 -44.5t103.5 -41.5q135 -50 233.5 -91.5t162.5 -91.5t95 -115.5t31 -162.5zM795 1923l197 -238l-75 -75l-207 131l-207 -139l-78 76l191 245h179z" />
    <glyph glyph-name="Scommaaccent" unicode="&#x218;" horiz-adv-x="1316" 
d="M1229 430q0 -111 -43 -196.5t-120.5 -144t-185.5 -89t-238 -30.5q-74 0 -149 4t-145.5 12.5t-132.5 20.5t-110 27v423h250l48 -224q12 -3 40 -6.5t63.5 -6.5t74.5 -5t73 -2q38 0 77.5 7.5t72 27t53 52t20.5 83.5q0 43 -17 74.5t-51.5 57.5t-87 48.5t-124.5 47.5
q-128 44 -220 86.5t-151 92.5t-87.5 112.5t-28.5 146.5q0 91 26 159t71 117t104.5 80.5t126.5 50t137.5 25.5t137.5 7q66 0 132 -5t126.5 -14t113.5 -20.5t93 -24.5v-387h-258l-40 192q-9 2 -27.5 5t-42 5.5t-49.5 4t-50 1.5q-69 0 -116.5 -9t-77 -27t-42.5 -45.5t-13 -63.5
q0 -39 16.5 -69t48 -54t77 -44.5t103.5 -41.5q135 -50 233.5 -91.5t162.5 -91.5t95 -115.5t31 -162.5zM783 -317q0 -85 -46.5 -155.5t-149.5 -138.5l-69 80q35 34 57 66.5t24 77.5h-74v253h258v-183z" />
    <glyph glyph-name="Tbar" unicode="&#x166;" horiz-adv-x="1439" 
d="M1142 1002l-46 218h-205v-420h160v-224h-160v-333l167 -38v-205h-677v205l167 38v333h-166v224h166v420h-205l-45 -218h-251v456h1345v-456h-250z" />
    <glyph glyph-name="Tcaron" unicode="&#x164;" horiz-adv-x="1439" 
d="M1142 1002l-46 218h-205v-977l167 -38v-205h-677v205l167 38v977h-205l-45 -218h-251v456h1345v-456h-250zM628 1616l-191 245l78 76l207 -140l207 132l75 -75l-197 -238h-179z" />
    <glyph glyph-name="Tcommaaccent" unicode="&#x162;" horiz-adv-x="1439" 
d="M1142 1002l-46 218h-205v-977l167 -38v-205h-677v205l167 38v977h-205l-45 -218h-251v456h1345v-456h-250zM864 -269q0 -85 -46.5 -155.5t-149.5 -138.5l-69 80q35 34 57 66.5t24 77.5h-74v253h258v-183z" />
    <glyph glyph-name="Uacute" unicode="&#xda;" horiz-adv-x="1681" 
d="M1466 1211v-647q0 -152 -40.5 -264t-120.5 -185.5t-199 -109t-275 -35.5q-159 0 -275 34.5t-191.5 106.5t-112.5 182t-37 261v657l-167 36v211h674v-211l-163 -36v-644q0 -79 13.5 -144.5t48 -112t94.5 -72t153 -25.5q68 0 118 15.5t85 42t56.5 62t33.5 76t16.5 83.5
t4.5 85v634l-164 36v211h614v-211zM862 1610l-106 126l372 298l142 -177z" />
    <glyph glyph-name="Ubreve" unicode="&#x16c;" horiz-adv-x="1681" 
d="M1466 1211v-647q0 -152 -40.5 -264t-120.5 -185.5t-199 -109t-275 -35.5q-159 0 -275 34.5t-191.5 106.5t-112.5 182t-37 261v657l-167 36v211h674v-211l-163 -36v-644q0 -79 13.5 -144.5t48 -112t94.5 -72t153 -25.5q68 0 118 15.5t85 42t56.5 62t33.5 76t16.5 83.5
t4.5 85v634l-164 36v211h614v-211zM1185 1883q0 -63 -24 -113.5t-65.5 -86t-97 -54.5t-118.5 -19t-117.5 19.5t-95 55.5t-63.5 86.5t-23 111.5l153 25q2 -28 12 -52.5t29 -43t45.5 -29t61.5 -10.5q34 0 63.5 9.5t50.5 27.5t32.5 43t11.5 55l145 -25v0z" />
    <glyph glyph-name="Ucircumflex" unicode="&#xdb;" horiz-adv-x="1681" 
d="M1466 1211v-647q0 -152 -40.5 -264t-120.5 -185.5t-199 -109t-275 -35.5q-159 0 -275 34.5t-191.5 106.5t-112.5 182t-37 261v657l-167 36v211h674v-211l-163 -36v-644q0 -79 13.5 -144.5t48 -112t94.5 -72t153 -25.5q68 0 118 15.5t85 42t56.5 62t33.5 76t16.5 83.5
t4.5 85v634l-164 36v211h614v-211zM948 1926l197 -238l-75 -75l-207 131l-207 -139l-78 76l191 245h179z" />
    <glyph glyph-name="Udieresis" unicode="&#xdc;" horiz-adv-x="1681" 
d="M1466 1211v-647q0 -152 -40.5 -264t-120.5 -185.5t-199 -109t-275 -35.5q-159 0 -275 34.5t-191.5 106.5t-112.5 182t-37 261v657l-167 36v211h674v-211l-163 -36v-644q0 -79 13.5 -144.5t48 -112t94.5 -72t153 -25.5q68 0 118 15.5t85 42t56.5 62t33.5 76t16.5 83.5
t4.5 85v634l-164 36v211h614v-211zM383 1827l193 193h27l193 -193v-27l-193 -193h-27l-193 193v27zM905 1827l193 193h27l193 -193v-27l-193 -193h-27l-193 193v27z" />
    <glyph glyph-name="Ugrave" unicode="&#xd9;" horiz-adv-x="1681" 
d="M1466 1211v-647q0 -152 -40.5 -264t-120.5 -185.5t-199 -109t-275 -35.5q-159 0 -275 34.5t-191.5 106.5t-112.5 182t-37 261v657l-167 36v211h674v-211l-163 -36v-644q0 -79 13.5 -144.5t48 -112t94.5 -72t153 -25.5q68 0 118 15.5t85 42t56.5 62t33.5 76t16.5 83.5
t4.5 85v634l-164 36v211h614v-211zM456 1853l142 177l371 -298l-105 -127z" />
    <glyph glyph-name="Uhungarumlaut" unicode="&#x170;" horiz-adv-x="1681" 
d="M1466 1211v-647q0 -152 -40.5 -264t-120.5 -185.5t-199 -109t-275 -35.5q-159 0 -275 34.5t-191.5 106.5t-112.5 182t-37 261v657l-167 36v211h674v-211l-163 -36v-644q0 -79 13.5 -144.5t48 -112t94.5 -72t153 -25.5q68 0 118 15.5t85 42t56.5 62t33.5 76t16.5 83.5
t4.5 85v634l-164 36v211h614v-211zM586 1608l-105 127l371 297l142 -177zM1149 1608l-106 127l372 297l142 -177z" />
    <glyph glyph-name="Umacron" unicode="&#x16a;" horiz-adv-x="1681" 
d="M1466 1211v-647q0 -152 -40.5 -264t-120.5 -185.5t-199 -109t-275 -35.5q-159 0 -275 34.5t-191.5 106.5t-112.5 182t-37 261v657l-167 36v211h674v-211l-163 -36v-644q0 -79 13.5 -144.5t48 -112t94.5 -72t153 -25.5q68 0 118 15.5t85 42t56.5 62t33.5 76t16.5 83.5
t4.5 85v634l-164 36v211h614v-211zM622 1609v223h470v-223h-470z" />
    <glyph glyph-name="Uogonek" unicode="&#x172;" horiz-adv-x="1681" 
d="M1466 1211v-647q0 -152 -40.5 -264t-120.5 -185.5t-199 -109t-275 -35.5q-159 0 -275 34.5t-191.5 106.5t-112.5 182t-37 261v657l-167 36v211h674v-211l-163 -36v-644q0 -79 13.5 -144.5t48 -112t94.5 -72t153 -25.5q68 0 118 15.5t85 42t56.5 62t33.5 76t16.5 83.5
t4.5 85v634l-164 36v211h614v-211zM1371 -354q-49 -16 -100 -23t-112 -7q-49 0 -90 15t-71 43t-46.5 68.5t-16.5 92.5q0 40 17 81t41.5 77.5t51 66.5l44.5 49h208l-45 -46t-38.5 -47t-26.5 -50.5t-10 -54.5q0 -51 28.5 -74t70.5 -23q30 0 52.5 2.5t42.5 7.5v-178v0z" />
    <glyph glyph-name="Uring" unicode="&#x16e;" horiz-adv-x="1681" 
d="M1466 1211v-647q0 -152 -40.5 -264t-120.5 -185.5t-199 -109t-275 -35.5q-159 0 -275 34.5t-191.5 106.5t-112.5 182t-37 261v657l-167 36v211h674v-211l-163 -36v-644q0 -79 13.5 -144.5t48 -112t94.5 -72t153 -25.5q68 0 118 15.5t85 42t56.5 62t33.5 76t16.5 83.5
t4.5 85v634l-164 36v211h614v-211zM1131 1858q0 -55 -21 -101t-57.5 -79.5t-85 -52.5t-103.5 -19t-103.5 18.5t-84.5 52t-57 80t-21 101.5t21 101.5t57 80t84.5 52.5t103.5 19t103.5 -19t85 -52.5t57.5 -80t21 -101.5zM966 1858q0 21 -8 40t-22 33.5t-32.5 22.5t-39.5 8
t-39.5 -8t-32.5 -22.5t-22 -33.5t-8 -40t8 -40t22 -33t32.5 -22.5t39.5 -8.5t39.5 8.5t32.5 22.5t22 33t8 40z" />
    <glyph glyph-name="Utilde" unicode="&#x168;" horiz-adv-x="1681" 
d="M1466 1211v-647q0 -152 -40.5 -264t-120.5 -185.5t-199 -109t-275 -35.5q-159 0 -275 34.5t-191.5 106.5t-112.5 182t-37 261v657l-167 36v211h674v-211l-163 -36v-644q0 -79 13.5 -144.5t48 -112t94.5 -72t153 -25.5q68 0 118 15.5t85 42t56.5 62t33.5 76t16.5 83.5
t4.5 85v634l-164 36v211h614v-211zM1241 1693q-17 -15 -43 -31t-56 -29t-62 -21.5t-61 -8.5q-63 0 -102.5 15t-72.5 35l-33.5 19.5t-34.5 17t-39 12t-47 4.5q-30 0 -58.5 -14t-60.5 -37l-81 168q48 42 103.5 67.5t117.5 25.5q33 0 59.5 -5.5t49 -14t42 -19.5l38.5 -21
q30 -17 61.5 -30t75.5 -13q42 0 70.5 15t56.5 36l77 -171v0z" />
    <glyph glyph-name="Wacute" unicode="&#x1e82;" horiz-adv-x="2567" 
d="M2536 1245l-145 -28l-472 -1217h-392l-199 531l-42 156h-18l-31 -156l-206 -531h-392l-456 1214l-160 31v213h674v-212l-162 -33l253 -743l48 -229h27l72 228l206 579l-70 166l-160 31v213h674v-212l-163 -33l254 -743l47 -229h28l72 229l258 746l-153 30v212h608v-213z
M1263 1608l-106 126l372 298l142 -177z" />
    <glyph glyph-name="Wcircumflex" unicode="&#x174;" horiz-adv-x="2567" 
d="M2536 1245l-145 -28l-472 -1217h-392l-199 531l-42 156h-18l-31 -156l-206 -531h-392l-456 1214l-160 31v213h674v-212l-162 -33l253 -743l48 -229h27l72 228l206 579l-70 166l-160 31v213h674v-212l-163 -33l254 -743l47 -229h28l72 229l258 746l-153 30v212h608v-213z
M1347 1924l197 -238l-75 -75l-207 131l-207 -139l-78 76l191 245h179z" />
    <glyph glyph-name="Wdieresis" unicode="&#x1e84;" horiz-adv-x="2567" 
d="M2536 1245l-145 -28l-472 -1217h-392l-199 531l-42 156h-18l-31 -156l-206 -531h-392l-456 1214l-160 31v213h674v-212l-162 -33l253 -743l48 -229h27l72 228l206 579l-70 166l-160 31v213h674v-212l-163 -33l254 -743l47 -229h28l72 229l258 746l-153 30v212h608v-213z
M783 1825l193 193h27l193 -193v-27l-193 -193h-27l-193 193v27zM1305 1825l193 193h27l193 -193v-27l-193 -193h-27l-193 193v27z" />
    <glyph glyph-name="Wgrave" unicode="&#x1e80;" horiz-adv-x="2567" 
d="M2536 1245l-145 -28l-472 -1217h-392l-199 531l-42 156h-18l-31 -156l-206 -531h-392l-456 1214l-160 31v213h674v-212l-162 -33l253 -743l48 -229h27l72 228l206 579l-70 166l-160 31v213h674v-212l-163 -33l254 -743l47 -229h28l72 229l258 746l-153 30v212h608v-213z
M855 1851l142 177l371 -298l-105 -127z" />
    <glyph glyph-name="Yacute" unicode="&#xdd;" horiz-adv-x="1616" 
d="M1435 1216l-443 -651v-322l167 -38v-205h-677v205l167 38v296l-464 675l-151 31v213h674v-212l-147 -32l240 -369l31 -86h10l46 94l241 363l-154 30v212h608v-213zM838 1607l-106 126l372 298l142 -177z" />
    <glyph glyph-name="Ycircumflex" unicode="&#x176;" horiz-adv-x="1616" 
d="M1435 1216l-443 -651v-322l167 -38v-205h-677v205l167 38v296l-464 675l-151 31v213h674v-212l-147 -32l240 -369l31 -86h10l46 94l241 363l-154 30v212h608v-213zM922 1923l197 -238l-75 -75l-207 131l-207 -139l-78 76l191 245h179z" />
    <glyph glyph-name="Ydieresis" unicode="&#x178;" horiz-adv-x="1616" 
d="M1435 1216l-443 -651v-322l167 -38v-205h-677v205l167 38v296l-464 675l-151 31v213h674v-212l-147 -32l240 -369l31 -86h10l46 94l241 363l-154 30v212h608v-213zM357 1824l193 193h27l193 -193v-27l-193 -193h-27l-193 193v27zM879 1824l193 193h27l193 -193v-27
l-193 -193h-27l-193 193v27z" />
    <glyph glyph-name="Ygrave" unicode="&#x1ef2;" horiz-adv-x="1616" 
d="M1435 1216l-443 -651v-322l167 -38v-205h-677v205l167 38v296l-464 675l-151 31v213h674v-212l-147 -32l240 -369l31 -86h10l46 94l241 363l-154 30v212h608v-213zM429 1850l142 177l371 -298l-105 -127z" />
    <glyph glyph-name="Zacute" unicode="&#x179;" horiz-adv-x="1347" 
d="M1262 0h-1182v223l756 955l50 33v9h-448l-46 -218h-250v456h1127v-223l-734 -933l-64 -55v-9h495l46 218h250v-456zM737 1609l-106 126l372 298l142 -177z" />
    <glyph glyph-name="Zcaron" unicode="&#x17d;" horiz-adv-x="1347" 
d="M1262 0h-1182v223l756 955l50 33v9h-448l-46 -218h-250v456h1127v-223l-734 -933l-64 -55v-9h495l46 218h250v-456zM642 1616l-191 245l78 76l207 -140l207 132l75 -75l-197 -238h-179z" />
    <glyph glyph-name="Zdotaccent" unicode="&#x17b;" horiz-adv-x="1347" 
d="M1262 0h-1182v223l756 955l50 33v9h-448l-46 -218h-250v456h1127v-223l-734 -933l-64 -55v-9h495l46 218h250v-456zM533 1826l193 193h27l193 -193v-27l-193 -193h-27l-193 193v27z" />
    <glyph glyph-name="aacute" unicode="&#xe1;" horiz-adv-x="1250" 
d="M136 770v209q12 6 58.5 20.5t114 29.5t147.5 26.5t158 11.5q56 0 111 -5.5t104 -20.5t91 -42.5t72.5 -72.5t47.5 -109.5t17 -152.5v-436l153 -39v-189h-443v138l18 109l-10 1q-33 -146 -126.5 -211.5t-241.5 -65.5q-82 0 -145.5 23.5t-107 65.5t-66 99t-22.5 125
q0 80 23.5 134.5t64.5 89.5t97 54t121 27.5t135.5 9.5t141.5 1h89v57q0 98 -51 141t-161 43q-94 0 -189.5 -23t-188.5 -55zM522 197q41 0 80 19t69 51t48.5 75t18.5 90v6h-89q-59 0 -106 -3t-80 -15t-51 -35t-18 -62q0 -26 8 -49t24 -40t40 -27t56 -10zM633 1184l-106 126
l372 298l142 -177z" />
    <glyph glyph-name="abreve" unicode="&#x103;" horiz-adv-x="1250" 
d="M136 770v209q12 6 58.5 20.5t114 29.5t147.5 26.5t158 11.5q56 0 111 -5.5t104 -20.5t91 -42.5t72.5 -72.5t47.5 -109.5t17 -152.5v-436l153 -39v-189h-443v138l18 109l-10 1q-33 -146 -126.5 -211.5t-241.5 -65.5q-82 0 -145.5 23.5t-107 65.5t-66 99t-22.5 125
q0 80 23.5 134.5t64.5 89.5t97 54t121 27.5t135.5 9.5t141.5 1h89v57q0 98 -51 141t-161 43q-94 0 -189.5 -23t-188.5 -55zM522 197q41 0 80 19t69 51t48.5 75t18.5 90v6h-89q-59 0 -106 -3t-80 -15t-51 -35t-18 -62q0 -26 8 -49t24 -40t40 -27t56 -10zM942 1467
q0 -63 -24 -113.5t-65.5 -86t-97 -54.5t-118.5 -19t-117.5 19.5t-95 55.5t-63.5 86.5t-23 111.5l153 25q2 -28 12 -52.5t29 -43t45.5 -29t61.5 -10.5q34 0 63.5 9.5t50.5 27.5t32.5 43t11.5 55l145 -25v0z" />
    <glyph glyph-name="acircumflex" unicode="&#xe2;" horiz-adv-x="1250" 
d="M136 770v209q12 6 58.5 20.5t114 29.5t147.5 26.5t158 11.5q56 0 111 -5.5t104 -20.5t91 -42.5t72.5 -72.5t47.5 -109.5t17 -152.5v-436l153 -39v-189h-443v138l18 109l-10 1q-33 -146 -126.5 -211.5t-241.5 -65.5q-82 0 -145.5 23.5t-107 65.5t-66 99t-22.5 125
q0 80 23.5 134.5t64.5 89.5t97 54t121 27.5t135.5 9.5t141.5 1h89v57q0 98 -51 141t-161 43q-94 0 -189.5 -23t-188.5 -55zM522 197q41 0 80 19t69 51t48.5 75t18.5 90v6h-89q-59 0 -106 -3t-80 -15t-51 -35t-18 -62q0 -26 8 -49t24 -40t40 -27t56 -10zM722 1493l197 -238
l-75 -75l-207 131l-207 -139l-78 76l191 245h179z" />
    <glyph glyph-name="adieresis" unicode="&#xe4;" horiz-adv-x="1250" 
d="M136 770v209q12 6 58.5 20.5t114 29.5t147.5 26.5t158 11.5q56 0 111 -5.5t104 -20.5t91 -42.5t72.5 -72.5t47.5 -109.5t17 -152.5v-436l153 -39v-189h-443v138l18 109l-10 1q-33 -146 -126.5 -211.5t-241.5 -65.5q-82 0 -145.5 23.5t-107 65.5t-66 99t-22.5 125
q0 80 23.5 134.5t64.5 89.5t97 54t121 27.5t135.5 9.5t141.5 1h89v57q0 98 -51 141t-161 43q-94 0 -189.5 -23t-188.5 -55zM522 197q41 0 80 19t69 51t48.5 75t18.5 90v6h-89q-59 0 -106 -3t-80 -15t-51 -35t-18 -62q0 -26 8 -49t24 -40t40 -27t56 -10zM157 1402l193 193h27
l193 -193v-27l-193 -193h-27l-193 193v27zM679 1402l193 193h27l193 -193v-27l-193 -193h-27l-193 193v27z" />
    <glyph glyph-name="agrave" unicode="&#xe0;" horiz-adv-x="1250" 
d="M136 770v209q12 6 58.5 20.5t114 29.5t147.5 26.5t158 11.5q56 0 111 -5.5t104 -20.5t91 -42.5t72.5 -72.5t47.5 -109.5t17 -152.5v-436l153 -39v-189h-443v138l18 109l-10 1q-33 -146 -126.5 -211.5t-241.5 -65.5q-82 0 -145.5 23.5t-107 65.5t-66 99t-22.5 125
q0 80 23.5 134.5t64.5 89.5t97 54t121 27.5t135.5 9.5t141.5 1h89v57q0 98 -51 141t-161 43q-94 0 -189.5 -23t-188.5 -55zM522 197q41 0 80 19t69 51t48.5 75t18.5 90v6h-89q-59 0 -106 -3t-80 -15t-51 -35t-18 -62q0 -26 8 -49t24 -40t40 -27t56 -10zM230 1445l142 177
l371 -298l-105 -127z" />
    <glyph glyph-name="amacron" unicode="&#x101;" horiz-adv-x="1250" 
d="M136 770v209q12 6 58.5 20.5t114 29.5t147.5 26.5t158 11.5q56 0 111 -5.5t104 -20.5t91 -42.5t72.5 -72.5t47.5 -109.5t17 -152.5v-436l153 -39v-189h-443v138l18 109l-10 1q-33 -146 -126.5 -211.5t-241.5 -65.5q-82 0 -145.5 23.5t-107 65.5t-66 99t-22.5 125
q0 80 23.5 134.5t64.5 89.5t97 54t121 27.5t135.5 9.5t141.5 1h89v57q0 98 -51 141t-161 43q-94 0 -189.5 -23t-188.5 -55zM522 197q41 0 80 19t69 51t48.5 75t18.5 90v6h-89q-59 0 -106 -3t-80 -15t-51 -35t-18 -62q0 -26 8 -49t24 -40t40 -27t56 -10zM396 1205v223h470
v-223h-470z" />
    <glyph glyph-name="aogonek" unicode="&#x105;" horiz-adv-x="1250" 
d="M136 770v209q12 6 58.5 20.5t114 29.5t147.5 26.5t158 11.5q56 0 111 -5.5t104 -20.5t91 -42.5t72.5 -72.5t47.5 -109.5t17 -152.5v-436l153 -39v-189h-443v138l18 109l-10 1q-33 -146 -126.5 -211.5t-241.5 -65.5q-82 0 -145.5 23.5t-107 65.5t-66 99t-22.5 125
q0 80 23.5 134.5t64.5 89.5t97 54t121 27.5t135.5 9.5t141.5 1h89v57q0 98 -51 141t-161 43q-94 0 -189.5 -23t-188.5 -55zM522 197q41 0 80 19t69 51t48.5 75t18.5 90v6h-89q-59 0 -106 -3t-80 -15t-51 -35t-18 -62q0 -26 8 -49t24 -40t40 -27t56 -10zM1289 -463
q-49 -16 -100 -23t-112 -7q-49 0 -90 15t-71 43t-46.5 68.5t-16.5 92.5q0 40 17 81t41.5 77.5t51 66.5l44.5 49h208l-45 -46t-38.5 -47t-26.5 -50.5t-10 -54.5q0 -51 28.5 -74t70.5 -23q30 0 52.5 2.5t42.5 7.5v-178v0z" />
    <glyph glyph-name="aring" unicode="&#xe5;" horiz-adv-x="1250" 
d="M136 770v209q12 6 58.5 20.5t114 29.5t147.5 26.5t158 11.5q56 0 111 -5.5t104 -20.5t91 -42.5t72.5 -72.5t47.5 -109.5t17 -152.5v-436l153 -39v-189h-443v138l18 109l-10 1q-33 -146 -126.5 -211.5t-241.5 -65.5q-82 0 -145.5 23.5t-107 65.5t-66 99t-22.5 125
q0 80 23.5 134.5t64.5 89.5t97 54t121 27.5t135.5 9.5t141.5 1h89v57q0 98 -51 141t-161 43q-94 0 -189.5 -23t-188.5 -55zM522 197q41 0 80 19t69 51t48.5 75t18.5 90v6h-89q-59 0 -106 -3t-80 -15t-51 -35t-18 -62q0 -26 8 -49t24 -40t40 -27t56 -10zM910 1441
q0 -55 -21 -101t-57.5 -79.5t-85 -52.5t-103.5 -19t-103.5 18.5t-84.5 52t-57 80t-21 101.5t21 101.5t57 80t84.5 52.5t103.5 19t103.5 -19t85 -52.5t57.5 -80t21 -101.5zM745 1441q0 21 -8 40t-22 33.5t-32.5 22.5t-39.5 8t-39.5 -8t-32.5 -22.5t-22 -33.5t-8 -40t8 -40
t22 -33t32.5 -22.5t39.5 -8.5t39.5 8.5t32.5 22.5t22 33t8 40z" />
    <glyph glyph-name="atilde" unicode="&#xe3;" horiz-adv-x="1250" 
d="M136 770v209q12 6 58.5 20.5t114 29.5t147.5 26.5t158 11.5q56 0 111 -5.5t104 -20.5t91 -42.5t72.5 -72.5t47.5 -109.5t17 -152.5v-436l153 -39v-189h-443v138l18 109l-10 1q-33 -146 -126.5 -211.5t-241.5 -65.5q-82 0 -145.5 23.5t-107 65.5t-66 99t-22.5 125
q0 80 23.5 134.5t64.5 89.5t97 54t121 27.5t135.5 9.5t141.5 1h89v57q0 98 -51 141t-161 43q-94 0 -189.5 -23t-188.5 -55zM522 197q41 0 80 19t69 51t48.5 75t18.5 90v6h-89q-59 0 -106 -3t-80 -15t-51 -35t-18 -62q0 -26 8 -49t24 -40t40 -27t56 -10zM1022 1265
q-17 -15 -43 -31t-56 -29t-62 -21.5t-61 -8.5q-63 0 -102.5 15t-72.5 35l-33.5 19.5t-34.5 17t-39 12t-47 4.5q-30 0 -58.5 -14t-60.5 -37l-81 168q48 42 103.5 67.5t117.5 25.5q33 0 59.5 -5.5t49 -14t42 -19.5l38.5 -21q30 -17 61.5 -30t75.5 -13q42 0 70.5 15t56.5 36
l77 -171v0z" />
    <glyph glyph-name="aeacute" unicode="&#x1fd;" horiz-adv-x="1806" 
d="M1700 242l22 -203q-25 -10 -65 -21.5t-91.5 -22t-114.5 -17.5t-135 -7q-99 0 -177.5 16t-140 44t-106.5 65.5t-76 81.5q-68 -113 -174.5 -160t-252.5 -47q-82 0 -145.5 23.5t-107 65.5t-66 99t-22.5 125q0 80 23.5 137t65 95.5t97 62t120.5 35.5t136 15.5t142 3.5h88v24
q0 98 -51 141t-161 43q-93 0 -189 -23t-188 -55l-12 7v209q12 6 58.5 20.5t113.5 29.5t147 26.5t158 11.5q48 0 95 -3.5t90.5 -14t82 -29t70.5 -48.5q66 45 152 70t196 25q129 0 217.5 -39.5t143.5 -104.5t79.5 -148t26.5 -170q1 -41 -3 -80.5t-12 -75.5h-682q0 -4 -0.5 -5
t-0.5 -5q0 -34 19 -76t58 -79t99.5 -62t143.5 -25q52 0 98.5 5t86.5 13t73 17.5t57 18.5zM514 197q50 0 88.5 18.5t64.5 51t39.5 75.5t13.5 91v13h-89q-59 0 -106 -4t-80 -17.5t-51 -38t-18 -63.5q0 -26 8 -49t25 -40t43 -27t62 -10zM1441 641q0 43 -10 79.5t-32 63
t-57.5 41.5t-86.5 15q-97 0 -146 -54t-62 -145h394zM949 1215l-106 126l372 298l142 -177z" />
    <glyph glyph-name="cacute" unicode="&#x107;" horiz-adv-x="1096" 
d="M993 24q-20 -8 -52 -17t-75.5 -17t-98 -13.5t-120.5 -5.5q-122 0 -213.5 24.5t-157.5 66t-108.5 96t-67 114.5t-34.5 122t-10 119q0 120 35 221.5t106 175.5t180 115.5t256 41.5q58 0 112.5 -4.5t100.5 -11t81 -13.5t53 -13v-457h-239l-27 269q-5 1 -14 1.5t-19 1
t-20 0.5h-16q-67 0 -118 -22.5t-85 -63t-51 -96t-17 -121.5q0 -59 15 -119.5t52.5 -109.5t101 -80t159.5 -31q41 0 78.5 4t70 9.5t59.5 12t46 12.5l14 -8zM653 1195l-106 126l372 298l142 -177z" />
    <glyph glyph-name="ccaron" unicode="&#x10d;" horiz-adv-x="1096" 
d="M993 24q-20 -8 -52 -17t-75.5 -17t-98 -13.5t-120.5 -5.5q-122 0 -213.5 24.5t-157.5 66t-108.5 96t-67 114.5t-34.5 122t-10 119q0 120 35 221.5t106 175.5t180 115.5t256 41.5q58 0 112.5 -4.5t100.5 -11t81 -13.5t53 -13v-457h-239l-27 269q-5 1 -14 1.5t-19 1
t-20 0.5h-16q-67 0 -118 -22.5t-85 -63t-51 -96t-17 -121.5q0 -59 15 -119.5t52.5 -109.5t101 -80t159.5 -31q41 0 78.5 4t70 9.5t59.5 12t46 12.5l14 -8zM557 1207l-191 245l78 76l207 -140l207 132l75 -75l-197 -238h-179z" />
    <glyph glyph-name="ccedilla" unicode="&#xe7;" horiz-adv-x="1096" 
d="M993 24q-20 -8 -52 -17t-75.5 -17t-98 -13.5t-120.5 -5.5q-122 0 -213.5 24.5t-157.5 66t-108.5 96t-67 114.5t-34.5 122t-10 119q0 120 35 221.5t106 175.5t180 115.5t256 41.5q58 0 112.5 -4.5t100.5 -11t81 -13.5t53 -13v-457h-239l-27 269q-5 1 -14 1.5t-19 1
t-20 0.5h-16q-67 0 -118 -22.5t-85 -63t-51 -96t-17 -121.5q0 -59 15 -119.5t52.5 -109.5t101 -80t159.5 -31q41 0 78.5 4t70 9.5t59.5 12t46 12.5l14 -8zM774 -99q20 -38 32 -70t12 -73q0 -44 -18 -84.5t-51.5 -77t-81 -67.5t-105.5 -55l-88 101q25 22 44 43.5t32 45
t20 50.5t7 61q0 38 -10.5 69t-27.5 57h235v0z" />
    <glyph glyph-name="ccircumflex" unicode="&#x109;" horiz-adv-x="1096" 
d="M993 24q-20 -8 -52 -17t-75.5 -17t-98 -13.5t-120.5 -5.5q-122 0 -213.5 24.5t-157.5 66t-108.5 96t-67 114.5t-34.5 122t-10 119q0 120 35 221.5t106 175.5t180 115.5t256 41.5q58 0 112.5 -4.5t100.5 -11t81 -13.5t53 -13v-457h-239l-27 269q-5 1 -14 1.5t-19 1
t-20 0.5h-16q-67 0 -118 -22.5t-85 -63t-51 -96t-17 -121.5q0 -59 15 -119.5t52.5 -109.5t101 -80t159.5 -31q41 0 78.5 4t70 9.5t59.5 12t46 12.5l14 -8zM737 1512l197 -238l-75 -75l-207 131l-207 -139l-78 76l191 245h179z" />
    <glyph glyph-name="cdotaccent" unicode="&#x10b;" horiz-adv-x="1096" 
d="M993 24q-20 -8 -52 -17t-75.5 -17t-98 -13.5t-120.5 -5.5q-122 0 -213.5 24.5t-157.5 66t-108.5 96t-67 114.5t-34.5 122t-10 119q0 120 35 221.5t106 175.5t180 115.5t256 41.5q58 0 112.5 -4.5t100.5 -11t81 -13.5t53 -13v-457h-239l-27 269q-5 1 -14 1.5t-19 1
t-20 0.5h-16q-67 0 -118 -22.5t-85 -63t-51 -96t-17 -121.5q0 -59 15 -119.5t52.5 -109.5t101 -80t159.5 -31q41 0 78.5 4t70 9.5t59.5 12t46 12.5l14 -8zM449 1421l193 193h27l193 -193v-27l-193 -193h-27l-193 193v27z" />
    <glyph glyph-name="dcaron" unicode="&#x10f;" horiz-adv-x="1571" 
d="M843 0v166l15 95l-12 1q-15 -50 -48.5 -102t-83 -94t-113 -68.5t-138.5 -26.5q-104 0 -180 39t-126 105t-74.5 154t-24.5 186q0 121 23.5 214t64.5 161t97 113.5t122 73t138 39t146 11.5q35 0 64 -3t50 -7q24 -4 43 -9v300l-159 39v211h476v-1370l154 -39v-189h-434z
M810 816q-18 7 -40 12q-19 5 -45.5 9t-58.5 4q-83 0 -137 -27.5t-85 -75t-43 -111t-12 -135.5q0 -129 36 -203t110 -74q63 0 114 41.5t87 108t55 150t19 166.5v135zM1266 1449l163 164q58 -9 104 -35q19 -11 38 -27.5t34 -39.5t24 -53t9 -68q0 -74 -22 -139.5t-61 -121
t-91 -102t-112 -82.5l-84 99q24 23 51 52t50 60.5t39 64.5t18 64l-160 136v28z" />
    <glyph glyph-name="dcroat" unicode="&#x111;" horiz-adv-x="1342" 
d="M843 0v166l15 95l-12 1q-15 -50 -48.5 -102t-83 -94t-113 -68.5t-138.5 -26.5q-104 0 -180 39t-126 105t-74.5 154t-24.5 186q0 121 23.5 214t64.5 161t97 113.5t122 73t138 39t146 11.5q35 0 64 -3t50 -7q24 -4 43 -9v192h-99v202h99v156h317v-156h104v-202h-104v-1012
l154 -39v-189h-434zM810 816q-18 7 -40 12q-19 5 -45.5 9t-58.5 4q-83 0 -137 -27.5t-85 -75t-43 -111t-12 -135.5q0 -129 36 -203t110 -74q63 0 114 41.5t87 108t55 150t19 166.5v135z" />
    <glyph glyph-name="eacute" unicode="&#xe9;" horiz-adv-x="1148" 
d="M412 388q26 -82 91 -132t180 -55q49 -1 87 4t69.5 13.5t57.5 17.5t52 15q14 1 29 0.5t25 -0.5l21 -212q-25 -10 -58 -21.5t-77 -22t-100.5 -17.5t-128.5 -7q-125 0 -218 25.5t-159 67.5t-109 97t-67.5 114.5t-34 119t-9.5 111.5q0 116 33 218t101.5 178.5t175 120.5
t253.5 44q124 0 221 -41t156 -125t74.5 -212t-23.5 -301h-642zM608 840q-58 0 -96 -21t-62 -54t-35.5 -72.5t-15.5 -75.5h389q7 67 -5 110t-37.5 68t-61.5 35t-76 10zM566 1184l-106 126l372 298l142 -177z" />
    <glyph glyph-name="ebreve" unicode="&#x115;" horiz-adv-x="1148" 
d="M412 388q26 -82 91 -132t180 -55q49 -1 87 4t69.5 13.5t57.5 17.5t52 15q14 1 29 0.5t25 -0.5l21 -212q-25 -10 -58 -21.5t-77 -22t-100.5 -17.5t-128.5 -7q-125 0 -218 25.5t-159 67.5t-109 97t-67.5 114.5t-34 119t-9.5 111.5q0 116 33 218t101.5 178.5t175 120.5
t253.5 44q124 0 221 -41t156 -125t74.5 -212t-23.5 -301h-642zM608 840q-58 0 -96 -21t-62 -54t-35.5 -72.5t-15.5 -75.5h389q7 67 -5 110t-37.5 68t-61.5 35t-76 10zM953 1478q0 -63 -24 -113.5t-65.5 -86t-97 -54.5t-118.5 -19t-117.5 19.5t-95 55.5t-63.5 86.5t-23 111.5
l153 25q2 -28 12 -52.5t29 -43t45.5 -29t61.5 -10.5q34 0 63.5 9.5t50.5 27.5t32.5 43t11.5 55l145 -25v0z" />
    <glyph glyph-name="ecaron" unicode="&#x11b;" horiz-adv-x="1148" 
d="M412 388q26 -82 91 -132t180 -55q49 -1 87 4t69.5 13.5t57.5 17.5t52 15q14 1 29 0.5t25 -0.5l21 -212q-25 -10 -58 -21.5t-77 -22t-100.5 -17.5t-128.5 -7q-125 0 -218 25.5t-159 67.5t-109 97t-67.5 114.5t-34 119t-9.5 111.5q0 116 33 218t101.5 178.5t175 120.5
t253.5 44q124 0 221 -41t156 -125t74.5 -212t-23.5 -301h-642zM608 840q-58 0 -96 -21t-62 -54t-35.5 -72.5t-15.5 -75.5h389q7 67 -5 110t-37.5 68t-61.5 35t-76 10zM566 1206l-191 245l78 76l207 -140l207 132l75 -75l-197 -238h-179z" />
    <glyph glyph-name="ecircumflex" unicode="&#xea;" horiz-adv-x="1148" 
d="M412 388q26 -82 91 -132t180 -55q49 -1 87 4t69.5 13.5t57.5 17.5t52 15q14 1 29 0.5t25 -0.5l21 -212q-25 -10 -58 -21.5t-77 -22t-100.5 -17.5t-128.5 -7q-125 0 -218 25.5t-159 67.5t-109 97t-67.5 114.5t-34 119t-9.5 111.5q0 116 33 218t101.5 178.5t175 120.5
t253.5 44q124 0 221 -41t156 -125t74.5 -212t-23.5 -301h-642zM608 840q-58 0 -96 -21t-62 -54t-35.5 -72.5t-15.5 -75.5h389q7 67 -5 110t-37.5 68t-61.5 35t-76 10zM733 1488l197 -238l-75 -75l-207 131l-207 -139l-78 76l191 245h179z" />
    <glyph glyph-name="edieresis" unicode="&#xeb;" horiz-adv-x="1148" 
d="M412 388q26 -82 91 -132t180 -55q49 -1 87 4t69.5 13.5t57.5 17.5t52 15q14 1 29 0.5t25 -0.5l21 -212q-25 -10 -58 -21.5t-77 -22t-100.5 -17.5t-128.5 -7q-125 0 -218 25.5t-159 67.5t-109 97t-67.5 114.5t-34 119t-9.5 111.5q0 116 33 218t101.5 178.5t175 120.5
t253.5 44q124 0 221 -41t156 -125t74.5 -212t-23.5 -301h-642zM608 840q-58 0 -96 -21t-62 -54t-35.5 -72.5t-15.5 -75.5h389q7 67 -5 110t-37.5 68t-61.5 35t-76 10zM146 1386l193 193h27l193 -193v-27l-193 -193h-27l-193 193v27zM668 1386l193 193h27l193 -193v-27
l-193 -193h-27l-193 193v27z" />
    <glyph glyph-name="edotaccent" unicode="&#x117;" horiz-adv-x="1148" 
d="M412 388q26 -82 91 -132t180 -55q49 -1 87 4t69.5 13.5t57.5 17.5t52 15q14 1 29 0.5t25 -0.5l21 -212q-25 -10 -58 -21.5t-77 -22t-100.5 -17.5t-128.5 -7q-125 0 -218 25.5t-159 67.5t-109 97t-67.5 114.5t-34 119t-9.5 111.5q0 116 33 218t101.5 178.5t175 120.5
t253.5 44q124 0 221 -41t156 -125t74.5 -212t-23.5 -301h-642zM608 840q-58 0 -96 -21t-62 -54t-35.5 -72.5t-15.5 -75.5h389q7 67 -5 110t-37.5 68t-61.5 35t-76 10zM457 1429l193 193h27l193 -193v-27l-193 -193h-27l-193 193v27z" />
    <glyph glyph-name="egrave" unicode="&#xe8;" horiz-adv-x="1148" 
d="M412 388q26 -82 91 -132t180 -55q49 -1 87 4t69.5 13.5t57.5 17.5t52 15q14 1 29 0.5t25 -0.5l21 -212q-25 -10 -58 -21.5t-77 -22t-100.5 -17.5t-128.5 -7q-125 0 -218 25.5t-159 67.5t-109 97t-67.5 114.5t-34 119t-9.5 111.5q0 116 33 218t101.5 178.5t175 120.5
t253.5 44q124 0 221 -41t156 -125t74.5 -212t-23.5 -301h-642zM608 840q-58 0 -96 -21t-62 -54t-35.5 -72.5t-15.5 -75.5h389q7 67 -5 110t-37.5 68t-61.5 35t-76 10zM275 1425l142 177l371 -298l-105 -127z" />
    <glyph glyph-name="emacron" unicode="&#x113;" horiz-adv-x="1148" 
d="M412 388q26 -82 91 -132t180 -55q49 -1 87 4t69.5 13.5t57.5 17.5t52 15q14 1 29 0.5t25 -0.5l21 -212q-25 -10 -58 -21.5t-77 -22t-100.5 -17.5t-128.5 -7q-125 0 -218 25.5t-159 67.5t-109 97t-67.5 114.5t-34 119t-9.5 111.5q0 116 33 218t101.5 178.5t175 120.5
t253.5 44q124 0 221 -41t156 -125t74.5 -212t-23.5 -301h-642zM608 840q-58 0 -96 -21t-62 -54t-35.5 -72.5t-15.5 -75.5h389q7 67 -5 110t-37.5 68t-61.5 35t-76 10zM384 1209v223h470v-223h-470z" />
    <glyph glyph-name="eogonek" unicode="&#x119;" horiz-adv-x="1148" 
d="M412 388q26 -82 91 -132t180 -55q49 -1 87 4t69.5 13.5t57.5 17.5t52 15q14 1 29 0.5t25 -0.5l21 -212q-25 -10 -58 -21.5t-77 -22t-100.5 -17.5t-128.5 -7q-125 0 -218 25.5t-159 67.5t-109 97t-67.5 114.5t-34 119t-9.5 111.5q0 116 33 218t101.5 178.5t175 120.5
t253.5 44q124 0 221 -41t156 -125t74.5 -212t-23.5 -301h-642zM608 840q-58 0 -96 -21t-62 -54t-35.5 -72.5t-15.5 -75.5h389q7 67 -5 110t-37.5 68t-61.5 35t-76 10zM1098 -423q-49 -16 -100 -23t-112 -7q-49 0 -90 15t-71 43t-46.5 68.5t-16.5 92.5q0 40 17 81t41.5 77.5
t51 66.5l44.5 49h208l-45 -46t-38.5 -47t-26.5 -50.5t-10 -54.5q0 -51 28.5 -74t70.5 -23q30 0 52.5 2.5t42.5 7.5v-178v0z" />
    <glyph glyph-name="hbar" unicode="&#x127;" horiz-adv-x="1422" 
d="M533 1249v-309l-51 -163h11q18 50 49 101.5t77.5 93.5t109 68.5t142.5 26.5q178 0 266.5 -104t88.5 -305l1 -430l153 -39v-189h-600v199l128 29v415q0 95 -31 137.5t-94 42.5q-53 0 -98.5 -38.5t-79 -103t-53 -149.5t-19.5 -178v-126l128 -39v-189h-600v189l153 39v1021
h-89v202h89v147h319v-147h112v-202h-112z" />
    <glyph glyph-name="hcircumflex" unicode="&#x125;" horiz-adv-x="1422" 
d="M780 0v199l128 29v415q0 95 -31 137.5t-94 42.5q-53 0 -98.5 -38.5t-79 -103t-53 -149.5t-19.5 -178v-126l128 -39v-189h-600v189l153 39v1120l-157 39v211h476v-658l-51 -163h11q18 50 49 101.5t77.5 93.5t109 68.5t142.5 26.5q178 0 266.5 -104t88.5 -305l1 -430
l153 -39v-189h-600zM411 1991l197 -238l-75 -75l-207 131l-207 -139l-78 76l191 245h179z" />
    <glyph glyph-name="iacute" unicode="&#xed;" horiz-adv-x="746" 
d="M60 0v189l154 39v561l-177 38v212h496v-811l152 -39v-189h-625zM360 1236l-106 126l372 298l142 -177z" />
    <glyph glyph-name="ibreve" unicode="&#x12d;" horiz-adv-x="746" 
d="M60 0v189l154 39v561l-177 38v212h496v-811l152 -39v-189h-625zM645 1513q0 -63 -24 -113.5t-65.5 -86t-97 -54.5t-118.5 -19t-117.5 19.5t-95 55.5t-63.5 86.5t-23 111.5l153 25q2 -28 12 -52.5t29 -43t45.5 -29t61.5 -10.5q34 0 63.5 9.5t50.5 27.5t32.5 43t11.5 55
l145 -25v0z" />
    <glyph glyph-name="icircumflex" unicode="&#xee;" horiz-adv-x="746" 
d="M60 0v189l154 39v561l-177 38v212h496v-811l152 -39v-189h-625zM418 1555l197 -238l-75 -75l-207 131l-207 -139l-78 76l191 245h179z" />
    <glyph glyph-name="idieresis" unicode="&#xef;" horiz-adv-x="746" 
d="M60 0v189l154 39v561l-177 38v212h496v-811l152 -39v-189h-625zM-134 1460l193 193h27l193 -193v-27l-193 -193h-27l-193 193v27zM388 1460l193 193h27l193 -193v-27l-193 -193h-27l-193 193v27z" />
    <glyph glyph-name="igrave" unicode="&#xec;" horiz-adv-x="746" 
d="M60 0v189l154 39v561l-177 38v212h496v-811l152 -39v-189h-625zM-39 1487l142 177l371 -298l-105 -127z" />
    <glyph glyph-name="imacron" unicode="&#x12b;" horiz-adv-x="746" 
d="M60 0v189l154 39v561l-177 38v212h496v-811l152 -39v-189h-625zM92 1243v223h470v-223h-470z" />
    <glyph glyph-name="iogonek" unicode="&#x12f;" horiz-adv-x="746" 
d="M60 0v189l154 39v561l-177 38v212h496v-811l152 -39v-189h-625zM148 1376l188 188h26l188 -188v-26l-188 -189h-26l-188 189v26zM604 -463q-49 -16 -100 -23t-112 -7q-49 0 -90 15t-71 43t-46.5 68.5t-16.5 92.5q0 40 17 81t41.5 77.5t51 66.5l44.5 49h208l-45 -46
t-38.5 -47t-26.5 -50.5t-10 -54.5q0 -51 28.5 -74t70.5 -23q30 0 52.5 2.5t42.5 7.5v-178v0z" />
    <glyph glyph-name="itilde" unicode="&#x129;" horiz-adv-x="746" 
d="M60 0v189l154 39v561l-177 38v212h496v-811l152 -39v-189h-625zM702 1300q-17 -15 -43 -31t-56 -29t-62 -21.5t-61 -8.5q-63 0 -102.5 15t-72.5 35l-33.5 19.5t-34.5 17t-39 12t-47 4.5q-30 0 -58.5 -14t-60.5 -37l-81 168q48 42 103.5 67.5t117.5 25.5q33 0 59.5 -5.5
t49 -14t42 -19.5l38.5 -21q30 -17 61.5 -30t75.5 -13q42 0 70.5 15t56.5 36l77 -171v0z" />
    <glyph glyph-name="ij" unicode="&#x133;" horiz-adv-x="1466" 
d="M60 0v189l154 39v561l-177 38v212h496v-811l152 -39v-189h-625zM148 1376l188 188h26l188 -188v-26l-188 -189h-26l-188 189v26zM659 -208q166 14 242 91t76 232v674l-178 38v212h496v-946q0 -154 -42.5 -255.5t-123 -161.5t-195 -83.5t-258.5 -21.5l-27 205zM910 1376
l188 188h27l188 -188v-26l-188 -189h-27l-188 189v26z" />
    <glyph glyph-name="jcircumflex" unicode="&#x135;" horiz-adv-x="670" 
d="M-113 -208q166 14 242 91t76 232v674l-178 38v212h496v-946q0 -154 -42.5 -255.5t-123 -161.5t-195 -83.5t-258.5 -21.5l-27 205zM404 1515l197 -238l-75 -75l-207 131l-207 -139l-78 76l191 245h179z" />
    <glyph glyph-name="kcommaaccent" unicode="&#x137;" horiz-adv-x="1359" 
d="M978 0l-311 442l-134 -18v-196l128 -39v-189h-600v189l153 39v1120l-157 39v211h476v-993l294 213l-147 30v191h601v-200l-162 -45l-239 -185l301 -374l146 -45v-190h-349zM915 -273q0 -85 -46.5 -155.5t-149.5 -138.5l-69 80q35 34 57 66.5t24 77.5h-74v253h258v-183z
" />
    <glyph glyph-name="kgreenlandic" unicode="&#x138;" horiz-adv-x="1359" 
d="M962 0l-295 442l-134 -99v-115l128 -39v-189h-600v189l153 39v561l-157 38v212h476v-434l294 213l-147 30v191h601v-200l-162 -45l-239 -185l288 -354l152 -65v-190h-358z" />
    <glyph glyph-name="lacute" unicode="&#x13a;" horiz-adv-x="744" 
d="M59 0v189l154 39v1120l-158 39v211h476v-1370l153 -39v-189h-625zM294 1721l-106 126l372 298l142 -177z" />
    <glyph glyph-name="lcaron" unicode="&#x13e;" horiz-adv-x="964" 
d="M59 0v189l154 39v1120l-158 39v211h476v-1370l153 -39v-189h-625zM669 1449l163 164q58 -9 104 -35q19 -11 38 -27.5t34 -39.5t24 -53t9 -68q0 -74 -22 -139.5t-61 -121t-91 -102t-112 -82.5l-84 99q24 23 51 52t50 60.5t39 64.5t18 64l-160 136v28z" />
    <glyph glyph-name="lcommaaccent" unicode="&#x13c;" horiz-adv-x="744" 
d="M59 0v189l154 39v1120l-158 39v211h476v-1370l153 -39v-189h-625zM521 -257q0 -85 -46.5 -155.5t-149.5 -138.5l-69 80q35 34 57 66.5t24 77.5h-74v253h258v-183z" />
    <glyph glyph-name="ldot" unicode="&#x140;" horiz-adv-x="1215" 
d="M59 0v189l154 39v1120l-158 39v211h476v-1370l153 -39v-189h-625zM644 743l187 188h28l194 -194v-27l-189 -188h-26l-194 194v27z" />
    <glyph glyph-name="lslash" unicode="&#x142;" horiz-adv-x="744" 
d="M48 454v282l643 232v-282zM59 0v189l154 39v1120l-158 39v211h476v-1370l153 -39v-189h-625z" />
    <glyph glyph-name="oacute" unicode="&#xf3;" horiz-adv-x="1246" 
d="M1191 519q0 -128 -39.5 -229.5t-113.5 -172t-179 -108.5t-235 -38q-131 0 -236.5 38t-179.5 108.5t-113.5 172t-39.5 229.5t39.5 230t113.5 172.5t179.5 108t236.5 37.5q130 0 235 -37.5t179 -108t113.5 -172.5t39.5 -230zM864 520q0 158 -62.5 239.5t-177.5 81.5
q-117 0 -179.5 -81.5t-62.5 -240.5q0 -157 62.5 -239.5t179.5 -82.5q115 0 177.5 79.5t62.5 243.5zM634 1207l-106 126l372 298l142 -177z" />
    <glyph glyph-name="obreve" unicode="&#x14f;" horiz-adv-x="1246" 
d="M1191 519q0 -128 -39.5 -229.5t-113.5 -172t-179 -108.5t-235 -38q-131 0 -236.5 38t-179.5 108.5t-113.5 172t-39.5 229.5t39.5 230t113.5 172.5t179.5 108t236.5 37.5q130 0 235 -37.5t179 -108t113.5 -172.5t39.5 -230zM864 520q0 158 -62.5 239.5t-177.5 81.5
q-117 0 -179.5 -81.5t-62.5 -240.5q0 -157 62.5 -239.5t179.5 -82.5q115 0 177.5 79.5t62.5 243.5zM959 1474q0 -63 -24 -113.5t-65.5 -86t-97 -54.5t-118.5 -19t-117.5 19.5t-95 55.5t-63.5 86.5t-23 111.5l153 25q2 -28 12 -52.5t29 -43t45.5 -29t61.5 -10.5
q34 0 63.5 9.5t50.5 27.5t32.5 43t11.5 55l145 -25v0z" />
    <glyph glyph-name="ocircumflex" unicode="&#xf4;" horiz-adv-x="1246" 
d="M1191 519q0 -128 -39.5 -229.5t-113.5 -172t-179 -108.5t-235 -38q-131 0 -236.5 38t-179.5 108.5t-113.5 172t-39.5 229.5t39.5 230t113.5 172.5t179.5 108t236.5 37.5q130 0 235 -37.5t179 -108t113.5 -172.5t39.5 -230zM864 520q0 158 -62.5 239.5t-177.5 81.5
q-117 0 -179.5 -81.5t-62.5 -240.5q0 -157 62.5 -239.5t179.5 -82.5q115 0 177.5 79.5t62.5 243.5zM728 1512l197 -238l-75 -75l-207 131l-207 -139l-78 76l191 245h179z" />
    <glyph glyph-name="odieresis" unicode="&#xf6;" horiz-adv-x="1246" 
d="M1191 519q0 -128 -39.5 -229.5t-113.5 -172t-179 -108.5t-235 -38q-131 0 -236.5 38t-179.5 108.5t-113.5 172t-39.5 229.5t39.5 230t113.5 172.5t179.5 108t236.5 37.5q130 0 235 -37.5t179 -108t113.5 -172.5t39.5 -230zM864 520q0 158 -62.5 239.5t-177.5 81.5
q-117 0 -179.5 -81.5t-62.5 -240.5q0 -157 62.5 -239.5t179.5 -82.5q115 0 177.5 79.5t62.5 243.5zM160 1399l193 193h27l193 -193v-27l-193 -193h-27l-193 193v27zM682 1399l193 193h27l193 -193v-27l-193 -193h-27l-193 193v27z" />
    <glyph glyph-name="ograve" unicode="&#xf2;" horiz-adv-x="1246" 
d="M1191 519q0 -128 -39.5 -229.5t-113.5 -172t-179 -108.5t-235 -38q-131 0 -236.5 38t-179.5 108.5t-113.5 172t-39.5 229.5t39.5 230t113.5 172.5t179.5 108t236.5 37.5q130 0 235 -37.5t179 -108t113.5 -172.5t39.5 -230zM864 520q0 158 -62.5 239.5t-177.5 81.5
q-117 0 -179.5 -81.5t-62.5 -240.5q0 -157 62.5 -239.5t179.5 -82.5q115 0 177.5 79.5t62.5 243.5zM244 1452l142 177l371 -298l-105 -127z" />
    <glyph glyph-name="ohungarumlaut" unicode="&#x151;" horiz-adv-x="1246" 
d="M1191 519q0 -128 -39.5 -229.5t-113.5 -172t-179 -108.5t-235 -38q-131 0 -236.5 38t-179.5 108.5t-113.5 172t-39.5 229.5t39.5 230t113.5 172.5t179.5 108t236.5 37.5q130 0 235 -37.5t179 -108t113.5 -172.5t39.5 -230zM864 520q0 158 -62.5 239.5t-177.5 81.5
q-117 0 -179.5 -81.5t-62.5 -240.5q0 -157 62.5 -239.5t179.5 -82.5q115 0 177.5 79.5t62.5 243.5zM345 1188l-105 127l371 297l142 -177zM908 1188l-106 127l372 297l142 -177z" />
    <glyph glyph-name="omacron" unicode="&#x14d;" horiz-adv-x="1246" 
d="M1191 519q0 -128 -39.5 -229.5t-113.5 -172t-179 -108.5t-235 -38q-131 0 -236.5 38t-179.5 108.5t-113.5 172t-39.5 229.5t39.5 230t113.5 172.5t179.5 108t236.5 37.5q130 0 235 -37.5t179 -108t113.5 -172.5t39.5 -230zM864 520q0 158 -62.5 239.5t-177.5 81.5
q-117 0 -179.5 -81.5t-62.5 -240.5q0 -157 62.5 -239.5t179.5 -82.5q115 0 177.5 79.5t62.5 243.5zM400 1218v223h470v-223h-470z" />
    <glyph glyph-name="oslashacute" unicode="&#x1ff;" horiz-adv-x="1246" 
d="M1191 519q0 -128 -39.5 -229.5t-113.5 -172t-179 -108.5t-235 -38q-131 0 -237 38l-72 -106l-139 88l66 97q-91 72 -139 180t-48 251q0 128 39.5 230t113.5 172.5t179.5 108t236.5 37.5q71 0 133.5 -11.5t118.5 -32.5l78 115l138 -87l-75 -111q84 -72 129 -177.5
t45 -243.5zM382 519q0 -108 30 -180l323 477q-46 25 -111 25q-117 0 -179.5 -81.5t-62.5 -240.5zM864 520q0 93 -23 160l-315 -465q43 -18 98 -18q115 0 177.5 79.5t62.5 243.5zM656 1236l-106 126l372 298l142 -177z" />
    <glyph glyph-name="otilde" unicode="&#xf5;" horiz-adv-x="1246" 
d="M1191 519q0 -128 -39.5 -229.5t-113.5 -172t-179 -108.5t-235 -38q-131 0 -236.5 38t-179.5 108.5t-113.5 172t-39.5 229.5t39.5 230t113.5 172.5t179.5 108t236.5 37.5q130 0 235 -37.5t179 -108t113.5 -172.5t39.5 -230zM864 520q0 158 -62.5 239.5t-177.5 81.5
q-117 0 -179.5 -81.5t-62.5 -240.5q0 -157 62.5 -239.5t179.5 -82.5q115 0 177.5 79.5t62.5 243.5zM1029 1301q-17 -15 -43 -31t-56 -29t-62 -21.5t-61 -8.5q-63 0 -102.5 15t-72.5 35l-33.5 19.5t-34.5 17t-39 12t-47 4.5q-30 0 -58.5 -14t-60.5 -37l-81 168
q48 42 103.5 67.5t117.5 25.5q33 0 59.5 -5.5t49 -14t42 -19.5l38.5 -21q30 -17 61.5 -30t75.5 -13q42 0 70.5 15t56.5 36l77 -171v0z" />
    <glyph glyph-name="racute" unicode="&#x155;" horiz-adv-x="1064" 
d="M48 827v212h476v-98l-43 -163q3 0 6 -0.5t6 -0.5q16 48 45 99t74 93.5t107.5 70t146.5 27.5q25 0 49 -2.5t42 -5.5q21 -4 40 -8v-478h-223l-23 228q-56 -12 -97 -55.5t-68 -106t-40 -136.5t-13 -146v-129l191 -39v-189h-663v189l153 39v561zM517 1186l-106 126l372 298
l142 -177z" />
    <glyph glyph-name="rcaron" unicode="&#x159;" horiz-adv-x="1064" 
d="M48 827v212h476v-98l-43 -163q3 0 6 -0.5t6 -0.5q16 48 45 99t74 93.5t107.5 70t146.5 27.5q25 0 49 -2.5t42 -5.5q21 -4 40 -8v-478h-223l-23 228q-56 -12 -97 -55.5t-68 -106t-40 -136.5t-13 -146v-129l191 -39v-189h-663v189l153 39v561zM467 1209l-191 245l78 76
l207 -140l207 132l75 -75l-197 -238h-179z" />
    <glyph glyph-name="rcommaaccent" unicode="&#x157;" horiz-adv-x="1064" 
d="M48 827v212h476v-98l-43 -163q3 0 6 -0.5t6 -0.5q16 48 45 99t74 93.5t107.5 70t146.5 27.5q25 0 49 -2.5t42 -5.5q21 -4 40 -8v-478h-223l-23 228q-56 -12 -97 -55.5t-68 -106t-40 -136.5t-13 -146v-129l191 -39v-189h-663v189l153 39v561zM538 -288q0 -85 -46.5 -155.5
t-149.5 -138.5l-69 80q35 34 57 66.5t24 77.5h-74v253h258v-183z" />
    <glyph glyph-name="sacute" unicode="&#x15b;" horiz-adv-x="1097" 
d="M1024 302q0 -84 -34.5 -146.5t-99.5 -103.5t-157.5 -61t-207.5 -20q-63 0 -127.5 7.5t-122 19t-104 24t-73.5 21.5v310h252l40 -146q9 -2 26 -4.5t38 -5t42 -4t38 -1.5q19 0 47 2.5t54 12t44 29t18 52.5q0 15 -7 26.5t-27.5 22.5t-58.5 22.5t-100 28.5
q-90 24 -166.5 47.5t-132.5 60t-87.5 92t-31.5 143.5q0 66 21 116.5t56.5 87.5t83 62.5t101 41t109.5 22t110 6.5q52 0 112 -6t117 -16t105 -22t78 -24v-352h-229l-28 188q-11 2 -30.5 4.5t-42 5t-45 4t-39.5 1.5q-78 0 -115 -24.5t-37 -65.5q0 -31 15.5 -51.5t45 -35.5
t70.5 -27l92 -26q85 -23 156.5 -48t123 -60t80 -85.5t28.5 -124.5zM578 1203l-106 126l372 298l142 -177z" />
    <glyph glyph-name="scaron" unicode="&#x161;" horiz-adv-x="1097" 
d="M1024 302q0 -84 -34.5 -146.5t-99.5 -103.5t-157.5 -61t-207.5 -20q-63 0 -127.5 7.5t-122 19t-104 24t-73.5 21.5v310h252l40 -146q9 -2 26 -4.5t38 -5t42 -4t38 -1.5q19 0 47 2.5t54 12t44 29t18 52.5q0 15 -7 26.5t-27.5 22.5t-58.5 22.5t-100 28.5
q-90 24 -166.5 47.5t-132.5 60t-87.5 92t-31.5 143.5q0 66 21 116.5t56.5 87.5t83 62.5t101 41t109.5 22t110 6.5q52 0 112 -6t117 -16t105 -22t78 -24v-352h-229l-28 188q-11 2 -30.5 4.5t-42 5t-45 4t-39.5 1.5q-78 0 -115 -24.5t-37 -65.5q0 -31 15.5 -51.5t45 -35.5
t70.5 -27l92 -26q85 -23 156.5 -48t123 -60t80 -85.5t28.5 -124.5zM503 1213l-191 245l78 76l207 -140l207 132l75 -75l-197 -238h-179z" />
    <glyph glyph-name="scedilla" unicode="&#x15f;" horiz-adv-x="1097" 
d="M1024 302q0 -84 -34.5 -146.5t-99.5 -103.5t-157.5 -61t-207.5 -20q-63 0 -127.5 7.5t-122 19t-104 24t-73.5 21.5v310h252l40 -146q9 -2 26 -4.5t38 -5t42 -4t38 -1.5q19 0 47 2.5t54 12t44 29t18 52.5q0 15 -7 26.5t-27.5 22.5t-58.5 22.5t-100 28.5
q-90 24 -166.5 47.5t-132.5 60t-87.5 92t-31.5 143.5q0 66 21 116.5t56.5 87.5t83 62.5t101 41t109.5 22t110 6.5q52 0 112 -6t117 -16t105 -22t78 -24v-352h-229l-28 188q-11 2 -30.5 4.5t-42 5t-45 4t-39.5 1.5q-78 0 -115 -24.5t-37 -65.5q0 -31 15.5 -51.5t45 -35.5
t70.5 -27l92 -26q85 -23 156.5 -48t123 -60t80 -85.5t28.5 -124.5zM695 -104q20 -38 32 -70t12 -73q0 -44 -18 -84.5t-51.5 -77t-81 -67.5t-105.5 -55l-88 101q25 22 44 43.5t32 45t20 50.5t7 61q0 38 -10.5 69t-27.5 57h235v0z" />
    <glyph glyph-name="scircumflex" unicode="&#x15d;" horiz-adv-x="1097" 
d="M1024 302q0 -84 -34.5 -146.5t-99.5 -103.5t-157.5 -61t-207.5 -20q-63 0 -127.5 7.5t-122 19t-104 24t-73.5 21.5v310h252l40 -146q9 -2 26 -4.5t38 -5t42 -4t38 -1.5q19 0 47 2.5t54 12t44 29t18 52.5q0 15 -7 26.5t-27.5 22.5t-58.5 22.5t-100 28.5
q-90 24 -166.5 47.5t-132.5 60t-87.5 92t-31.5 143.5q0 66 21 116.5t56.5 87.5t83 62.5t101 41t109.5 22t110 6.5q52 0 112 -6t117 -16t105 -22t78 -24v-352h-229l-28 188q-11 2 -30.5 4.5t-42 5t-45 4t-39.5 1.5q-78 0 -115 -24.5t-37 -65.5q0 -31 15.5 -51.5t45 -35.5
t70.5 -27l92 -26q85 -23 156.5 -48t123 -60t80 -85.5t28.5 -124.5zM664 1502l197 -238l-75 -75l-207 131l-207 -139l-78 76l191 245h179z" />
    <glyph glyph-name="scommaaccent" unicode="&#x219;" horiz-adv-x="1097" 
d="M1024 302q0 -84 -34.5 -146.5t-99.5 -103.5t-157.5 -61t-207.5 -20q-63 0 -127.5 7.5t-122 19t-104 24t-73.5 21.5v310h252l40 -146q9 -2 26 -4.5t38 -5t42 -4t38 -1.5q19 0 47 2.5t54 12t44 29t18 52.5q0 15 -7 26.5t-27.5 22.5t-58.5 22.5t-100 28.5
q-90 24 -166.5 47.5t-132.5 60t-87.5 92t-31.5 143.5q0 66 21 116.5t56.5 87.5t83 62.5t101 41t109.5 22t110 6.5q52 0 112 -6t117 -16t105 -22t78 -24v-352h-229l-28 188q-11 2 -30.5 4.5t-42 5t-45 4t-39.5 1.5q-78 0 -115 -24.5t-37 -65.5q0 -31 15.5 -51.5t45 -35.5
t70.5 -27l92 -26q85 -23 156.5 -48t123 -60t80 -85.5t28.5 -124.5zM688 -306q0 -85 -46.5 -155.5t-149.5 -138.5l-69 80q35 34 57 66.5t24 77.5h-74v253h258v-183z" />
    <glyph glyph-name="tbar" unicode="&#x167;" horiz-adv-x="888" 
d="M801 226l24 -203q-23 -8 -57 -17t-75 -16.5t-86.5 -13t-90.5 -5.5q-102 0 -171 19t-111 56t-60 91.5t-18 125.5v550h-166v224l172 53l49 185h263v-236h315v-226h-315v-449q0 -38 5.5 -67.5t21 -49.5t43 -31t70.5 -11q57 0 97.5 10l74.5 19zM82 441v223h470v-223h-470z
" />
    <glyph glyph-name="tcaron" unicode="&#x165;" horiz-adv-x="1238" 
d="M801 226l24 -203q-23 -8 -57 -17t-75 -16.5t-86.5 -13t-90.5 -5.5q-102 0 -171 19t-111 56t-60 91.5t-18 125.5v550h-166v224l172 53l49 185h263v-236h315v-226h-315v-449q0 -38 5.5 -67.5t21 -49.5t43 -31t70.5 -11q57 0 97.5 10l74.5 19zM894 1449l163 164
q58 -9 104 -35q19 -11 38 -27.5t34 -39.5t24 -53t9 -68q0 -74 -22 -139.5t-61 -121t-91 -102t-112 -82.5l-84 99q24 23 51 52t50 60.5t39 64.5t18 64l-160 136v28z" />
    <glyph glyph-name="tcommaaccent" unicode="&#x163;" horiz-adv-x="888" 
d="M801 226l24 -203q-23 -8 -57 -17t-75 -16.5t-86.5 -13t-90.5 -5.5q-102 0 -171 19t-111 56t-60 91.5t-18 125.5v550h-166v224l172 53l49 185h263v-236h315v-226h-315v-449q0 -38 5.5 -67.5t21 -49.5t43 -31t70.5 -11q57 0 97.5 10l74.5 19zM636 -343q0 -85 -46.5 -155.5
t-149.5 -138.5l-69 80q35 34 57 66.5t24 77.5h-74v253h258v-183z" />
    <glyph glyph-name="uacute" unicode="&#xfa;" horiz-adv-x="1415" 
d="M909 0v160l26 102h-10q-14 -48 -45.5 -99t-79.5 -94t-113 -70.5t-147 -27.5q-91 0 -157.5 28t-109.5 81.5t-63.5 131.5t-20.5 177v400l-177 38v212h496v-644q0 -30 4.5 -62t17.5 -58t37.5 -43t65.5 -17q61 0 108 43.5t78.5 112t47.5 151.5t16 162v105l-177 38v212h496
v-811l152 -39v-189h-445zM628 1201l-106 126l372 298l142 -177z" />
    <glyph glyph-name="ubreve" unicode="&#x16d;" horiz-adv-x="1415" 
d="M909 0v160l26 102h-10q-14 -48 -45.5 -99t-79.5 -94t-113 -70.5t-147 -27.5q-91 0 -157.5 28t-109.5 81.5t-63.5 131.5t-20.5 177v400l-177 38v212h496v-644q0 -30 4.5 -62t17.5 -58t37.5 -43t65.5 -17q61 0 108 43.5t78.5 112t47.5 151.5t16 162v105l-177 38v212h496
v-811l152 -39v-189h-445zM971 1486q0 -63 -24 -113.5t-65.5 -86t-97 -54.5t-118.5 -19t-117.5 19.5t-95 55.5t-63.5 86.5t-23 111.5l153 25q2 -28 12 -52.5t29 -43t45.5 -29t61.5 -10.5q34 0 63.5 9.5t50.5 27.5t32.5 43t11.5 55l145 -25v0z" />
    <glyph glyph-name="ucircumflex" unicode="&#xfb;" horiz-adv-x="1415" 
d="M909 0v160l26 102h-10q-14 -48 -45.5 -99t-79.5 -94t-113 -70.5t-147 -27.5q-91 0 -157.5 28t-109.5 81.5t-63.5 131.5t-20.5 177v400l-177 38v212h496v-644q0 -30 4.5 -62t17.5 -58t37.5 -43t65.5 -17q61 0 108 43.5t78.5 112t47.5 151.5t16 162v105l-177 38v212h496
v-811l152 -39v-189h-445zM745 1539l197 -238l-75 -75l-207 131l-207 -139l-78 76l191 245h179z" />
    <glyph glyph-name="udieresis" unicode="&#xfc;" horiz-adv-x="1415" 
d="M909 0v160l26 102h-10q-14 -48 -45.5 -99t-79.5 -94t-113 -70.5t-147 -27.5q-91 0 -157.5 28t-109.5 81.5t-63.5 131.5t-20.5 177v400l-177 38v212h496v-644q0 -30 4.5 -62t17.5 -58t37.5 -43t65.5 -17q61 0 108 43.5t78.5 112t47.5 151.5t16 162v105l-177 38v212h496
v-811l152 -39v-189h-445zM177 1431l193 193h27l193 -193v-27l-193 -193h-27l-193 193v27zM699 1431l193 193h27l193 -193v-27l-193 -193h-27l-193 193v27z" />
    <glyph glyph-name="uhungarumlaut" unicode="&#x171;" horiz-adv-x="1415" 
d="M909 0v160l26 102h-10q-14 -48 -45.5 -99t-79.5 -94t-113 -70.5t-147 -27.5q-91 0 -157.5 28t-109.5 81.5t-63.5 131.5t-20.5 177v400l-177 38v212h496v-644q0 -30 4.5 -62t17.5 -58t37.5 -43t65.5 -17q61 0 108 43.5t78.5 112t47.5 151.5t16 162v105l-177 38v212h496
v-811l152 -39v-189h-445zM315 1213l-105 127l371 297l142 -177zM878 1213l-106 127l372 297l142 -177z" />
    <glyph glyph-name="ugrave" unicode="&#xf9;" horiz-adv-x="1415" 
d="M909 0v160l26 102h-10q-14 -48 -45.5 -99t-79.5 -94t-113 -70.5t-147 -27.5q-91 0 -157.5 28t-109.5 81.5t-63.5 131.5t-20.5 177v400l-177 38v212h496v-644q0 -30 4.5 -62t17.5 -58t37.5 -43t65.5 -17q61 0 108 43.5t78.5 112t47.5 151.5t16 162v105l-177 38v212h496
v-811l152 -39v-189h-445zM300 1466l142 177l371 -298l-105 -127z" />
    <glyph glyph-name="umacron" unicode="&#x16b;" horiz-adv-x="1415" 
d="M909 0v160l26 102h-10q-14 -48 -45.5 -99t-79.5 -94t-113 -70.5t-147 -27.5q-91 0 -157.5 28t-109.5 81.5t-63.5 131.5t-20.5 177v400l-177 38v212h496v-644q0 -30 4.5 -62t17.5 -58t37.5 -43t65.5 -17q61 0 108 43.5t78.5 112t47.5 151.5t16 162v105l-177 38v212h496
v-811l152 -39v-189h-445zM409 1209v223h470v-223h-470z" />
    <glyph glyph-name="uogonek" unicode="&#x173;" horiz-adv-x="1415" 
d="M909 0v160l26 102h-10q-14 -48 -45.5 -99t-79.5 -94t-113 -70.5t-147 -27.5q-91 0 -157.5 28t-109.5 81.5t-63.5 131.5t-20.5 177v400l-177 38v212h496v-644q0 -30 4.5 -62t17.5 -58t37.5 -43t65.5 -17q61 0 108 43.5t78.5 112t47.5 151.5t16 162v105l-177 38v212h496
v-811l152 -39v-189h-445zM1425 -462q-49 -16 -100 -23t-112 -7q-49 0 -90 15t-71 43t-46.5 68.5t-16.5 92.5q0 40 17 81t41.5 77.5t51 66.5l44.5 49h208l-45 -46t-38.5 -47t-26.5 -50.5t-10 -54.5q0 -51 28.5 -74t70.5 -23q30 0 52.5 2.5t42.5 7.5v-178v0z" />
    <glyph glyph-name="uring" unicode="&#x16f;" horiz-adv-x="1415" 
d="M909 0v160l26 102h-10q-14 -48 -45.5 -99t-79.5 -94t-113 -70.5t-147 -27.5q-91 0 -157.5 28t-109.5 81.5t-63.5 131.5t-20.5 177v400l-177 38v212h496v-644q0 -30 4.5 -62t17.5 -58t37.5 -43t65.5 -17q61 0 108 43.5t78.5 112t47.5 151.5t16 162v105l-177 38v212h496
v-811l152 -39v-189h-445zM937 1454q0 -55 -21 -101t-57.5 -79.5t-85 -52.5t-103.5 -19t-103.5 18.5t-84.5 52t-57 80t-21 101.5t21 101.5t57 80t84.5 52.5t103.5 19t103.5 -19t85 -52.5t57.5 -80t21 -101.5zM772 1454q0 21 -8 40t-22 33.5t-32.5 22.5t-39.5 8t-39.5 -8
t-32.5 -22.5t-22 -33.5t-8 -40t8 -40t22 -33t32.5 -22.5t39.5 -8.5t39.5 8.5t32.5 22.5t22 33t8 40z" />
    <glyph glyph-name="utilde" unicode="&#x169;" horiz-adv-x="1415" 
d="M909 0v160l26 102h-10q-14 -48 -45.5 -99t-79.5 -94t-113 -70.5t-147 -27.5q-91 0 -157.5 28t-109.5 81.5t-63.5 131.5t-20.5 177v400l-177 38v212h496v-644q0 -30 4.5 -62t17.5 -58t37.5 -43t65.5 -17q61 0 108 43.5t78.5 112t47.5 151.5t16 162v105l-177 38v212h496
v-811l152 -39v-189h-445zM1013 1283q-17 -15 -43 -31t-56 -29t-62 -21.5t-61 -8.5q-63 0 -102.5 15t-72.5 35l-33.5 19.5t-34.5 17t-39 12t-47 4.5q-30 0 -58.5 -14t-60.5 -37l-81 168q48 42 103.5 67.5t117.5 25.5q33 0 59.5 -5.5t49 -14t42 -19.5l38.5 -21
q30 -17 61.5 -30t75.5 -13q42 0 70.5 15t56.5 36l77 -171v0z" />
    <glyph glyph-name="wacute" unicode="&#x1e83;" horiz-adv-x="2000" 
d="M1841 802l-333 -802h-357l-156 528l-181 -528h-357l-320 803l-112 24v212h585v-212l-124 -25l144 -446l18 -107h17l185 553l-134 25v212h591v-212l-119 -24l140 -454l20 -100h19l176 553l-132 25v212h544v-212zM1031 1243l-106 126l372 298l142 -177z" />
    <glyph glyph-name="wcircumflex" unicode="&#x175;" horiz-adv-x="2000" 
d="M1841 802l-333 -802h-357l-156 528l-181 -528h-357l-320 803l-112 24v212h585v-212l-124 -25l144 -446l18 -107h17l185 553l-134 25v212h591v-212l-119 -24l140 -454l20 -100h19l176 553l-132 25v212h544v-212zM1110 1549l197 -238l-75 -75l-207 131l-207 -139l-78 76
l191 245h179z" />
    <glyph glyph-name="wdieresis" unicode="&#x1e85;" horiz-adv-x="2000" 
d="M1841 802l-333 -802h-357l-156 528l-181 -528h-357l-320 803l-112 24v212h585v-212l-124 -25l144 -446l18 -107h17l185 553l-134 25v212h591v-212l-119 -24l140 -454l20 -100h19l176 553l-132 25v212h544v-212zM546 1453l193 193h27l193 -193v-27l-193 -193h-27l-193 193
v27zM1068 1453l193 193h27l193 -193v-27l-193 -193h-27l-193 193v27z" />
    <glyph glyph-name="wgrave" unicode="&#x1e81;" horiz-adv-x="2000" 
d="M1841 802l-333 -802h-357l-156 528l-181 -528h-357l-320 803l-112 24v212h585v-212l-124 -25l144 -446l18 -107h17l185 553l-134 25v212h591v-212l-119 -24l140 -454l20 -100h19l176 553l-132 25v212h544v-212zM623 1477l142 177l371 -298l-105 -127z" />
    <glyph glyph-name="yacute" unicode="&#xfd;" horiz-adv-x="1386" 
d="M1232 802l-407 -937q-35 -80 -76 -140t-94 -100.5t-120.5 -61t-154.5 -20.5q-65 0 -114 8.5t-87 17.5v216q32 -6 77 -11t80 -5q61 0 102.5 13t69 33t43.5 44t25 47l37 94h-102l-355 802l-113 25v212h585v-212l-125 -25l174 -442l21 -111h17l205 553l-134 25v212h560v-211
zM720 1209l-106 126l372 298l142 -177z" />
    <glyph glyph-name="ycircumflex" unicode="&#x177;" horiz-adv-x="1386" 
d="M1232 802l-407 -937q-35 -80 -76 -140t-94 -100.5t-120.5 -61t-154.5 -20.5q-65 0 -114 8.5t-87 17.5v216q32 -6 77 -11t80 -5q61 0 102.5 13t69 33t43.5 44t25 47l37 94h-102l-355 802l-113 25v212h585v-212l-125 -25l174 -442l21 -111h17l205 553l-134 25v212h560v-211
zM812 1520l197 -238l-75 -75l-207 131l-207 -139l-78 76l191 245h179z" />
    <glyph glyph-name="ydieresis" unicode="&#xff;" horiz-adv-x="1386" 
d="M1232 802l-407 -937q-35 -80 -76 -140t-94 -100.5t-120.5 -61t-154.5 -20.5q-65 0 -114 8.5t-87 17.5v216q32 -6 77 -11t80 -5q61 0 102.5 13t69 33t43.5 44t25 47l37 94h-102l-355 802l-113 25v212h585v-212l-125 -25l174 -442l21 -111h17l205 553l-134 25v212h560v-211
zM244 1416l193 193h27l193 -193v-27l-193 -193h-27l-193 193v27zM766 1416l193 193h27l193 -193v-27l-193 -193h-27l-193 193v27z" />
    <glyph glyph-name="ygrave" unicode="&#x1ef3;" horiz-adv-x="1386" 
d="M1232 802l-407 -937q-35 -80 -76 -140t-94 -100.5t-120.5 -61t-154.5 -20.5q-65 0 -114 8.5t-87 17.5v216q32 -6 77 -11t80 -5q61 0 102.5 13t69 33t43.5 44t25 47l37 94h-102l-355 802l-113 25v212h585v-212l-125 -25l174 -442l21 -111h17l205 553l-134 25v212h560v-211
zM322 1444l142 177l371 -298l-105 -127z" />
    <glyph glyph-name="zacute" unicode="&#x17a;" horiz-adv-x="1089" 
d="M1004 0h-933v252l481 491l72 64v6h-304l-34 -232h-219v458h930v-252l-480 -492l-82 -78v-6l34 14h282l33 195h220v-420zM568 1230l-106 126l372 298l142 -177z" />
    <glyph glyph-name="zcaron" unicode="&#x17e;" horiz-adv-x="1089" 
d="M1004 0h-933v252l481 491l72 64v6h-304l-34 -232h-219v458h930v-252l-480 -492l-82 -78v-6l34 14h282l33 195h220v-420zM476 1244l-191 245l78 76l207 -140l207 132l75 -75l-197 -238h-179z" />
    <glyph glyph-name="zdotaccent" unicode="&#x17c;" horiz-adv-x="1089" 
d="M1004 0h-933v252l481 491l72 64v6h-304l-34 -232h-219v458h930v-252l-480 -492l-82 -78v-6l34 14h282l33 195h220v-420zM368 1451l193 193h27l193 -193v-27l-193 -193h-27l-193 193v27z" />
    <glyph glyph-name="gbreve" unicode="&#x11f;" horiz-adv-x="1243" 
d="M558 309h-21.5t-21.5 1l-53 -53q5 -11 13.5 -23t28 -22t54.5 -17t94 -8q110 -1 203.5 -17t161.5 -52t106.5 -93.5t38.5 -140.5q0 -92 -45 -163t-124.5 -119t-187.5 -72.5t-235 -24.5q-128 0 -232.5 18.5t-178.5 56t-114.5 94t-40.5 133.5q0 105 70 168t191 91
q-51 21 -76.5 64t-25.5 104l133 122q-48 19 -91 47.5t-75 67.5t-50.5 90t-18.5 115q0 97 38.5 170.5t105 122.5t157 73.5t195.5 24.5q57 0 108 -7.5t108 -20.5h402v-226l-192 20l-4 -8q12 -6 21 -14t17 -17q16 -20 26 -49t10 -69q0 -71 -22.5 -126t-61 -96t-88.5 -68.5
t-105 -44.5t-111.5 -24.5t-106.5 -7.5zM834 -150q0 32 -17.5 53t-48.5 34t-73 18.5t-90 6.5q-9 0 -30 1t-45.5 3t-47 3.5t-33.5 3.5q-21 -9 -42 -20.5t-37.5 -27t-27 -35.5t-10.5 -46q0 -32 21.5 -53.5t56.5 -35t81 -19.5t95 -6q44 0 88.5 5.5t80 19t57.5 36.5t22 59z
M738 689q0 34 -12.5 64t-35.5 52.5t-56.5 35.5t-75.5 13t-75.5 -13t-57.5 -35.5t-36.5 -52t-12.5 -61.5q0 -36 11.5 -67.5t34 -54.5t57 -36t79.5 -13t79 13t56.5 36t33.5 53.5t11 65.5zM931 1531q0 -63 -24 -113.5t-65.5 -86t-97 -54.5t-118.5 -19t-117.5 19.5t-95 55.5
t-63.5 86.5t-23 111.5l153 25q2 -28 12 -52.5t29 -43t45.5 -29t61.5 -10.5q34 0 63.5 9.5t50.5 27.5t32.5 43t11.5 55l145 -25v0z" />
    <glyph glyph-name="gcircumflex" unicode="&#x11d;" horiz-adv-x="1243" 
d="M558 309h-21.5t-21.5 1l-53 -53q5 -11 13.5 -23t28 -22t54.5 -17t94 -8q110 -1 203.5 -17t161.5 -52t106.5 -93.5t38.5 -140.5q0 -92 -45 -163t-124.5 -119t-187.5 -72.5t-235 -24.5q-128 0 -232.5 18.5t-178.5 56t-114.5 94t-40.5 133.5q0 105 70 168t191 91
q-51 21 -76.5 64t-25.5 104l133 122q-48 19 -91 47.5t-75 67.5t-50.5 90t-18.5 115q0 97 38.5 170.5t105 122.5t157 73.5t195.5 24.5q57 0 108 -7.5t108 -20.5h402v-226l-192 20l-4 -8q12 -6 21 -14t17 -17q16 -20 26 -49t10 -69q0 -71 -22.5 -126t-61 -96t-88.5 -68.5
t-105 -44.5t-111.5 -24.5t-106.5 -7.5zM834 -150q0 32 -17.5 53t-48.5 34t-73 18.5t-90 6.5q-9 0 -30 1t-45.5 3t-47 3.5t-33.5 3.5q-21 -9 -42 -20.5t-37.5 -27t-27 -35.5t-10.5 -46q0 -32 21.5 -53.5t56.5 -35t81 -19.5t95 -6q44 0 88.5 5.5t80 19t57.5 36.5t22 59z
M738 689q0 34 -12.5 64t-35.5 52.5t-56.5 35.5t-75.5 13t-75.5 -13t-57.5 -35.5t-36.5 -52t-12.5 -61.5q0 -36 11.5 -67.5t34 -54.5t57 -36t79.5 -13t79 13t56.5 36t33.5 53.5t11 65.5zM695 1565l197 -238l-75 -75l-207 131l-207 -139l-78 76l191 245h179z" />
    <glyph glyph-name="gcommaaccent" unicode="&#x123;" horiz-adv-x="1243" 
d="M558 309h-21.5t-21.5 1l-53 -53q5 -11 13.5 -23t28 -22t54.5 -17t94 -8q110 -1 203.5 -17t161.5 -52t106.5 -93.5t38.5 -140.5q0 -92 -45 -163t-124.5 -119t-187.5 -72.5t-235 -24.5q-128 0 -232.5 18.5t-178.5 56t-114.5 94t-40.5 133.5q0 105 70 168t191 91
q-51 21 -76.5 64t-25.5 104l133 122q-48 19 -91 47.5t-75 67.5t-50.5 90t-18.5 115q0 97 38.5 170.5t105 122.5t157 73.5t195.5 24.5q57 0 108 -7.5t108 -20.5h402v-226l-192 20l-4 -8q12 -6 21 -14t17 -17q16 -20 26 -49t10 -69q0 -71 -22.5 -126t-61 -96t-88.5 -68.5
t-105 -44.5t-111.5 -24.5t-106.5 -7.5zM834 -150q0 32 -17.5 53t-48.5 34t-73 18.5t-90 6.5q-9 0 -30 1t-45.5 3t-47 3.5t-33.5 3.5q-21 -9 -42 -20.5t-37.5 -27t-27 -35.5t-10.5 -46q0 -32 21.5 -53.5t56.5 -35t81 -19.5t95 -6q44 0 88.5 5.5t80 19t57.5 36.5t22 59z
M738 689q0 34 -12.5 64t-35.5 52.5t-56.5 35.5t-75.5 13t-75.5 -13t-57.5 -35.5t-36.5 -52t-12.5 -61.5q0 -36 11.5 -67.5t34 -54.5t57 -36t79.5 -13t79 13t56.5 36t33.5 53.5t11 65.5zM476.025 1438.03q0 84.9941 46.4971 155.49t149.49 138.491l68.9961 -79.9951
q-34.998 -33.998 -56.9961 -66.4961q-21.999 -32.498 -23.999 -77.4951h73.9961v-252.984h-257.984v182.989z" />
    <glyph glyph-name="gdotaccent" unicode="&#x121;" horiz-adv-x="1243" 
d="M558 309h-21.5t-21.5 1l-53 -53q5 -11 13.5 -23t28 -22t54.5 -17t94 -8q110 -1 203.5 -17t161.5 -52t106.5 -93.5t38.5 -140.5q0 -92 -45 -163t-124.5 -119t-187.5 -72.5t-235 -24.5q-128 0 -232.5 18.5t-178.5 56t-114.5 94t-40.5 133.5q0 105 70 168t191 91
q-51 21 -76.5 64t-25.5 104l133 122q-48 19 -91 47.5t-75 67.5t-50.5 90t-18.5 115q0 97 38.5 170.5t105 122.5t157 73.5t195.5 24.5q57 0 108 -7.5t108 -20.5h402v-226l-192 20l-4 -8q12 -6 21 -14t17 -17q16 -20 26 -49t10 -69q0 -71 -22.5 -126t-61 -96t-88.5 -68.5
t-105 -44.5t-111.5 -24.5t-106.5 -7.5zM834 -150q0 32 -17.5 53t-48.5 34t-73 18.5t-90 6.5q-9 0 -30 1t-45.5 3t-47 3.5t-33.5 3.5q-21 -9 -42 -20.5t-37.5 -27t-27 -35.5t-10.5 -46q0 -32 21.5 -53.5t56.5 -35t81 -19.5t95 -6q44 0 88.5 5.5t80 19t57.5 36.5t22 59z
M738 689q0 34 -12.5 64t-35.5 52.5t-56.5 35.5t-75.5 13t-75.5 -13t-57.5 -35.5t-36.5 -52t-12.5 -61.5q0 -36 11.5 -67.5t34 -54.5t57 -36t79.5 -13t79 13t56.5 36t33.5 53.5t11 65.5zM391 1448l193 193h27l193 -193v-27l-193 -193h-27l-193 193v27z" />
    <glyph glyph-name="nacute" unicode="&#x144;" horiz-adv-x="1421" 
d="M779 0v199l130 29v415q0 95 -31.5 137.5t-94.5 42.5q-53 0 -98.5 -38.5t-79.5 -103t-53 -149.5t-19 -178v-126l128 -39v-189h-600v189l153 39v560l-166 38v212h476v-98l-41 -163h10q18 50 49 101.5t77.5 93.5t108.5 68.5t142 26.5q181 0 268.5 -103.5t87.5 -305.5v-430
l154 -39v-189h-601zM747 1191l-106 126l372 298l142 -177z" />
    <glyph glyph-name="napostrophe" unicode="&#x149;" horiz-adv-x="1804" 
d="M1111 0v199l130 29v415q0 95 -31.5 137.5t-94.5 42.5q-53 0 -98.5 -38.5t-79.5 -103t-53 -149.5t-19 -178v-126l128 -39v-189h-600v189l153 39v560l-166 38v212h476v-98l-41 -163h10q18 50 49 101.5t77.5 93.5t108.5 68.5t142 26.5q181 0 268.5 -103.5t87.5 -305.5v-430
l154 -39v-189h-601zM279 1280q0 -85 -46.5 -155.5t-149.5 -138.5l-69 80q35 34 57 66.5t24 77.5h-74v253h258v-183z" />
    <glyph glyph-name="ncaron" unicode="&#x148;" horiz-adv-x="1421" 
d="M779 0v199l130 29v415q0 95 -31.5 137.5t-94.5 42.5q-53 0 -98.5 -38.5t-79.5 -103t-53 -149.5t-19 -178v-126l128 -39v-189h-600v189l153 39v560l-166 38v212h476v-98l-41 -163h10q18 50 49 101.5t77.5 93.5t108.5 68.5t142 26.5q181 0 268.5 -103.5t87.5 -305.5v-430
l154 -39v-189h-601zM651 1241l-191 245l78 76l207 -140l207 132l75 -75l-197 -238h-179z" />
    <glyph glyph-name="ncommaaccent" unicode="&#x146;" horiz-adv-x="1421" 
d="M779 0v199l130 29v415q0 95 -31.5 137.5t-94.5 42.5q-53 0 -98.5 -38.5t-79.5 -103t-53 -149.5t-19 -178v-126l128 -39v-189h-600v189l153 39v560l-166 38v212h476v-98l-41 -163h10q18 50 49 101.5t77.5 93.5t108.5 68.5t142 26.5q181 0 268.5 -103.5t87.5 -305.5v-430
l154 -39v-189h-601zM873 -268q0 -85 -46.5 -155.5t-149.5 -138.5l-69 80q35 34 57 66.5t24 77.5h-74v253h258v-183z" />
    <glyph glyph-name="ntilde" unicode="&#xf1;" horiz-adv-x="1421" 
d="M779 0v199l130 29v415q0 95 -31.5 137.5t-94.5 42.5q-53 0 -98.5 -38.5t-79.5 -103t-53 -149.5t-19 -178v-126l128 -39v-189h-600v189l153 39v560l-166 38v212h476v-98l-41 -163h10q18 50 49 101.5t77.5 93.5t108.5 68.5t142 26.5q181 0 268.5 -103.5t87.5 -305.5v-430
l154 -39v-189h-601zM1117 1304q-17 -15 -43 -31t-56 -29t-62 -21.5t-61 -8.5q-63 0 -102.5 15t-72.5 35l-33.5 19.5t-34.5 17t-39 12t-47 4.5q-30 0 -58.5 -14t-60.5 -37l-81 168q48 42 103.5 67.5t117.5 25.5q33 0 59.5 -5.5t49 -14t42 -19.5l38.5 -21q30 -17 61.5 -30
t75.5 -13q42 0 70.5 15t56.5 36l77 -171v0z" />
    <glyph glyph-name="Eth" unicode="&#xd0;" horiz-adv-x="1662" 
d="M1577 761q0 -182 -53.5 -323.5t-152.5 -239t-239.5 -148t-314.5 -50.5h-732v205l166 38v968l-167 36v211h753q168 0 305 -42.5t233.5 -128.5t149 -217t52.5 -309zM1225 743q0 58 -9.5 116.5t-31.5 111.5t-57.5 98.5t-87.5 79t-122 52.5t-160 19h-163v-982h167
q93 0 164 21t122.5 57.5t85.5 85.5t54.5 105t29 116.5t8.5 119.5zM106 594v223h470v-223h-470z" />
    <glyph glyph-name="Thorn" unicode="&#xde;" horiz-adv-x="1384" 
d="M594 1237v-89h185q151 0 256.5 -25t172.5 -76t97.5 -129t30.5 -184q0 -98 -34 -177t-101 -134.5t-168 -85.5t-234 -30h-205v-89l167 -39v-179h-677v179l167 39v1019l-167 35v186h677v-186zM594 910v-365h151q53 0 97 7t76 27t49.5 56t17.5 94q0 53 -13 88t-43 55.5
t-78 29t-118 8.5h-139z" />
    <glyph glyph-name="Eng" unicode="&#x14a;" horiz-adv-x="1807" 
d="M1559 1208v-1085q0 -135 -42.5 -233.5t-124 -162t-200.5 -92.5t-272 -26l-30 213l10 15q63 4 113 21t88 43t63 59.5t39 72.5l-601 912l-65 127h-15l6 -144v-685l165 -38v-205h-609v205l167 38v965l-196 38v212h598l550 -871l73 -144h14l-8 170v595l-172 38v212h623v-211z
" />
    <glyph glyph-name="eng" unicode="&#x14b;" horiz-adv-x="1421" 
d="M590 -208q84 7 144.5 37t99 79t57 114t18.5 142v479q0 95 -31.5 137.5t-94.5 42.5q-53 0 -98.5 -38.5t-79.5 -103t-53 -149.5t-19 -178v-126l128 -39v-189h-600v189l153 39v560l-166 38v212h476v-98l-41 -163h10q18 50 49 101.5t77.5 93.5t108.5 68.5t142 26.5
q181 0 268.5 -103.5t87.5 -305.5l1 -494q0 -154 -42.5 -267t-123 -186t-195 -107.5t-258.5 -32.5l-26 203l8 18v0z" />
    <glyph glyph-name="arrowleft" unicode="&#x2190;" horiz-adv-x="1750" 
d="M692 1245l102 -80l-334 -390l278 10q163 9 291 9h635v-183h-635q-51 0 -120 1.5t-145.5 4t-155 6t-148.5 7.5l334 -388l-102 -80l-535 503v75z" />
    <glyph glyph-name="arrowup" unicode="&#x2191;" horiz-adv-x="1358" 
d="M1224 924l-80 -102l-390 334l11 -278q4 -82 6 -154.5t2 -136.5v-586h-183v586q0 51 1.5 120t4 145.5t6 154.5t7.5 149l-388 -334l-80 102l503 535h75z" />
    <glyph glyph-name="arrowright" unicode="&#x2192;" horiz-adv-x="1750" 
d="M1664 740v-75l-535 -503l-103 80l335 388q-71 -4 -149.5 -7.5t-155 -6t-145 -4t-119.5 -1.5h-635v183h635q126 0 290 -9l279 -10l-335 390l103 80z" />
    <glyph glyph-name="arrowdown" unicode="&#x2193;" horiz-adv-x="1358" 
d="M719 1h-75l-503 535l80 103l388 -335q-4 71 -7.5 149.5t-6 155t-4 145t-1.5 119.5v586h183v-586q0 -63 -2 -135.5t-6 -154.5l-11 -279l390 335l80 -103z" />
    <glyph glyph-name="arrowboth" unicode="&#x2194;" horiz-adv-x="1936" 
d="M692 1245l102 -80l-334 -390l278 10l131.5 6t126.5 3q131 0 277 -9l278 -10l-334 390l102 80l535 -505v-75l-535 -503l-102 80l334 388q-65 -4 -138 -7.5t-145.5 -6t-140 -4t-121.5 -1.5h-11q-53 0 -119.5 2t-137.5 4.5t-142.5 5.5t-135.5 7l334 -388l-102 -80l-535 503
v75z" />
    <glyph glyph-name="arrowupdn" unicode="&#x2195;" horiz-adv-x="1358" 
d="M1218 924l-80 -102l-390 334l11 -278q1 -40 1 -91t-0.5 -96.5t-1 -76t0.5 -30.5l-11 -279l390 335l80 -103l-505 -535h-75l-503 535l80 103l388 -335q-4 65 -7.5 113t-6 89t-4 80t-1.5 86q0 34 1.5 89.5t4 122t6 137t7.5 134.5l-388 -334l-80 102l503 535h75z" />
    <glyph glyph-name="uni2196" unicode="&#x2196;" horiz-adv-x="1564" 
d="M993 1266l17 -129l-512 -39l204 -190l113.5 -104.5l97.5 -94.5l449 -449l-130 -130l-449 449l-83 86l-99.5 106l-105.5 113.5l-101 110.5l-37 -511l-129 16l-22 734l53 53z" />
    <glyph glyph-name="uni2197" unicode="&#x2197;" horiz-adv-x="1564" 
d="M1355 474l-129 -16l-39 512l-190 -204q-110 -122 -199 -211l-449 -449l-130 129l449 449l86 83.5l106 99.5l113.5 105.5l110.5 100.5l-511 38l16 128l734 23l53 -53z" />
    <glyph glyph-name="uni2198" unicode="&#x2198;" horiz-adv-x="1564" 
d="M575 166l-17 128l512 40l-204 190q-122 109 -211 199l-449 449l130 129l449 -449l83.5 -85.5l99.5 -105.5l105 -114l101 -111l37 511l129 -15l22 -734l-52 -54z" />
    <glyph glyph-name="uni2199" unicode="&#x2199;" horiz-adv-x="1564" 
d="M234 932l129 16l39 -512l190 204q109 121 199 211l449 449l130 -129l-449 -449l-86 -83.5l-106 -99.5l-114 -105.5l-110 -100.5l511 -38l-16 -128l-733 -23l-54 53z" />
    <glyph glyph-name="zero.opencirc" 
d="M868 355l859 867q169 -219 169 -437q0 -126 -39 -235.5t-114 -194.5h-875zM739 333q-81 104 -122 214.5t-41 237.5q0 50 9 106t27.5 110.5t47.5 104.5t69 89h869zM797 281h881q-97 -84 -210.5 -125t-232.5 -41q-127 0 -237 44t-201 122zM1678 1275h-889q103 78 214.5 122
t231.5 44q65 0 123 -12.5t112 -35t105 -52.5t103 -66z" />
    <glyph glyph-name="uni2780" unicode="&#x2780;" 
d="M868 355l859 867q169 -219 169 -437q0 -126 -39 -235.5t-114 -194.5h-875zM739 333q-81 104 -122 214.5t-41 237.5q0 50 9 106t27.5 110.5t47.5 104.5t69 89h869zM797 281h881q-97 -84 -210.5 -125t-232.5 -41q-127 0 -237 44t-201 122zM1678 1275h-889q103 78 214.5 122
t231.5 44q65 0 123 -12.5t112 -35t105 -52.5t103 -66z" />
    <glyph glyph-name="uni2781" unicode="&#x2781;" 
d="M868 355l859 867q169 -219 169 -437q0 -126 -39 -235.5t-114 -194.5h-875zM739 333q-81 104 -122 214.5t-41 237.5q0 50 9 106t27.5 110.5t47.5 104.5t69 89h869zM797 281h881q-97 -84 -210.5 -125t-232.5 -41q-127 0 -237 44t-201 122zM1678 1275h-889q103 78 214.5 122
t231.5 44q65 0 123 -12.5t112 -35t105 -52.5t103 -66z" />
    <glyph glyph-name="uni2782" unicode="&#x2782;" 
d="M868 355l859 867q169 -219 169 -437q0 -126 -39 -235.5t-114 -194.5h-875zM739 333q-81 104 -122 214.5t-41 237.5q0 50 9 106t27.5 110.5t47.5 104.5t69 89h869zM797 281h881q-97 -84 -210.5 -125t-232.5 -41q-127 0 -237 44t-201 122zM1678 1275h-889q103 78 214.5 122
t231.5 44q65 0 123 -12.5t112 -35t105 -52.5t103 -66z" />
    <glyph glyph-name="uni2783" unicode="&#x2783;" 
d="M868 355l859 867q169 -219 169 -437q0 -126 -39 -235.5t-114 -194.5h-875zM739 333q-81 104 -122 214.5t-41 237.5q0 50 9 106t27.5 110.5t47.5 104.5t69 89h869zM797 281h881q-97 -84 -210.5 -125t-232.5 -41q-127 0 -237 44t-201 122zM1678 1275h-889q103 78 214.5 122
t231.5 44q65 0 123 -12.5t112 -35t105 -52.5t103 -66z" />
    <glyph glyph-name="uni2784" unicode="&#x2784;" 
d="M868 355l859 867q169 -219 169 -437q0 -126 -39 -235.5t-114 -194.5h-875zM739 333q-81 104 -122 214.5t-41 237.5q0 50 9 106t27.5 110.5t47.5 104.5t69 89h869zM797 281h881q-97 -84 -210.5 -125t-232.5 -41q-127 0 -237 44t-201 122zM1678 1275h-889q103 78 214.5 122
t231.5 44q65 0 123 -12.5t112 -35t105 -52.5t103 -66z" />
    <glyph glyph-name="uni2785" unicode="&#x2785;" 
d="M868 355l859 867q169 -219 169 -437q0 -126 -39 -235.5t-114 -194.5h-875zM739 333q-81 104 -122 214.5t-41 237.5q0 50 9 106t27.5 110.5t47.5 104.5t69 89h869zM797 281h881q-97 -84 -210.5 -125t-232.5 -41q-127 0 -237 44t-201 122zM1678 1275h-889q103 78 214.5 122
t231.5 44q65 0 123 -12.5t112 -35t105 -52.5t103 -66z" />
    <glyph glyph-name="uni2786" unicode="&#x2786;" 
d="M868 355l859 867q169 -219 169 -437q0 -126 -39 -235.5t-114 -194.5h-875zM739 333q-81 104 -122 214.5t-41 237.5q0 50 9 106t27.5 110.5t47.5 104.5t69 89h869zM797 281h881q-97 -84 -210.5 -125t-232.5 -41q-127 0 -237 44t-201 122zM1678 1275h-889q103 78 214.5 122
t231.5 44q65 0 123 -12.5t112 -35t105 -52.5t103 -66z" />
    <glyph glyph-name="uni2787" unicode="&#x2787;" 
d="M868 355l859 867q169 -219 169 -437q0 -126 -39 -235.5t-114 -194.5h-875zM739 333q-81 104 -122 214.5t-41 237.5q0 50 9 106t27.5 110.5t47.5 104.5t69 89h869zM797 281h881q-97 -84 -210.5 -125t-232.5 -41q-127 0 -237 44t-201 122zM1678 1275h-889q103 78 214.5 122
t231.5 44q65 0 123 -12.5t112 -35t105 -52.5t103 -66z" />
    <glyph glyph-name="uni2788" unicode="&#x2788;" 
d="M868 355l859 867q169 -219 169 -437q0 -126 -39 -235.5t-114 -194.5h-875zM739 333q-81 104 -122 214.5t-41 237.5q0 50 9 106t27.5 110.5t47.5 104.5t69 89h869zM797 281h881q-97 -84 -210.5 -125t-232.5 -41q-127 0 -237 44t-201 122zM1678 1275h-889q103 78 214.5 122
t231.5 44q65 0 123 -12.5t112 -35t105 -52.5t103 -66z" />
    <glyph glyph-name="zero.closecirc" 
d="M868 355l859 867q169 -219 169 -437q0 -126 -39 -235.5t-114 -194.5h-875zM739 333q-81 104 -122 214.5t-41 237.5q0 50 9 106t27.5 110.5t47.5 104.5t69 89h869zM797 281h881q-97 -84 -210.5 -125t-232.5 -41q-127 0 -237 44t-201 122zM1678 1275h-889q103 78 214.5 122
t231.5 44q65 0 123 -12.5t112 -35t105 -52.5t103 -66z" />
    <glyph glyph-name="uni278A" unicode="&#x278a;" 
d="M868 355l859 867q169 -219 169 -437q0 -126 -39 -235.5t-114 -194.5h-875zM739 333q-81 104 -122 214.5t-41 237.5q0 50 9 106t27.5 110.5t47.5 104.5t69 89h869zM797 281h881q-97 -84 -210.5 -125t-232.5 -41q-127 0 -237 44t-201 122zM1678 1275h-889q103 78 214.5 122
t231.5 44q65 0 123 -12.5t112 -35t105 -52.5t103 -66z" />
    <glyph glyph-name="uni278B" unicode="&#x278b;" 
d="M868 355l859 867q169 -219 169 -437q0 -126 -39 -235.5t-114 -194.5h-875zM739 333q-81 104 -122 214.5t-41 237.5q0 50 9 106t27.5 110.5t47.5 104.5t69 89h869zM797 281h881q-97 -84 -210.5 -125t-232.5 -41q-127 0 -237 44t-201 122zM1678 1275h-889q103 78 214.5 122
t231.5 44q65 0 123 -12.5t112 -35t105 -52.5t103 -66z" />
    <glyph glyph-name="uni278C" unicode="&#x278c;" 
d="M868 355l859 867q169 -219 169 -437q0 -126 -39 -235.5t-114 -194.5h-875zM739 333q-81 104 -122 214.5t-41 237.5q0 50 9 106t27.5 110.5t47.5 104.5t69 89h869zM797 281h881q-97 -84 -210.5 -125t-232.5 -41q-127 0 -237 44t-201 122zM1678 1275h-889q103 78 214.5 122
t231.5 44q65 0 123 -12.5t112 -35t105 -52.5t103 -66z" />
    <glyph glyph-name="uni278D" unicode="&#x278d;" 
d="M868 355l859 867q169 -219 169 -437q0 -126 -39 -235.5t-114 -194.5h-875zM739 333q-81 104 -122 214.5t-41 237.5q0 50 9 106t27.5 110.5t47.5 104.5t69 89h869zM797 281h881q-97 -84 -210.5 -125t-232.5 -41q-127 0 -237 44t-201 122zM1678 1275h-889q103 78 214.5 122
t231.5 44q65 0 123 -12.5t112 -35t105 -52.5t103 -66z" />
    <glyph glyph-name="uni278E" unicode="&#x278e;" 
d="M868 355l859 867q169 -219 169 -437q0 -126 -39 -235.5t-114 -194.5h-875zM739 333q-81 104 -122 214.5t-41 237.5q0 50 9 106t27.5 110.5t47.5 104.5t69 89h869zM797 281h881q-97 -84 -210.5 -125t-232.5 -41q-127 0 -237 44t-201 122zM1678 1275h-889q103 78 214.5 122
t231.5 44q65 0 123 -12.5t112 -35t105 -52.5t103 -66z" />
    </font>
</defs>
</svg>
